<?xml version="1.0" encoding="UTF-8" standalone="no"?> <!-- Created with Vectornator for iOS (http://vectornator.io/) --><!DOCTYPE svg PUBLIC "-//W3C//DTD SVG 1.1//EN" "http://www.w3.org/Graphics/SVG/1.1/DTD/svg11.dtd">
<svg height="50mm" style="fill-rule:nonzero;clip-rule:evenodd;stroke-linecap:round;stroke-linejoin:round;" xmlns:xlink="http://www.w3.org/1999/xlink" xmlns="http://www.w3.org/2000/svg" xml:space="preserve" width="65mm" xmlns:vectornator="http://vectornator.io" version="1.1" viewBox="0 0 65 50">
<metadata>
<vectornator:setting key="DimensionsVisible" value="1"/>
<vectornator:setting key="PencilOnly" value="0"/>
<vectornator:setting key="SnapToPoints" value="0"/>
<vectornator:setting key="OutlineMode" value="0"/>
<vectornator:setting key="RulersVisible" value="1"/>
<vectornator:setting key="GuidesVisible" value="1"/>
<vectornator:setting key="SnapToEdges" value="0"/>
<vectornator:setting key="CMYKEnabledKey" value="0"/>
<vectornator:setting key="DisplayWhiteBackground" value="0"/>
<vectornator:setting key="doHistoryDisabled" value="0"/>
<vectornator:setting key="SnapToGuides" value="1"/>
<vectornator:setting key="TimeLapseWatermarkDisabled" value="0"/>
<vectornator:setting key="DynamicGuides" value="0"/>
<vectornator:setting key="SnapToGrid" value="0"/>
<vectornator:setting key="IsolateActiveLayer" value="0"/>
<vectornator:setting key="Units" value="Points"/>
</metadata>
<defs/>
<g id="breadboard" vectornator:layerName="breadboard">
<path d="M3.4375+0C1.54573-3.17891e-07+0+1.54573+0+3.4375L0+16L4.53125+16C4.61945+16+4.6875+16.1335+4.6875+16.3125L4.6875+33.6875C4.6875+33.8665+4.61945+34+4.53125+34L0+34L0+46.5625C-3.17891e-07+48.4543+1.54573+50+3.4375+50L61.5625+50C63.4543+50+65+48.4543+65+46.5625L65+3.4375C65+1.54573+63.4543+0+61.5625+0L3.4375+0Z" opacity="1" fill="#4b863a"/>
<g opacity="1">
<path d="M0.84244+9.08207C0.844718+9.12276+0.854321+9.1558+0.871248+9.18119C0.903475+9.22871+0.960278+9.25248+1.04166+9.25248C1.07812+9.25248+1.11132+9.24727+1.14127+9.23685C1.19921+9.21667+1.22818+9.18054+1.22818+9.12845C1.22818+9.08939+1.21597+9.06156+1.19156+9.04496C1.16682+9.02868+1.12808+9.01452+1.07535+9.00248L0.978182+8.9805C0.914705+8.96618+0.869783+8.95039+0.843416+8.93314C0.797843+8.90319+0.775057+8.85843+0.775057+8.79886C0.775057+8.73441+0.797355+8.68151+0.841951+8.64017C0.886548+8.59883+0.949699+8.57816+1.0314+8.57816C1.1066+8.57816+1.17048+8.59631+1.22305+8.6326C1.27563+8.6689+1.30191+8.72692+1.30191+8.80668L1.2106+8.80668C1.20572+8.76826+1.1953+8.7388+1.17935+8.7183C1.14973+8.68086+1.09944+8.66214+1.02847+8.66214C0.971183+8.66214+0.930005+8.67419+0.90494+8.69828C0.879875+8.72237+0.867342+8.75036+0.867342+8.78226C0.867342+8.81742+0.881991+8.84313+0.911287+8.85941C0.930493+8.86983+0.97395+8.88285+1.04166+8.89847L1.14224+8.92142C1.19075+8.93249+1.22818+8.94763+1.25455+8.96683C1.30012+9.00036+1.32291+9.04903+1.32291+9.11283C1.32291+9.19226+1.29402+9.24906+1.23624+9.28324C1.17846+9.31742+1.11132+9.33451+1.03482+9.33451C0.94563+9.33451+0.875806+9.31172+0.82535+9.26615C0.774894+9.2209+0.750155+9.15954+0.751131+9.08207L0.84244+9.08207Z" opacity="1" fill="#ffffff"/>
<path d="M1.72135+9.2305C1.75422+9.2305+1.78124+9.22709+1.8024+9.22025C1.84016+9.20755+1.87109+9.18314+1.89517+9.14701C1.91438+9.11804+1.92821+9.08093+1.93668+9.03568C1.94156+9.00866+1.944+8.9836+1.944+8.96048C1.944+8.87162+1.92634+8.80261+1.89102+8.75345C1.8557+8.7043+1.79882+8.67972+1.72037+8.67972L1.54801+8.67972L1.54801+9.2305L1.72135+9.2305ZM1.45035+8.59623L1.74088+8.59623C1.83951+8.59623+1.91601+8.63122+1.97037+8.70121C2.01887+8.76436+2.04312+8.84525+2.04312+8.94388C2.04312+9.02005+2.0288+9.0889+2.00015+9.15043C1.9497+9.25915+1.86295+9.31351+1.7399+9.31351L1.45035+9.31351L1.45035+8.59623Z" opacity="1" fill="#ffffff"/>
<path d="M2.53629+9.01957L2.4274+8.70267L2.31168+9.01957L2.53629+9.01957ZM2.37662+8.59623L2.48648+8.59623L2.74674+9.31351L2.64029+9.31351L2.56754+9.09867L2.28385+9.09867L2.20621+9.31351L2.1066+9.31351L2.37662+8.59623Z" opacity="1" fill="#ffffff"/>
</g>
<g opacity="1">
<path d="M3.60635+4.73322C3.60863+4.77391+3.61823+4.80695+3.63516+4.83234C3.66739+4.87987+3.72419+4.90363+3.80557+4.90363C3.84203+4.90363+3.87523+4.89842+3.90518+4.88801C3.96312+4.86782+3.99209+4.83169+3.99209+4.77961C3.99209+4.74055+3.97989+4.71271+3.95547+4.69611C3.93073+4.67984+3.89199+4.66568+3.83926+4.65363L3.74209+4.63166C3.67862+4.61734+3.63369+4.60155+3.60733+4.5843C3.56175+4.55435+3.53897+4.50959+3.53897+4.45002C3.53897+4.38557+3.56127+4.33267+3.60586+4.29133C3.65046+4.24999+3.71361+4.22932+3.79532+4.22932C3.87051+4.22932+3.93439+4.24746+3.98697+4.28376C4.03954+4.32005+4.06582+4.37808+4.06582+4.45783L3.97451+4.45783C3.96963+4.41942+3.95921+4.38996+3.94326+4.36945C3.91364+4.33202+3.86335+4.3133+3.79239+4.3133C3.73509+4.3133+3.69392+4.32534+3.66885+4.34943C3.64379+4.37352+3.63125+4.40152+3.63125+4.43342C3.63125+4.46857+3.6459+4.49429+3.6752+4.51057C3.6944+4.52098+3.73786+4.534+3.80557+4.54963L3.90616+4.57258C3.95466+4.58365+3.99209+4.59878+4.01846+4.61799C4.06403+4.65152+4.08682+4.70018+4.08682+4.76398C4.08682+4.84341+4.05793+4.90021+4.00015+4.93439C3.94237+4.96857+3.87523+4.98566+3.79873+4.98566C3.70954+4.98566+3.63972+4.96288+3.58926+4.9173C3.5388+4.87206+3.51407+4.8107+3.51504+4.73322L3.60635+4.73322Z" opacity="1" fill="#ffffff"/>
<path d="M4.51211+4.22785C4.60293+4.22785+4.67341+4.25178+4.72354+4.29963C4.77367+4.34748+4.8015+4.40184+4.80703+4.46271L4.71231+4.46271C4.70157+4.41649+4.68016+4.37987+4.6481+4.35285C4.61603+4.32583+4.57103+4.31232+4.51309+4.31232C4.44245+4.31232+4.3854+4.33714+4.34195+4.38679C4.29849+4.43643+4.27676+4.51252+4.27676+4.61506C4.27676+4.69904+4.29637+4.76716+4.3356+4.8194C4.37482+4.87165+4.43334+4.89777+4.51114+4.89777C4.58275+4.89777+4.63727+4.87027+4.67471+4.81525C4.69457+4.78628+4.70938+4.7482+4.71914+4.701L4.81387+4.701C4.80541+4.77652+4.77741+4.83983+4.72989+4.89094C4.67292+4.95246+4.5961+4.98322+4.49942+4.98322C4.41608+4.98322+4.3461+4.95799+4.28946+4.90754C4.21491+4.84081+4.17764+4.73778+4.17764+4.59846C4.17764+4.49266+4.20563+4.40591+4.26162+4.3382C4.32217+4.26463+4.40567+4.22785+4.51211+4.22785Z" opacity="1" fill="#ffffff"/>
<path d="M4.93203+4.24738L5.0292+4.24738L5.0292+4.87922L5.39248+4.87922L5.39248+4.96467L4.93203+4.96467L4.93203+4.24738Z" opacity="1" fill="#ffffff"/>
</g>
<g opacity="1">
<path d="M8.85363+4.576C8.8992+4.576+8.93525+4.56688+8.96178+4.54865C8.98831+4.53042+9.00158+4.49754+9.00158+4.45002C9.00158+4.39891+8.98302+4.36408+8.94591+4.34553C8.92606+4.33576+8.89953+4.33088+8.86632+4.33088L8.62902+4.33088L8.62902+4.576L8.85363+4.576ZM8.53185+4.24738L8.86388+4.24738C8.91857+4.24738+8.96366+4.25536+8.99914+4.27131C9.06652+4.30191+9.10021+4.35838+9.10021+4.44074C9.10021+4.48371+9.09134+4.51887+9.0736+4.54621C9.05586+4.57355+9.03104+4.59553+8.99914+4.61213C9.02713+4.62352+9.04821+4.6385+9.06237+4.65705C9.07653+4.6756+9.08442+4.70572+9.08605+4.74738L9.08947+4.84357C9.09045+4.87092+9.09272+4.89126+9.0963+4.90461C9.10216+4.9274+9.11258+4.94204+9.12755+4.94855L9.12755+4.96467L9.00841+4.96467C9.00516+4.95848+9.00255+4.95051+9.0006+4.94074C8.99865+4.93098+8.99702+4.9121+8.99572+4.8841L8.98986+4.76447C8.98758+4.7176+8.97017+4.68618+8.93761+4.67023C8.91906+4.66144+8.88992+4.65705+8.85021+4.65705L8.62902+4.65705L8.62902+4.96467L8.53185+4.96467L8.53185+4.24738Z" opacity="1" fill="#ffffff"/>
<path d="M9.30382+4.96467L9.18664+4.96467L9.44347+4.59699L9.20275+4.24738L9.32433+4.24738L9.50744+4.5218L9.68908+4.24738L9.8048+4.24738L9.56408+4.59699L9.81652+4.96467L9.69591+4.96467L9.50255+4.66975L9.30382+4.96467Z" opacity="1" fill="#ffffff"/>
<path d="M10.1847+4.88166C10.2176+4.88166+10.2446+4.87824+10.2657+4.87141C10.3035+4.85871+10.3344+4.8343+10.3585+4.79816C10.3777+4.76919+10.3916+4.73208+10.4+4.68684C10.4049+4.65982+10.4073+4.63475+10.4073+4.61164C10.4073+4.52277+10.3897+4.45376+10.3544+4.40461C10.319+4.35546+10.2622+4.33088+10.1837+4.33088L10.0113+4.33088L10.0113+4.88166L10.1847+4.88166ZM9.91369+4.24738L10.2042+4.24738C10.3028+4.24738+10.3793+4.28238+10.4337+4.35236C10.4822+4.41551+10.5065+4.49641+10.5065+4.59504C10.5065+4.67121+10.4921+4.74006+10.4635+4.80158C10.413+4.91031+10.3263+4.96467+10.2032+4.96467L9.91369+4.96467L9.91369+4.24738Z" opacity="1" fill="#ffffff"/>
</g>
<g opacity="1">
<path d="M14.2894+4.46955L14.2894+4.40217C14.3529+4.39598+14.3972+4.38565+14.4222+4.37116C14.4473+4.35668+14.466+4.32241+14.4784+4.26838L14.5477+4.26838L14.5477+4.96467L14.454+4.96467L14.454+4.46955L14.2894+4.46955Z" opacity="1" fill="#ffffff"/>
<path d="M15.2728+4.27717L15.2728+4.35383C15.2504+4.37564+15.2205+4.41356+15.1832+4.4676C15.146+4.52163+15.113+4.5799+15.0844+4.6424C15.056+4.70327+15.0345+4.75878+15.0199+4.80891C15.0105+4.84113+14.9983+4.89305+14.9833+4.96467L14.8861+4.96467C14.9082+4.8312+14.9571+4.69839+15.0326+4.56623C15.0772+4.48876+15.1241+4.42186+15.1732+4.36555L14.7865+4.36555L14.7865+4.27717L15.2728+4.27717Z" opacity="1" fill="#ffffff"/>
</g>
<g opacity="1">
<path d="M19.3528+4.96467C19.3561+4.90445+19.3686+4.85204+19.3902+4.80744C19.4118+4.76284+19.4541+4.72232+19.5169+4.68586L19.6107+4.63166C19.6526+4.60725+19.6821+4.58641+19.699+4.56916C19.7257+4.54214+19.7391+4.51122+19.7391+4.47639C19.7391+4.4357+19.7269+4.40339+19.7025+4.37946C19.678+4.35554+19.6455+4.34357+19.6048+4.34357C19.5446+4.34357+19.5029+4.36636+19.4798+4.41193C19.4674+4.43635+19.4606+4.4702+19.4593+4.5135L19.3699+4.5135C19.3709+4.45262+19.3821+4.40298+19.4036+4.36457C19.4417+4.29686+19.5089+4.26301+19.6053+4.26301C19.6854+4.26301+19.7439+4.28465+19.7808+4.32795C19.8178+4.37124+19.8362+4.41942+19.8362+4.47248C19.8362+4.52847+19.8165+4.57632+19.7772+4.61603C19.7544+4.63915+19.7135+4.66714+19.6546+4.70002L19.5877+4.73713C19.5558+4.75471+19.5307+4.77147+19.5125+4.78742C19.48+4.81574+19.4595+4.84715+19.451+4.88166L19.8328+4.88166L19.8328+4.96467L19.3528+4.96467Z" opacity="1" fill="#ffffff"/>
<path d="M20.4007+4.27717L20.4007+4.35383C20.3782+4.37564+20.3484+4.41356+20.3111+4.4676C20.2738+4.52163+20.2409+4.5799+20.2122+4.6424C20.1839+4.70327+20.1624+4.75878+20.1478+4.80891C20.1383+4.84113+20.1261+4.89305+20.1111+4.96467L20.014+4.96467C20.0361+4.8312+20.0849+4.69839+20.1605+4.56623C20.2051+4.48876+20.2519+4.42186+20.3011+4.36555L19.9144+4.36555L19.9144+4.27717L20.4007+4.27717Z" opacity="1" fill="#ffffff"/>
</g>
<g opacity="1">
<path d="M24.2827+4.96467C24.286+4.90445+24.2984+4.85204+24.3201+4.80744C24.3417+4.76284+24.384+4.72232+24.4468+4.68586L24.5405+4.63166C24.5825+4.60725+24.612+4.58641+24.6289+4.56916C24.6556+4.54214+24.669+4.51122+24.669+4.47639C24.669+4.4357+24.6568+4.40339+24.6323+4.37946C24.6079+4.35554+24.5754+4.34357+24.5347+4.34357C24.4745+4.34357+24.4328+4.36636+24.4097+4.41193C24.3973+4.43635+24.3905+4.4702+24.3892+4.5135L24.2998+4.5135C24.3008+4.45262+24.312+4.40298+24.3335+4.36457C24.3716+4.29686+24.4388+4.26301+24.5352+4.26301C24.6153+4.26301+24.6738+4.28465+24.7107+4.32795C24.7477+4.37124+24.7661+4.41942+24.7661+4.47248C24.7661+4.52847+24.7464+4.57632+24.707+4.61603C24.6843+4.63915+24.6434+4.66714+24.5845+4.70002L24.5176+4.73713C24.4857+4.75471+24.4606+4.77147+24.4424+4.78742C24.4098+4.81574+24.3893+4.84715+24.3809+4.88166L24.7627+4.88166L24.7627+4.96467L24.2827+4.96467Z" opacity="1" fill="#ffffff"/>
<path d="M25.0674+4.98371C24.9847+4.98371+24.9247+4.96101+24.8875+4.9156C24.8502+4.87018+24.8316+4.81493+24.8316+4.74982L24.9234+4.74982C24.9273+4.79507+24.9357+4.82795+24.9487+4.84846C24.9715+4.88524+25.0127+4.90363+25.0723+4.90363C25.1185+4.90363+25.1556+4.89126+25.1836+4.86652C25.2116+4.84178+25.2256+4.80988+25.2256+4.77082C25.2256+4.72264+25.2109+4.68895+25.1814+4.66975C25.152+4.65054+25.111+4.64094+25.0586+4.64094C25.0528+4.64094+25.0468+4.64102+25.0408+4.64118C25.0348+4.64134+25.0287+4.64159+25.0225+4.64191L25.0225+4.56428C25.0316+4.56525+25.0392+4.5659+25.0454+4.56623C25.0516+4.56656+25.0583+4.56672+25.0654+4.56672C25.0983+4.56672+25.1253+4.56151+25.1465+4.55109C25.1836+4.53286+25.2022+4.50031+25.2022+4.45344C25.2022+4.41861+25.1898+4.39175+25.1651+4.37287C25.1403+4.35399+25.1115+4.34455+25.0786+4.34455C25.02+4.34455+24.9795+4.36408+24.957+4.40314C24.9447+4.42463+24.9377+4.45523+24.9361+4.49494L24.8491+4.49494C24.8491+4.44286+24.8596+4.39859+24.8804+4.36213C24.9162+4.29702+24.9792+4.26447+25.0694+4.26447C25.1406+4.26447+25.1958+4.28034+25.2349+4.31208C25.2739+4.34382+25.2935+4.3898+25.2935+4.45002C25.2935+4.49299+25.2819+4.52782+25.2588+4.55451C25.2445+4.57111+25.2259+4.58413+25.2031+4.59357C25.2399+4.60366+25.2687+4.62311+25.2893+4.65192C25.31+4.68073+25.3203+4.71597+25.3203+4.75764C25.3203+4.82437+25.2984+4.87873+25.2544+4.92072C25.2105+4.96271+25.1481+4.98371+25.0674+4.98371Z" opacity="1" fill="#ffffff"/>
</g>
<g opacity="1">
<path d="M29.3285+4.96467C29.3318+4.90445+29.3442+4.85204+29.3659+4.80744C29.3875+4.76284+29.4298+4.72232+29.4926+4.68586L29.5863+4.63166C29.6283+4.60725+29.6578+4.58641+29.6747+4.56916C29.7014+4.54214+29.7148+4.51122+29.7148+4.47639C29.7148+4.4357+29.7026+4.40339+29.6781+4.37946C29.6537+4.35554+29.6212+4.34357+29.5805+4.34357C29.5203+4.34357+29.4786+4.36636+29.4555+4.41193C29.4431+4.43635+29.4363+4.4702+29.435+4.5135L29.3456+4.5135C29.3466+4.45262+29.3578+4.40298+29.3793+4.36457C29.4174+4.29686+29.4846+4.26301+29.581+4.26301C29.661+4.26301+29.7196+4.28465+29.7565+4.32795C29.7935+4.37124+29.8119+4.41942+29.8119+4.47248C29.8119+4.52847+29.7922+4.57632+29.7528+4.61603C29.7301+4.63915+29.6892+4.66714+29.6303+4.70002L29.5634+4.73713C29.5315+4.75471+29.5064+4.77147+29.4882+4.78742C29.4556+4.81574+29.4351+4.84715+29.4267+4.88166L29.8085+4.88166L29.8085+4.96467L29.3285+4.96467Z" opacity="1" fill="#ffffff"/>
<path d="M29.977+4.78644C29.9828+4.83657+30.0061+4.87124+30.0468+4.89045C30.0676+4.90021+30.0917+4.9051+30.1191+4.9051C30.1711+4.9051+30.2097+4.8885+30.2348+4.85529C30.2598+4.82209+30.2724+4.78531+30.2724+4.74494C30.2724+4.69611+30.2575+4.65835+30.2277+4.63166C30.1979+4.60497+30.1622+4.59162+30.1205+4.59162C30.0902+4.59162+30.0643+4.59748+30.0426+4.6092C30.021+4.62092+30.0025+4.63719+29.9872+4.65803L29.911+4.65363L29.9643+4.27717L30.3276+4.27717L30.3276+4.36213L30.0302+4.36213L30.0004+4.55646C30.0167+4.54409+30.0321+4.53482+30.0468+4.52863C30.0728+4.51789+30.1029+4.51252+30.1371+4.51252C30.2012+4.51252+30.2556+4.53319+30.3002+4.57453C30.3448+4.61587+30.3671+4.66828+30.3671+4.73176C30.3671+4.79784+30.3467+4.85611+30.3058+4.90656C30.265+4.95702+30.1998+4.98225+30.1103+4.98225C30.0533+4.98225+30.0029+4.96621+29.9591+4.93415C29.9154+4.90209+29.8909+4.85285+29.8857+4.78644L29.977+4.78644Z" opacity="1" fill="#ffffff"/>
</g>
<g opacity="1">
<path d="M33.8774+4.24738L34.0166+4.24738L34.2226+4.85383L34.4272+4.24738L34.5649+4.24738L34.5649+4.96467L34.4726+4.96467L34.4726+4.54133C34.4726+4.52668+34.473+4.50243+34.4736+4.46857C34.4743+4.43472+34.4746+4.39842+34.4746+4.35969L34.27+4.96467L34.1738+4.96467L33.9678+4.35969L33.9678+4.38166C33.9678+4.39924+33.9682+4.42601+33.969+4.46198C33.9698+4.49795+33.9702+4.5244+33.9702+4.54133L33.9702+4.96467L33.8774+4.96467L33.8774+4.24738Z" opacity="1" fill="#ffffff"/>
<path d="M34.7348+4.24738L34.833+4.24738L34.833+4.96467L34.7348+4.96467L34.7348+4.24738Z" opacity="1" fill="#ffffff"/>
<path d="M35.0542+4.73322C35.0565+4.77391+35.0661+4.80695+35.083+4.83234C35.1152+4.87987+35.172+4.90363+35.2534+4.90363C35.2899+4.90363+35.3231+4.89842+35.353+4.88801C35.411+4.86782+35.4399+4.83169+35.4399+4.77961C35.4399+4.74055+35.4277+4.71271+35.4033+4.69611C35.3786+4.67984+35.3398+4.66568+35.2871+4.65363L35.1899+4.63166C35.1264+4.61734+35.0815+4.60155+35.0552+4.5843C35.0096+4.55435+34.9868+4.50959+34.9868+4.45002C34.9868+4.38557+35.0091+4.33267+35.0537+4.29133C35.0983+4.24999+35.1614+4.22932+35.2431+4.22932C35.3183+4.22932+35.3822+4.24746+35.4348+4.28376C35.4874+4.32005+35.5137+4.37808+35.5137+4.45783L35.4223+4.45783C35.4175+4.41942+35.407+4.38996+35.3911+4.36945C35.3615+4.33202+35.3112+4.3133+35.2402+4.3133C35.1829+4.3133+35.1417+4.32534+35.1167+4.34943C35.0916+4.37352+35.0791+4.40152+35.0791+4.43342C35.0791+4.46857+35.0937+4.49429+35.123+4.51057C35.1422+4.52098+35.1857+4.534+35.2534+4.54963L35.354+4.57258C35.4025+4.58365+35.4399+4.59878+35.4663+4.61799C35.5119+4.65152+35.5346+4.70018+35.5346+4.76398C35.5346+4.84341+35.5058+4.90021+35.448+4.93439C35.3902+4.96857+35.3231+4.98566+35.2466+4.98566C35.1574+4.98566+35.0875+4.96288+35.0371+4.9173C34.9866+4.87206+34.9619+4.8107+34.9629+4.73322L35.0542+4.73322Z" opacity="1" fill="#ffffff"/>
<path d="M35.9673+4.22785C36.0939+4.22785+36.1876+4.26854+36.2485+4.34992C36.296+4.4134+36.3198+4.49462+36.3198+4.59357C36.3198+4.70067+36.2926+4.7897+36.2383+4.86066C36.1745+4.944+36.0835+4.98566+35.9653+4.98566C35.855+4.98566+35.7682+4.94921+35.7051+4.87629C35.6487+4.80598+35.6206+4.71711+35.6206+4.60969C35.6206+4.51268+35.6447+4.42967+35.6929+4.36066C35.7547+4.27212+35.8462+4.22785+35.9673+4.22785ZM35.977+4.89875C36.0626+4.89875+36.1246+4.86807+36.1628+4.80671C36.2011+4.74535+36.2202+4.67479+36.2202+4.59504C36.2202+4.51073+36.1981+4.44286+36.154+4.39143C36.1099+4.33999+36.0496+4.31428+35.9731+4.31428C35.8989+4.31428+35.8384+4.33975+35.7915+4.39069C35.7446+4.44164+35.7212+4.51675+35.7212+4.61603C35.7212+4.69546+35.7413+4.76244+35.7815+4.81696C35.8217+4.87149+35.8869+4.89875+35.977+4.89875Z" opacity="1" fill="#ffffff"/>
</g>
<g opacity="1">
<path d="M39.2033+4.22785C39.2942+4.22785+39.3646+4.25178+39.4148+4.29963C39.4649+4.34748+39.4927+4.40184+39.4983+4.46271L39.4035+4.46271C39.3928+4.41649+39.3714+4.37987+39.3393+4.35285C39.3073+4.32583+39.2622+4.31232+39.2043+4.31232C39.1337+4.31232+39.0766+4.33714+39.0332+4.38679C38.9897+4.43643+38.968+4.51252+38.968+4.61506C38.968+4.69904+38.9876+4.76716+39.0268+4.8194C39.066+4.87165+39.1246+4.89777+39.2024+4.89777C39.274+4.89777+39.3285+4.87027+39.3659+4.81525C39.3858+4.78628+39.4006+4.7482+39.4104+4.701L39.5051+4.701C39.4966+4.77652+39.4686+4.83983+39.4211+4.89094C39.3641+4.95246+39.2873+4.98322+39.1906+4.98322C39.1073+4.98322+39.0373+4.95799+38.9807+4.90754C38.9061+4.84081+38.8689+4.73778+38.8689+4.59846C38.8689+4.49266+38.8969+4.40591+38.9528+4.3382C39.0134+4.26463+39.0969+4.22785+39.2033+4.22785Z" opacity="1" fill="#ffffff"/>
<path d="M39.6325+4.24738L40.1555+4.24738L40.1555+4.33527L39.7273+4.33527L39.7273+4.55305L40.1233+4.55305L40.1233+4.63605L39.7273+4.63605L39.7273+4.87922L40.1628+4.87922L40.1628+4.96467L39.6325+4.96467L39.6325+4.24738Z" opacity="1" fill="#ffffff"/>
<path d="M40.4846+4.26545C40.5751+4.26545+40.6405+4.30272+40.6809+4.37726C40.7121+4.43488+40.7277+4.51382+40.7277+4.61408C40.7277+4.70913+40.7136+4.78775+40.6853+4.84992C40.6442+4.93911+40.5772+4.98371+40.4841+4.98371C40.4001+4.98371+40.3376+4.94725+40.2966+4.87434C40.2624+4.81346+40.2453+4.73176+40.2453+4.62922C40.2453+4.54979+40.2556+4.48159+40.2761+4.42463C40.3145+4.31851+40.384+4.26545+40.4846+4.26545ZM40.4836+4.90363C40.5292+4.90363+40.5655+4.88345+40.5925+4.84309C40.6195+4.80272+40.633+4.72753+40.633+4.6175C40.633+4.53807+40.6233+4.47272+40.6037+4.42145C40.5842+4.37018+40.5463+4.34455+40.49+4.34455C40.4382+4.34455+40.4004+4.36888+40.3764+4.41755C40.3525+4.46621+40.3405+4.53791+40.3405+4.63264C40.3405+4.70393+40.3482+4.76122+40.3635+4.80451C40.3869+4.87059+40.427+4.90363+40.4836+4.90363Z" opacity="1" fill="#ffffff"/>
</g>
<g opacity="1">
<path d="M44.5841+4.78644C44.5899+4.83657+44.6132+4.87124+44.6539+4.89045C44.6747+4.90021+44.6988+4.9051+44.7262+4.9051C44.7783+4.9051+44.8168+4.8885+44.8419+4.85529C44.867+4.82209+44.8795+4.78531+44.8795+4.74494C44.8795+4.69611+44.8646+4.65835+44.8348+4.63166C44.805+4.60497+44.7693+4.59162+44.7276+4.59162C44.6974+4.59162+44.6714+4.59748+44.6498+4.6092C44.6281+4.62092+44.6096+4.63719+44.5943+4.65803L44.5182+4.65363L44.5714+4.27717L44.9347+4.27717L44.9347+4.36213L44.6373+4.36213L44.6075+4.55646C44.6238+4.54409+44.6393+4.53482+44.6539+4.52863C44.6799+4.51789+44.7101+4.51252+44.7442+4.51252C44.8084+4.51252+44.8627+4.53319+44.9073+4.57453C44.9519+4.61587+44.9742+4.66828+44.9742+4.73176C44.9742+4.79784+44.9538+4.85611+44.9129+4.90656C44.8721+4.95702+44.8069+4.98225+44.7174+4.98225C44.6604+4.98225+44.61+4.96621+44.5663+4.93415C44.5225+4.90209+44.498+4.85285+44.4928+4.78644L44.5841+4.78644Z" opacity="1" fill="#ffffff"/>
</g>
<g opacity="1">
<path d="M49.8752+4.46955L49.8752+4.40217C49.9387+4.39598+49.983+4.38565+50.008+4.37116C50.0331+4.35668+50.0518+4.32241+50.0642+4.26838L50.1335+4.26838L50.1335+4.96467L50.0398+4.96467L50.0398+4.46955L49.8752+4.46955Z" opacity="1" fill="#ffffff"/>
<path d="M50.3669+4.96467C50.3702+4.90445+50.3826+4.85204+50.4043+4.80744C50.4259+4.76284+50.4682+4.72232+50.531+4.68586L50.6247+4.63166C50.6667+4.60725+50.6962+4.58641+50.7131+4.56916C50.7398+4.54214+50.7532+4.51122+50.7532+4.47639C50.7532+4.4357+50.741+4.40339+50.7165+4.37946C50.6921+4.35554+50.6596+4.34357+50.6189+4.34357C50.5587+4.34357+50.517+4.36636+50.4939+4.41193C50.4815+4.43635+50.4747+4.4702+50.4734+4.5135L50.384+4.5135C50.385+4.45262+50.3962+4.40298+50.4177+4.36457C50.4558+4.29686+50.523+4.26301+50.6194+4.26301C50.6995+4.26301+50.758+4.28465+50.7949+4.32795C50.8319+4.37124+50.8503+4.41942+50.8503+4.47248C50.8503+4.52847+50.8306+4.57632+50.7913+4.61603C50.7685+4.63915+50.7276+4.66714+50.6687+4.70002L50.6018+4.73713C50.5699+4.75471+50.5448+4.77147+50.5266+4.78742C50.4941+4.81574+50.4735+4.84715+50.4651+4.88166L50.8469+4.88166L50.8469+4.96467L50.3669+4.96467Z" opacity="1" fill="#ffffff"/>
</g>
<g opacity="1">
<path d="M55.1827+4.46955L55.1827+4.40217C55.2462+4.39598+55.2905+4.38565+55.3155+4.37116C55.3406+4.35668+55.3593+4.32241+55.3717+4.26838L55.441+4.26838L55.441+4.96467L55.3473+4.96467L55.3473+4.46955L55.1827+4.46955Z" opacity="1" fill="#ffffff"/>
<path d="M55.9356+4.26252C56.0138+4.26252+56.0682+4.28278+56.099+4.32331C56.1297+4.36384+56.1451+4.40559+56.1451+4.44855L56.0582+4.44855C56.053+4.42088+56.0447+4.39924+56.0333+4.38361C56.0121+4.35432+55.9801+4.33967+55.9371+4.33967C55.8879+4.33967+55.8489+4.36237+55.8199+4.40778C55.7909+4.45319+55.7748+4.51822+55.7716+4.60285C55.7918+4.57323+55.8171+4.55109+55.8477+4.53644C55.8757+4.52342+55.907+4.51691+55.9415+4.51691C56.0001+4.51691+56.0512+4.53563+56.0948+4.57307C56.1384+4.6105+56.1602+4.66633+56.1602+4.74055C56.1602+4.80402+56.1396+4.86026+56.0982+4.90925C56.0569+4.95824+55.998+4.98273+55.9215+4.98273C55.856+4.98273+55.7996+4.95791+55.752+4.90827C55.7045+4.85863+55.6808+4.77505+55.6808+4.65754C55.6808+4.57062+55.6913+4.49689+55.7125+4.43635C55.7532+4.32046+55.8276+4.26252+55.9356+4.26252ZM55.9293+4.90461C55.9755+4.90461+56.0101+4.88907+56.033+4.85798C56.056+4.82689+56.0675+4.79019+56.0675+4.74787C56.0675+4.71206+56.0572+4.67796+56.0367+4.64558C56.0162+4.61319+55.9789+4.59699+55.9249+4.59699C55.8871+4.59699+55.854+4.60952+55.8255+4.63459C55.797+4.65965+55.7828+4.69741+55.7828+4.74787C55.7828+4.79214+55.7957+4.82933+55.8216+4.85944C55.8475+4.88955+55.8834+4.90461+55.9293+4.90461Z" opacity="1" fill="#ffffff"/>
</g>
<g opacity="1">
<path d="M59.9686+4.96467C59.9718+4.90445+59.9843+4.85204+60.0059+4.80744C60.0276+4.76284+60.0698+4.72232+60.1326+4.68586L60.2264+4.63166C60.2684+4.60725+60.2978+4.58641+60.3148+4.56916C60.3415+4.54214+60.3548+4.51122+60.3548+4.47639C60.3548+4.4357+60.3426+4.40339+60.3182+4.37946C60.2938+4.35554+60.2612+4.34357+60.2205+4.34357C60.1603+4.34357+60.1186+4.36636+60.0955+4.41193C60.0832+4.43635+60.0763+4.4702+60.075+4.5135L59.9857+4.5135C59.9866+4.45262+59.9979+4.40298+60.0194+4.36457C60.0574+4.29686+60.1247+4.26301+60.221+4.26301C60.3011+4.26301+60.3596+4.28465+60.3965+4.32795C60.4335+4.37124+60.452+4.41942+60.452+4.47248C60.452+4.52847+60.4323+4.57632+60.3929+4.61603C60.3701+4.63915+60.3292+4.66714+60.2703+4.70002L60.2034+4.73713C60.1715+4.75471+60.1465+4.77147+60.1282+4.78742C60.0957+4.81574+60.0752+4.84715+60.0667+4.88166L60.4486+4.88166L60.4486+4.96467L59.9686+4.96467Z" opacity="1" fill="#ffffff"/>
<path d="M60.764+4.26545C60.8545+4.26545+60.9199+4.30272+60.9603+4.37726C60.9915+4.43488+61.0071+4.51382+61.0071+4.61408C61.0071+4.70913+60.993+4.78775+60.9647+4.84992C60.9236+4.93911+60.8566+4.98371+60.7635+4.98371C60.6795+4.98371+60.617+4.94725+60.576+4.87434C60.5418+4.81346+60.5247+4.73176+60.5247+4.62922C60.5247+4.54979+60.535+4.48159+60.5555+4.42463C60.5939+4.31851+60.6634+4.26545+60.764+4.26545ZM60.763+4.90363C60.8086+4.90363+60.8449+4.88345+60.8719+4.84309C60.8989+4.80272+60.9124+4.72753+60.9124+4.6175C60.9124+4.53807+60.9027+4.47272+60.8831+4.42145C60.8636+4.37018+60.8257+4.34455+60.7694+4.34455C60.7176+4.34455+60.6798+4.36888+60.6558+4.41755C60.6319+4.46621+60.6199+4.53791+60.6199+4.63264C60.6199+4.70393+60.6276+4.76122+60.6429+4.80451C60.6663+4.87059+60.7064+4.90363+60.763+4.90363Z" opacity="1" fill="#ffffff"/>
</g>
<g opacity="1">
<path d="M6.60494+8.59623L6.60494+8.68168L6.36324+8.68168L6.36324+9.31351L6.26461+9.31351L6.26461+8.68168L6.02291+8.68168L6.02291+8.59623L6.60494+8.59623Z" opacity="1" fill="#ffffff"/>
<path d="M6.75533+9.31351L6.63815+9.31351L6.89498+8.94584L6.65426+8.59623L6.77584+8.59623L6.95895+8.87064L7.14059+8.59623L7.25631+8.59623L7.01559+8.94584L7.26803+9.31351L7.14742+9.31351L6.95406+9.01859L6.75533+9.31351Z" opacity="1" fill="#ffffff"/>
<path d="M7.63619+9.2305C7.66907+9.2305+7.69609+9.22709+7.71725+9.22025C7.75501+9.20755+7.78593+9.18314+7.81002+9.14701C7.82923+9.11804+7.84306+9.08093+7.85152+9.03568C7.85641+9.00866+7.85885+8.9836+7.85885+8.96048C7.85885+8.87162+7.84119+8.80261+7.80587+8.75345C7.77055+8.7043+7.71367+8.67972+7.63522+8.67972L7.46285+8.67972L7.46285+9.2305L7.63619+9.2305ZM7.3652+8.59623L7.65572+8.59623C7.75436+8.59623+7.83085+8.63122+7.88522+8.70121C7.93372+8.76436+7.95797+8.84525+7.95797+8.94388C7.95797+9.02005+7.94365+9.0889+7.915+9.15043C7.86455+9.25915+7.77779+9.31351+7.65475+9.31351L7.3652+9.31351L7.3652+8.59623Z" opacity="1" fill="#ffffff"/>
</g>
<g opacity="1">
<path d="M12.0366+9.06595L12.0366+8.74906L11.8125+9.06595L12.0366+9.06595ZM12.0381+9.31351L12.0381+9.14261L11.7315+9.14261L11.7315+9.05668L12.0518+8.61234L12.126+8.61234L12.126+9.06595L12.229+9.06595L12.229+9.14261L12.126+9.14261L12.126+9.31351L12.0381+9.31351Z" opacity="1" fill="#ffffff"/>
</g>
<g opacity="1">
<path d="M16.5541+8.81839L16.5541+8.75101C16.6176+8.74483+16.6619+8.73449+16.6869+8.72001C16.712+8.70552+16.7307+8.67126+16.7431+8.61722L16.8124+8.61722L16.8124+9.31351L16.7187+9.31351L16.7187+8.81839L16.5541+8.81839Z" opacity="1" fill="#ffffff"/>
<path d="M17.2866+8.90726C17.3253+8.90726+17.3556+8.89644+17.3774+8.87479C17.3992+8.85314+17.4101+8.82735+17.4101+8.7974C17.4101+8.77136+17.3997+8.74743+17.3788+8.72562C17.358+8.70381+17.3263+8.69291+17.2836+8.69291C17.2413+8.69291+17.2107+8.70381+17.1918+8.72562C17.173+8.74743+17.1635+8.77298+17.1635+8.80228C17.1635+8.83516+17.1757+8.86087+17.2001+8.87943C17.2245+8.89798+17.2534+8.90726+17.2866+8.90726ZM17.2919+9.25345C17.3326+9.25345+17.3664+9.24247+17.3932+9.22049C17.4201+9.19852+17.4335+9.16572+17.4335+9.12211C17.4335+9.07686+17.4197+9.04252+17.392+9.01908C17.3644+8.99564+17.3289+8.98392+17.2856+8.98392C17.2436+8.98392+17.2093+8.99588+17.1828+9.01981C17.1563+9.04374+17.143+9.07686+17.143+9.11918C17.143+9.15563+17.1551+9.18713+17.1794+9.21366C17.2036+9.24019+17.2411+9.25345+17.2919+9.25345ZM17.1669+8.94095C17.1425+8.93054+17.1235+8.91833+17.1098+8.90433C17.0841+8.87829+17.0712+8.84444+17.0712+8.80277C17.0712+8.75069+17.0901+8.70593+17.1279+8.66849C17.1656+8.63106+17.2192+8.61234+17.2885+8.61234C17.3556+8.61234+17.4081+8.63+17.4462+8.66532C17.4843+8.70064+17.5034+8.7419+17.5034+8.7891C17.5034+8.83272+17.4923+8.86804+17.4702+8.89505C17.4578+8.91035+17.4386+8.92533+17.4125+8.93998C17.4415+8.95332+17.4643+8.96862+17.4809+8.98587C17.5118+9.01843+17.5273+9.06074+17.5273+9.11283C17.5273+9.17435+17.5066+9.22652+17.4653+9.26932C17.4239+9.31213+17.3655+9.33353+17.29+9.33353C17.2219+9.33353+17.1644+9.31506+17.1174+9.27811C17.0703+9.24116+17.0468+9.18753+17.0468+9.11722C17.0468+9.07588+17.0569+9.04016+17.0771+9.01004C17.0973+8.97993+17.1272+8.9569+17.1669+8.94095Z" opacity="1" fill="#ffffff"/>
</g>
<g opacity="1">
<path d="M21.7894+9.31351C21.7927+9.25329+21.8051+9.20088+21.8268+9.15628C21.8484+9.11169+21.8907+9.07116+21.9535+9.0347L22.0472+8.9805C22.0892+8.95609+22.1187+8.93526+22.1356+8.918C22.1623+8.89099+22.1756+8.86006+22.1756+8.82523C22.1756+8.78454+22.1634+8.75223+22.139+8.72831C22.1146+8.70438+22.0821+8.69242+22.0414+8.69242C21.9811+8.69242+21.9395+8.7152+21.9164+8.76078C21.904+8.78519+21.8972+8.81904+21.8959+8.86234L21.8065+8.86234C21.8075+8.80147+21.8187+8.75182+21.8402+8.71341C21.8783+8.64571+21.9455+8.61185+22.0419+8.61185C22.1219+8.61185+22.1804+8.6335+22.2174+8.67679C22.2543+8.72009+22.2728+8.76826+22.2728+8.82132C22.2728+8.87731+22.2531+8.92516+22.2137+8.96488C22.1909+8.98799+22.1501+9.01599+22.0912+9.04886L22.0243+9.08597C21.9924+9.10355+21.9673+9.12031+21.9491+9.13627C21.9165+9.16459+21.896+9.196+21.8876+9.2305L22.2694+9.2305L22.2694+9.31351L21.7894+9.31351Z" opacity="1" fill="#ffffff"/>
<path d="M22.3456+9.31351C22.3488+9.25329+22.3613+9.20088+22.3829+9.15628C22.4046+9.11169+22.4468+9.07116+22.5096+9.0347L22.6034+8.9805C22.6454+8.95609+22.6748+8.93526+22.6918+8.918C22.7185+8.89099+22.7318+8.86006+22.7318+8.82523C22.7318+8.78454+22.7196+8.75223+22.6952+8.72831C22.6708+8.70438+22.6382+8.69242+22.5975+8.69242C22.5373+8.69242+22.4956+8.7152+22.4725+8.76078C22.4602+8.78519+22.4533+8.81904+22.452+8.86234L22.3627+8.86234C22.3636+8.80147+22.3749+8.75182+22.3964+8.71341C22.4344+8.64571+22.5017+8.61185+22.598+8.61185C22.6781+8.61185+22.7366+8.6335+22.7735+8.67679C22.8105+8.72009+22.829+8.76826+22.829+8.82132C22.829+8.87731+22.8093+8.92516+22.7699+8.96488C22.7471+8.98799+22.7062+9.01599+22.6473+9.04886L22.5804+9.08597C22.5485+9.10355+22.5235+9.12031+22.5052+9.13627C22.4727+9.16459+22.4522+9.196+22.4437+9.2305L22.8256+9.2305L22.8256+9.31351L22.3456+9.31351Z" opacity="1" fill="#ffffff"/>
</g>
<g opacity="1">
<path d="M26.9428+9.31351C26.9461+9.25329+26.9585+9.20088+26.9802+9.15628C27.0018+9.11169+27.044+9.07116+27.1069+9.0347L27.2006+8.9805C27.2426+8.95609+27.2721+8.93526+27.289+8.918C27.3157+8.89099+27.329+8.86006+27.329+8.82523C27.329+8.78454+27.3168+8.75223+27.2924+8.72831C27.268+8.70438+27.2354+8.69242+27.1948+8.69242C27.1345+8.69242+27.0929+8.7152+27.0698+8.76078C27.0574+8.78519+27.0506+8.81904+27.0492+8.86234L26.9599+8.86234C26.9609+8.80147+26.9721+8.75182+26.9936+8.71341C27.0317+8.64571+27.0989+8.61185+27.1952+8.61185C27.2753+8.61185+27.3338+8.6335+27.3708+8.67679C27.4077+8.72009+27.4262+8.76826+27.4262+8.82132C27.4262+8.87731+27.4065+8.92516+27.3671+8.96488C27.3443+8.98799+27.3035+9.01599+27.2446+9.04886L27.1777+9.08597C27.1458+9.10355+27.1207+9.12031+27.1025+9.13627C27.0699+9.16459+27.0494+9.196+27.0409+9.2305L27.4228+9.2305L27.4228+9.31351L26.9428+9.31351Z" opacity="1" fill="#ffffff"/>
<path d="M27.7983+9.06595L27.7983+8.74906L27.5742+9.06595L27.7983+9.06595ZM27.7997+9.31351L27.7997+9.14261L27.4931+9.14261L27.4931+9.05668L27.8134+8.61234L27.8876+8.61234L27.8876+9.06595L27.9907+9.06595L27.9907+9.14261L27.8876+9.14261L27.8876+9.31351L27.7997+9.31351Z" opacity="1" fill="#ffffff"/>
</g>
<g opacity="1">
<path d="M31.332+8.59623L31.4712+8.59623L31.6772+9.20267L31.8818+8.59623L32.0195+8.59623L32.0195+9.31351L31.9272+9.31351L31.9272+8.89017C31.9272+8.87552+31.9275+8.85127+31.9282+8.81742C31.9288+8.78356+31.9292+8.74727+31.9292+8.70853L31.7246+9.31351L31.6284+9.31351L31.4223+8.70853L31.4223+8.7305C31.4223+8.74808+31.4227+8.77486+31.4235+8.81083C31.4244+8.8468+31.4248+8.87324+31.4248+8.89017L31.4248+9.31351L31.332+9.31351L31.332+8.59623Z" opacity="1" fill="#ffffff"/>
<path d="M32.477+8.57669C32.6036+8.57669+32.6974+8.61738+32.7583+8.69876C32.8058+8.76224+32.8295+8.84346+32.8295+8.94242C32.8295+9.04951+32.8024+9.13854+32.748+9.20951C32.6842+9.29284+32.5932+9.33451+32.4751+9.33451C32.3647+9.33451+32.278+9.29805+32.2148+9.22513C32.1585+9.15482+32.1303+9.06595+32.1303+8.95853C32.1303+8.86153+32.1544+8.77852+32.2026+8.70951C32.2644+8.62097+32.3559+8.57669+32.477+8.57669ZM32.4868+9.24759C32.5724+9.24759+32.6343+9.21691+32.6726+9.15555C32.7108+9.09419+32.7299+9.02363+32.7299+8.94388C32.7299+8.85957+32.7079+8.7917+32.6638+8.74027C32.6197+8.68884+32.5594+8.66312+32.4829+8.66312C32.4087+8.66312+32.3481+8.68859+32.3012+8.73954C32.2544+8.79048+32.2309+8.86559+32.2309+8.96488C32.2309+9.04431+32.251+9.11128+32.2912+9.16581C32.3314+9.22033+32.3966+9.24759+32.4868+9.24759Z" opacity="1" fill="#ffffff"/>
<path d="M33.0087+9.08207C33.011+9.12276+33.0206+9.1558+33.0376+9.18119C33.0698+9.22871+33.1266+9.25248+33.208+9.25248C33.2444+9.25248+33.2776+9.24727+33.3076+9.23685C33.3655+9.21667+33.3945+9.18054+33.3945+9.12845C33.3945+9.08939+33.3823+9.06156+33.3579+9.04496C33.3331+9.02868+33.2944+9.01452+33.2417+9.00248L33.1445+8.9805C33.081+8.96618+33.0361+8.95039+33.0097+8.93314C32.9642+8.90319+32.9414+8.85843+32.9414+8.79886C32.9414+8.73441+32.9637+8.68151+33.0083+8.64017C33.0529+8.59883+33.116+8.57816+33.1977+8.57816C33.2729+8.57816+33.3368+8.59631+33.3894+8.6326C33.4419+8.6689+33.4682+8.72692+33.4682+8.80668L33.3769+8.80668C33.372+8.76826+33.3616+8.7388+33.3457+8.7183C33.316+8.68086+33.2657+8.66214+33.1948+8.66214C33.1375+8.66214+33.0963+8.67419+33.0712+8.69828C33.0462+8.72237+33.0337+8.75036+33.0337+8.78226C33.0337+8.81742+33.0483+8.84313+33.0776+8.85941C33.0968+8.86983+33.1403+8.88285+33.208+8.89847L33.3086+8.92142C33.3571+8.93249+33.3945+8.94763+33.4209+8.96683C33.4664+9.00036+33.4892+9.04903+33.4892+9.11283C33.4892+9.19225+33.4603+9.24906+33.4025+9.28324C33.3448+9.31742+33.2776+9.33451+33.2011+9.33451C33.1119+9.33451+33.0421+9.31172+32.9917+9.26615C32.9412+9.2209+32.9165+9.15954+32.9174+9.08207L33.0087+9.08207Z" opacity="1" fill="#ffffff"/>
<path d="M33.6342+8.59623L33.7324+8.59623L33.7324+9.31351L33.6342+9.31351L33.6342+8.59623Z" opacity="1" fill="#ffffff"/>
</g>
<g opacity="1">
<path d="M37.2306+8.57669C37.3215+8.57669+37.3919+8.60062+37.4421+8.64847C37.4922+8.69632+37.52+8.75069+37.5256+8.81156L37.4308+8.81156C37.4201+8.76533+37.3987+8.72871+37.3666+8.70169C37.3346+8.67468+37.2896+8.66117+37.2316+8.66117C37.161+8.66117+37.1039+8.68599+37.0605+8.73563C37.017+8.78527+36.9953+8.86136+36.9953+8.9639C36.9953+9.04789+37.0149+9.116+37.0541+9.16825C37.0933+9.22049+37.1519+9.24662+37.2297+9.24662C37.3013+9.24662+37.3558+9.21911+37.3932+9.1641C37.4131+9.13513+37.4279+9.09704+37.4377+9.04984L37.5324+9.04984C37.5239+9.12536+37.4959+9.18867+37.4484+9.23978C37.3914+9.3013+37.3146+9.33207+37.2179+9.33207C37.1346+9.33207+37.0646+9.30684+37.008+9.25638C36.9334+9.18965+36.8962+9.08662+36.8962+8.9473C36.8962+8.84151+36.9242+8.75475+36.9801+8.68705C37.0407+8.61348+37.1242+8.57669+37.2306+8.57669Z" opacity="1" fill="#ffffff"/>
<path d="M37.6506+8.59623L37.7477+8.59623L37.7477+9.22806L38.111+9.22806L38.111+9.31351L37.6506+9.31351L37.6506+8.59623Z" opacity="1" fill="#ffffff"/>
<path d="M38.2067+8.59623L38.3014+8.59623L38.3014+8.94584L38.651+8.59623L38.7853+8.59623L38.487+8.88529L38.7936+9.31351L38.6672+9.31351L38.4162+8.95365L38.3014+9.06351L38.3014+9.31351L38.2067+9.31351L38.2067+8.59623Z" opacity="1" fill="#ffffff"/>
</g>
<g opacity="1">
<path d="M42.2005+8.57669C42.2913+8.57669+42.3618+8.60062+42.4119+8.64847C42.462+8.69632+42.4899+8.75069+42.4954+8.81156L42.4007+8.81156C42.3899+8.76533+42.3685+8.72871+42.3365+8.70169C42.3044+8.67468+42.2594+8.66117+42.2015+8.66117C42.1308+8.66117+42.0738+8.68599+42.0303+8.73563C41.9869+8.78527+41.9651+8.86136+41.9651+8.9639C41.9651+9.04789+41.9848+9.116+42.024+9.16825C42.0632+9.22049+42.1217+9.24662+42.1995+9.24662C42.2711+9.24662+42.3257+9.21911+42.3631+9.1641C42.3829+9.13513+42.3978+9.09704+42.4075+9.04984L42.5023+9.04984C42.4938+9.12536+42.4658+9.18867+42.4183+9.23978C42.3613+9.3013+42.2845+9.33207+42.1878+9.33207C42.1045+9.33207+42.0345+9.30684+41.9778+9.25638C41.9033+9.18965+41.866+9.08662+41.866+8.9473C41.866+8.84151+41.894+8.75475+41.95+8.68705C42.0106+8.61348+42.094+8.57669+42.2005+8.57669Z" opacity="1" fill="#ffffff"/>
<path d="M42.6297+8.59623L43.1526+8.59623L43.1526+8.68412L42.7244+8.68412L42.7244+8.90189L43.1204+8.90189L43.1204+8.9849L42.7244+8.9849L42.7244+9.22806L43.16+9.22806L43.16+9.31351L42.6297+9.31351L42.6297+8.59623Z" opacity="1" fill="#ffffff"/>
<path d="M43.3069+8.81839L43.3069+8.75101C43.3704+8.74483+43.4147+8.73449+43.4398+8.72001C43.4648+8.70552+43.4835+8.67126+43.4959+8.61722L43.5652+8.61722L43.5652+9.31351L43.4715+9.31351L43.4715+8.81839L43.3069+8.81839Z" opacity="1" fill="#ffffff"/>
</g>
<g opacity="1">
<path d="M47.9273+8.61136C48.0054+8.61136+48.0599+8.63163+48.0906+8.67215C48.1214+8.71268+48.1368+8.75443+48.1368+8.7974L48.0499+8.7974C48.0447+8.76973+48.0364+8.74808+48.025+8.73246C48.0038+8.70316+47.9717+8.68851+47.9288+8.68851C47.8796+8.68851+47.8406+8.71122+47.8116+8.75663C47.7826+8.80204+47.7665+8.86706+47.7632+8.95169C47.7834+8.92207+47.8088+8.89994+47.8394+8.88529C47.8674+8.87227+47.8987+8.86576+47.9332+8.86576C47.9918+8.86576+48.0429+8.88447+48.0865+8.92191C48.1301+8.95934+48.1519+9.01517+48.1519+9.08939C48.1519+9.15287+48.1312+9.2091+48.0899+9.25809C48.0486+9.30708+47.9896+9.33158+47.9131+9.33158C47.8477+9.33158+47.7912+9.30676+47.7437+9.25711C47.6962+9.20747+47.6724+9.1239+47.6724+9.00638C47.6724+8.91947+47.683+8.84574+47.7042+8.78519C47.7448+8.66931+47.8192+8.61136+47.9273+8.61136ZM47.921+9.25345C47.9672+9.25345+48.0018+9.23791+48.0247+9.20682C48.0477+9.17573+48.0591+9.13903+48.0591+9.09671C48.0591+9.06091+48.0489+9.02681+48.0284+8.99442C48.0079+8.96203+47.9706+8.94584+47.9166+8.94584C47.8788+8.94584+47.8457+8.95837+47.8172+8.98343C47.7887+9.0085+47.7745+9.04626+47.7745+9.09671C47.7745+9.14099+47.7874+9.17818+47.8133+9.20829C47.8392+9.2384+47.8751+9.25345+47.921+9.25345Z" opacity="1" fill="#ffffff"/>
</g>
<g opacity="1">
<path d="M52.5512+8.81839L52.5512+8.75101C52.6147+8.74483+52.659+8.73449+52.6841+8.72001C52.7091+8.70552+52.7278+8.67126+52.7402+8.61722L52.8095+8.61722L52.8095+9.31351L52.7158+9.31351L52.7158+8.81839L52.5512+8.81839Z" opacity="1" fill="#ffffff"/>
<path d="M53.2715+9.33255C53.1888+9.33255+53.1288+9.30985+53.0915+9.26444C53.0543+9.21903+53.0356+9.16377+53.0356+9.09867L53.1274+9.09867C53.1313+9.14391+53.1398+9.17679+53.1528+9.1973C53.1756+9.23408+53.2168+9.25248+53.2763+9.25248C53.3226+9.25248+53.3597+9.24011+53.3877+9.21537C53.4157+9.19063+53.4297+9.15873+53.4297+9.11966C53.4297+9.07149+53.4149+9.03779+53.3855+9.01859C53.356+8.99938+53.3151+8.98978+53.2627+8.98978C53.2568+8.98978+53.2509+8.98986+53.2448+8.99002C53.2388+8.99019+53.2327+8.99043+53.2265+8.99076L53.2265+8.91312C53.2357+8.9141+53.2433+8.91475+53.2495+8.91507C53.2557+8.9154+53.2623+8.91556+53.2695+8.91556C53.3024+8.91556+53.3294+8.91035+53.3506+8.89994C53.3877+8.88171+53.4062+8.84916+53.4062+8.80228C53.4062+8.76745+53.3939+8.74059+53.3691+8.72171C53.3444+8.70283+53.3156+8.69339+53.2827+8.69339C53.2241+8.69339+53.1836+8.71293+53.1611+8.75199C53.1487+8.77347+53.1417+8.80407+53.1401+8.84378L53.0532+8.84378C53.0532+8.7917+53.0636+8.74743+53.0844+8.71097C53.1203+8.64587+53.1832+8.61332+53.2734+8.61332C53.3447+8.61332+53.3999+8.62918+53.4389+8.66092C53.478+8.69266+53.4975+8.73864+53.4975+8.79886C53.4975+8.84183+53.486+8.87666+53.4629+8.90335C53.4485+8.91996+53.43+8.93298+53.4072+8.94242C53.444+8.95251+53.4727+8.97196+53.4934+9.00077C53.5141+9.02958+53.5244+9.06481+53.5244+9.10648C53.5244+9.17321+53.5024+9.22757+53.4585+9.26957C53.4145+9.31156+53.3522+9.33255+53.2715+9.33255Z" opacity="1" fill="#ffffff"/>
</g>
<g opacity="1">
<path d="M57.6995+8.81839L57.6995+8.75101C57.763+8.74483+57.8073+8.73449+57.8323+8.72001C57.8574+8.70552+57.8761+8.67126+57.8885+8.61722L57.9578+8.61722L57.9578+9.31351L57.8641+9.31351L57.8641+8.81839L57.6995+8.81839Z" opacity="1" fill="#ffffff"/>
<path d="M58.2928+9.14457C58.2954+9.19307+58.3141+9.2266+58.3489+9.24515C58.3668+9.25492+58.387+9.2598+58.4095+9.2598C58.4515+9.2598+58.4873+9.2423+58.5169+9.20731C58.5465+9.17232+58.5675+9.10127+58.5799+8.99418C58.5604+9.0251+58.5362+9.04683+58.5074+9.05936C58.4786+9.07189+58.4476+9.07816+58.4144+9.07816C58.347+9.07816+58.2937+9.05716+58.2544+9.01517C58.2152+8.97318+58.1956+8.91914+58.1956+8.85306C58.1956+8.78959+58.215+8.73376+58.2537+8.68558C58.2925+8.6374+58.3496+8.61332+58.4251+8.61332C58.527+8.61332+58.5973+8.65921+58.636+8.75101C58.6575+8.80147+58.6683+8.86462+58.6683+8.94046C58.6683+9.02608+58.6554+9.10192+58.6297+9.168C58.587+9.27803+58.5148+9.33304+58.4129+9.33304C58.3445+9.33304+58.2926+9.31514+58.2571+9.27933C58.2217+9.24352+58.2039+9.1986+58.2039+9.14457L58.2928+9.14457ZM58.4261+9.00101C58.4609+9.00101+58.4927+8.98954+58.5215+8.96659C58.5503+8.94364+58.5648+8.90352+58.5648+8.84623C58.5648+8.79479+58.5518+8.75646+58.5259+8.73124C58.5001+8.70601+58.4671+8.69339+58.4271+8.69339C58.3841+8.69339+58.35+8.7078+58.3248+8.73661C58.2995+8.76542+58.2869+8.80391+58.2869+8.85209C58.2869+8.89766+58.298+8.93387+58.3201+8.96073C58.3423+8.98758+58.3776+9.00101+58.4261+9.00101Z" opacity="1" fill="#ffffff"/>
</g>
<g opacity="1">
<path d="M63.034+9.31351C63.0372+9.25329+63.0497+9.20088+63.0713+9.15628C63.093+9.11169+63.1352+9.07116+63.198+9.0347L63.2918+8.9805C63.3338+8.95609+63.3632+8.93526+63.3802+8.918C63.4069+8.89099+63.4202+8.86006+63.4202+8.82523C63.4202+8.78454+63.408+8.75223+63.3836+8.72831C63.3592+8.70438+63.3266+8.69242+63.2859+8.69242C63.2257+8.69242+63.184+8.7152+63.1609+8.76078C63.1486+8.78519+63.1417+8.81904+63.1404+8.86234L63.0511+8.86234C63.052+8.80147+63.0633+8.75182+63.0848+8.71341C63.1228+8.64571+63.1901+8.61185+63.2864+8.61185C63.3665+8.61185+63.425+8.6335+63.462+8.67679C63.4989+8.72009+63.5174+8.76826+63.5174+8.82132C63.5174+8.87731+63.4977+8.92516+63.4583+8.96488C63.4355+8.98799+63.3947+9.01599+63.3357+9.04886L63.2688+9.08597C63.2369+9.10355+63.2119+9.12031+63.1937+9.13627C63.1611+9.16459+63.1406+9.196+63.1321+9.2305L63.514+9.2305L63.514+9.31351L63.034+9.31351Z" opacity="1" fill="#ffffff"/>
<path d="M63.6546+8.81839L63.6546+8.75101C63.7181+8.74483+63.7623+8.73449+63.7874+8.72001C63.8125+8.70552+63.8312+8.67126+63.8436+8.61722L63.9129+8.61722L63.9129+9.31351L63.8191+9.31351L63.8191+8.81839L63.6546+8.81839Z" opacity="1" fill="#ffffff"/>
</g>
<g opacity="1">
<path d="M22.3654+13.2155C22.2+13.2155+22.0801+13.1701+22.0055+13.0792C21.931+12.9884+21.8937+12.8779+21.8937+12.7477L22.0773+12.7477C22.0851+12.8382+22.1021+12.9039+22.1281+12.945C22.1737+13.0185+22.256+13.0553+22.3752+13.0553C22.4676+13.0553+22.5418+13.0306+22.5978+12.9811C22.6538+12.9316+22.6818+12.8678+22.6818+12.7897C22.6818+12.6933+22.6524+12.6259+22.5934+12.5875C22.5345+12.5491+22.4527+12.5299+22.3478+12.5299C22.3361+12.5299+22.3242+12.5301+22.3122+12.5304C22.3001+12.5307+22.2879+12.5312+22.2756+12.5319L22.2756+12.3766C22.2938+12.3786+22.3091+12.3799+22.3215+12.3805C22.3338+12.3812+22.3472+12.3815+22.3615+12.3815C22.4273+12.3815+22.4813+12.3711+22.5236+12.3502C22.5978+12.3138+22.6349+12.2487+22.6349+12.1549C22.6349+12.0853+22.6102+12.0315+22.5607+11.9938C22.5112+11.956+22.4536+11.9371+22.3879+11.9371C22.2707+11.9371+22.1896+11.9762+22.1447+12.0543C22.12+12.0973+22.106+12.1585+22.1027+12.2379L21.9289+12.2379C21.9289+12.1338+21.9497+12.0452+21.9914+11.9723C22.063+11.8421+22.189+11.777+22.3693+11.777C22.5119+11.777+22.6222+11.8087+22.7004+11.8722C22.7785+11.9357+22.8176+12.0276+22.8176+12.1481C22.8176+12.234+22.7944+12.3037+22.7482+12.3571C22.7196+12.3903+22.6825+12.4163+22.6369+12.4352C22.7105+12.4554+22.7679+12.4943+22.8093+12.5519C22.8506+12.6095+22.8713+12.68+22.8713+12.7633C22.8713+12.8968+22.8273+13.0055+22.7394+13.0895C22.6515+13.1735+22.5269+13.2155+22.3654+13.2155Z" opacity="1" fill="#ffffff"/>
<path d="M23.2238+11.7428L23.6359+12.9645L24.0431+11.7428L24.2609+11.7428L23.7375+13.1774L23.5314+13.1774L23.009+11.7428L23.2238+11.7428Z" opacity="1" fill="#ffffff"/>
</g>
<g opacity="1">
<path d="M20.6203+14.4073C20.7551+14.4073+20.8716+14.4334+20.9699+14.4854C21.1125+14.5603+21.1997+14.6915+21.2316+14.879L21.0392+14.879C21.0158+14.7742+20.9673+14.6978+20.8937+14.65C20.8202+14.6021+20.7274+14.5782+20.6154+14.5782C20.4826+14.5782+20.3708+14.628+20.28+14.7276C20.1891+14.8272+20.1437+14.9757+20.1437+15.1729C20.1437+15.3435+20.1812+15.4824+20.256+15.5895C20.3309+15.6965+20.453+15.7501+20.6222+15.7501C20.7518+15.7501+20.8591+15.7125+20.944+15.6373C21.029+15.5621+21.0724+15.4405+21.0744+15.2726L20.6252+15.2726L20.6252+15.1114L21.2551+15.1114L21.2551+15.879L21.1301+15.879L21.0832+15.6944C21.0174+15.7667+20.9592+15.8168+20.9084+15.8448C20.8231+15.893+20.7147+15.9171+20.5832+15.9171C20.4133+15.9171+20.2671+15.8621+20.1447+15.752C20.0112+15.614+19.9445+15.4246+19.9445+15.1837C19.9445+14.9435+20.0096+14.7524+20.1398+14.6104C20.2635+14.475+20.4237+14.4073+20.6203+14.4073Z" opacity="1" fill="#ffffff"/>
<path d="M21.5558+14.4444L21.7853+14.4444L22.5099+15.6065L22.5099+14.4444L22.6945+14.4444L22.6945+15.879L22.4767+15.879L21.7414+14.7179L21.7414+15.879L21.5558+15.879L21.5558+14.4444Z" opacity="1" fill="#ffffff"/>
<path d="M23.551+15.713C23.6167+15.713+23.6708+15.7061+23.7131+15.6925C23.7886+15.6671+23.8504+15.6183+23.8986+15.546C23.937+15.4881+23.9647+15.4138+23.9816+15.3233C23.9914+15.2693+23.9963+15.2192+23.9963+15.1729C23.9963+14.9952+23.961+14.8572+23.8903+14.7589C23.8197+14.6606+23.7059+14.6114+23.549+14.6114L23.2043+14.6114L23.2043+15.713L23.551+15.713ZM23.009+14.4444L23.59+14.4444C23.7873+14.4444+23.9403+14.5144+24.049+14.6544C24.146+14.7807+24.1945+14.9425+24.1945+15.1397C24.1945+15.2921+24.1659+15.4298+24.1086+15.5528C24.0077+15.7703+23.8342+15.879+23.5881+15.879L23.009+15.879L23.009+14.4444Z" opacity="1" fill="#ffffff"/>
</g>
<g opacity="1">
<path d="M46.6841+44.4529L46.6841+44.9187L47.5308+44.9187L47.5308+45.3597L45.3716+45.3597L45.3716+44.3006C45.3746+44.1492+45.3931+44.0328+45.4273+43.9512C45.4615+43.8697+45.5118+43.8006+45.5782+43.7439C45.6329+43.6971+45.6934+43.66+45.7598+43.6326C45.8262+43.6053+45.9019+43.5916+45.9869+43.5916C46.0894+43.5916+46.1903+43.6175+46.2894+43.6692C46.3885+43.721+46.4586+43.8064+46.4996+43.9256C46.5396+43.826+46.5965+43.7554+46.6702+43.7139C46.744+43.6724+46.8565+43.6517+47.0079+43.6517L47.1529+43.6517C47.2515+43.6517+47.3184+43.6478+47.3536+43.6399C47.4092+43.6282+47.4503+43.6009+47.4766+43.5579L47.5308+43.5579L47.5308+44.0545C47.483+44.0682+47.4444+44.0779+47.4151+44.0838C47.3546+44.0955+47.2925+44.1019+47.2291+44.1028L47.0284+44.1058C46.8907+44.1077+46.7989+44.1329+46.753+44.1812C46.7071+44.2295+46.6841+44.3201+46.6841+44.4529ZM46.2916+44.179C46.2506+44.0892+46.1695+44.0442+46.0484+44.0442C45.9175+44.0442+45.8297+44.0877+45.7847+44.1746C45.7593+44.2234+45.7466+44.2967+45.7466+44.3943L45.7466+44.9187L46.3267+44.9187L46.3267+44.4075C46.3267+44.306+46.315+44.2298+46.2916+44.179Z" opacity="1" fill="#ffffff"/>
<path d="M47.4781+41.8792C47.5513+41.9983+47.588+42.1448+47.588+42.3187C47.588+42.6048+47.4888+42.8392+47.2906+43.0218C47.0914+43.2122+46.8189+43.3074+46.4732+43.3074C46.1236+43.3074+45.8433+43.2112+45.6324+43.0188C45.4215+42.8265+45.316+42.5721+45.316+42.2557C45.316+41.9812+45.3856+41.7608+45.5247+41.5943C45.6639+41.4278+45.8375+41.3323+46.0455+41.3079L46.0455+41.7518C45.898+41.7859+45.795+41.8694+45.7364+42.0022C45.7042+42.0765+45.6881+42.159+45.6881+42.2498C45.6881+42.4236+45.7537+42.5665+45.8851+42.6783C46.0164+42.7901+46.2139+42.846+46.4776+42.846C46.7432+42.846+46.9312+42.7854+47.0416+42.6644C47.1519+42.5433+47.2071+42.4056+47.2071+42.2513C47.2071+42.0999+47.1634+41.9759+47.076+41.8792C46.9886+41.7825+46.8741+41.7229+46.7325+41.7005L46.7325+42.2L46.3721+42.2L46.3721+41.3006L47.5308+41.3006L47.5308+41.5994L47.2613+41.6448C47.3638+41.7317+47.4361+41.8099+47.4781+41.8792Z" opacity="1" fill="#ffffff"/>
<path d="M47.5308+39.8841L47.5308+40.8626L45.3716+40.8626L45.3716+39.8138C45.3756+39.5491+45.4522+39.3616+45.6016+39.2513C45.6934+39.1849+45.8033+39.1517+45.9312+39.1517C46.0631+39.1517+46.169+39.1849+46.2491+39.2513C46.294+39.2884+46.335+39.3431+46.3721+39.4153C46.4122+39.305+46.4757+39.2217+46.5626+39.1656C46.6495+39.1094+46.7549+39.0813+46.879+39.0813C47.0069+39.0813+47.1216+39.1136+47.2232+39.178C47.2906+39.219+47.3472+39.2703+47.3931+39.3318C47.4459+39.4012+47.482+39.483+47.5015+39.5772C47.5211+39.6714+47.5308+39.7737+47.5308+39.8841ZM46.5801+39.8943L46.5801+40.4319L47.1558+40.4319L47.1558+39.9017C47.1558+39.8069+47.1431+39.7332+47.1177+39.6805C47.0709+39.5848+46.981+39.5369+46.8482+39.5369C46.7359+39.5369+46.6588+39.5833+46.6168+39.6761C46.5933+39.7278+46.5811+39.8006+46.5801+39.8943ZM46.1685+39.6702C46.1334+39.6116+46.0704+39.5823+45.9796+39.5823C45.879+39.5823+45.8126+39.6214+45.7803+39.6995C45.7579+39.7669+45.7466+39.8528+45.7466+39.9573L45.7466+40.4319L46.2227+40.4319L46.2227+39.9017C46.2227+39.8069+46.2047+39.7298+46.1685+39.6702Z" opacity="1" fill="#ffffff"/>
<path d="M47.5308+37.4568L47.5308+37.8772L45.3716+37.8772L45.3716+37.221L47.0694+36.8284L45.3716+36.4388L45.3716+35.7898L47.5308+35.7898L47.5308+36.2103L46.0704+36.2103C46.0284+36.2103+45.9695+36.2098+45.8939+36.2088C45.8182+36.2078+45.7598+36.2073+45.7188+36.2073L47.5308+36.616L47.5308+37.054L45.7188+37.4598C45.7598+37.4598+45.8182+37.4593+45.8939+37.4583C45.9695+37.4573+46.0284+37.4568+46.0704+37.4568L47.5308+37.4568Z" opacity="1" fill="#ffffff"/>
<path d="M46.107+35.3445C45.9664+35.2342+45.8961+35.0447+45.8961+34.7762C45.8961+34.6014+45.9307+34.4461+46.0001+34.3103C46.0694+34.1746+46.2003+34.1067+46.3926+34.1067L47.1251+34.1067C47.1758+34.1067+47.2374+34.1058+47.3096+34.1038C47.3643+34.1009+47.4014+34.0926+47.421+34.0789C47.4405+34.0652+47.4566+34.0447+47.4693+34.0174L47.5308+34.0174L47.5308+34.4715C47.4986+34.4842+47.4683+34.493+47.44+34.4978C47.4117+34.5027+47.3795+34.5066+47.3433+34.5096C47.4058+34.5672+47.4591+34.6336+47.503+34.7088C47.5548+34.7986+47.5806+34.9002+47.5806+35.0135C47.5806+35.158+47.5394+35.2774+47.4569+35.3716C47.3743+35.4659+47.2574+35.513+47.106+35.513C46.9097+35.513+46.7676+35.4373+46.6798+35.2859C46.6319+35.2029+46.5977+35.0809+46.5772+34.9197L46.5596+34.7776C46.5499+34.7005+46.5377+34.6453+46.523+34.6121C46.4976+34.5525+46.4581+34.5228+46.4044+34.5228C46.3389+34.5228+46.2938+34.5455+46.2689+34.5909C46.244+34.6363+46.2315+34.7029+46.2315+34.7908C46.2315+34.8895+46.2559+34.9593+46.3048+35.0003C46.3409+35.0296+46.3897+35.0491+46.4512+35.0589L46.4512+35.4617C46.3116+35.4529+46.1968+35.4139+46.107+35.3445ZM47.2291+35.034C47.2613+34.9949+47.2774+34.9471+47.2774+34.8904C47.2774+34.8006+47.251+34.7178+47.1983+34.6421C47.1456+34.5665+47.0494+34.5271+46.9097+34.5242L46.7545+34.5242C46.7711+34.5506+46.7845+34.5772+46.7947+34.6041C46.805+34.6309+46.8145+34.6678+46.8233+34.7146L46.8409+34.8084C46.8565+34.8963+46.8756+34.9593+46.898+34.9974C46.9361+35.0618+46.9952+35.094+47.0753+35.094C47.1466+35.094+47.1978+35.074+47.2291+35.034Z" opacity="1" fill="#ffffff"/>
<path d="M47.2335+33.0052L47.5455+33.0052L47.5528+33.2029C47.5596+33.4002+47.5255+33.535+47.4503+33.6072C47.4024+33.6541+47.3287+33.6775+47.2291+33.6775L46.2462+33.6775L46.2462+33.9002L45.9488+33.9002L45.9488+33.6775L45.5035+33.6775L45.5035+33.2645L45.9488+33.2645L45.9488+33.0052L46.2462+33.0052L46.2462+33.2645L47.0899+33.2645C47.1553+33.2645+47.1961+33.2562+47.2122+33.2395C47.2283+33.2229+47.2364+33.1722+47.2364+33.0872C47.2364+33.0745+47.2362+33.0611+47.2357+33.0469C47.2352+33.0328+47.2344+33.0188+47.2335+33.0052Z" opacity="1" fill="#ffffff"/>
<path d="M46.3194+31.9344C46.3194+32.1023+46.3741+32.2151+46.4835+32.2728C46.545+32.305+46.6397+32.3211+46.7676+32.3211L47.5308+32.3211L47.5308+32.7415L45.9341+32.7415L45.9341+32.3431L46.2125+32.3431C46.106+32.2786+46.0333+32.2225+45.9942+32.1746C45.9288+32.0965+45.8961+31.9949+45.8961+31.8699C45.8961+31.8621+45.8963+31.8555+45.8968+31.8501C45.8973+31.8448+45.898+31.8328+45.899+31.8143L46.3267+31.8143C46.3238+31.8406+46.3218+31.8641+46.3209+31.8846C46.3199+31.9051+46.3194+31.9217+46.3194+31.9344Z" opacity="1" fill="#ffffff"/>
<path d="M45.9341+31.1404L47.5308+31.1404L47.5308+31.5638L45.9341+31.5638L45.9341+31.1404ZM45.3585+31.1404L45.7437+31.1404L45.7437+31.5638L45.3585+31.5638L45.3585+31.1404Z" opacity="1" fill="#ffffff"/>
<path d="M47.5308+29.3138L47.5308+29.8338L47.0518+30.1092L47.5308+30.386L47.5308+30.8929L46.7222+30.3479L45.9371+30.8694L45.9371+30.3582L46.4+30.0916L45.9371+29.8309L45.9371+29.3343L46.7149+29.8587L47.5308+29.3138Z" opacity="1" fill="#ffffff"/>
<path d="M46.9273+27.3362L47.5308+27.3362L47.5308+27.7215L46.9273+27.7215L46.9273+28.3221L46.545+28.3221L46.545+27.7215L45.9444+27.7215L45.9444+27.3362L46.545+27.3362L46.545+26.7356L46.9273+26.7356L46.9273+27.3362Z" opacity="1" fill="#ffffff"/>
<path d="M50.6841+44.4529L50.6841+44.9187L51.5308+44.9187L51.5308+45.3597L49.3716+45.3597L49.3716+44.3006C49.3746+44.1492+49.3931+44.0328+49.4273+43.9512C49.4615+43.8697+49.5118+43.8006+49.5782+43.7439C49.6329+43.6971+49.6934+43.66+49.7598+43.6326C49.8262+43.6053+49.9019+43.5916+49.9869+43.5916C50.0894+43.5916+50.1903+43.6175+50.2894+43.6692C50.3885+43.721+50.4586+43.8064+50.4996+43.9256C50.5396+43.826+50.5965+43.7554+50.6702+43.7139C50.744+43.6724+50.8565+43.6517+51.0079+43.6517L51.1529+43.6517C51.2515+43.6517+51.3184+43.6478+51.3536+43.6399C51.4092+43.6282+51.4503+43.6009+51.4766+43.5579L51.5308+43.5579L51.5308+44.0545C51.483+44.0682+51.4444+44.0779+51.4151+44.0838C51.3546+44.0955+51.2925+44.1019+51.2291+44.1028L51.0284+44.1058C50.8907+44.1077+50.7989+44.1329+50.753+44.1812C50.7071+44.2295+50.6841+44.3201+50.6841+44.4529ZM50.2916+44.179C50.2506+44.0892+50.1695+44.0442+50.0484+44.0442C49.9175+44.0442+49.8297+44.0877+49.7847+44.1746C49.7593+44.2234+49.7466+44.2967+49.7466+44.3943L49.7466+44.9187L50.3267+44.9187L50.3267+44.4075C50.3267+44.306+50.315+44.2298+50.2916+44.179Z" opacity="1" fill="#ffffff"/>
<path d="M51.0621+41.8704C51.1568+41.8812+51.253+41.9305+51.3507+42.0184C51.5059+42.1551+51.5836+42.3465+51.5836+42.5926C51.5836+42.7957+51.5181+42.9749+51.3873+43.1302C51.2564+43.2854+51.0435+43.3631+50.7486+43.3631C50.4722+43.3631+50.2603+43.293+50.1129+43.1529C49.9654+43.0127+49.8917+42.8309+49.8917+42.6072C49.8917+42.4744+49.9166+42.3548+49.9664+42.2483C50.0162+42.1419+50.0948+42.054+50.2022+41.9847C50.2969+41.9222+50.4068+41.8816+50.5318+41.8631C50.605+41.8523+50.7105+41.8479+50.8482+41.8499L50.8482+42.9427C51.0084+42.9368+51.1207+42.8865+51.1851+42.7918C51.2252+42.7342+51.2452+42.6648+51.2452+42.5838C51.2452+42.4978+51.2208+42.428+51.1719+42.3743C51.1456+42.345+51.109+42.3191+51.0621+42.2967L51.0621+41.8704ZM50.5728+42.2835C50.4625+42.2903+50.3787+42.3238+50.3216+42.3838C50.2645+42.4439+50.2359+42.5184+50.2359+42.6072C50.2359+42.7039+50.2662+42.7789+50.3267+42.8321C50.3873+42.8853+50.4693+42.9187+50.5728+42.9324L50.5728+42.2835Z" opacity="1" fill="#ffffff"/>
<path d="M50.107+41.5086C49.9664+41.3982+49.8961+41.2088+49.8961+40.9402C49.8961+40.7654+49.9307+40.6102+50.0001+40.4744C50.0694+40.3387+50.2003+40.2708+50.3926+40.2708L51.1251+40.2708C51.1758+40.2708+51.2374+40.2698+51.3096+40.2679C51.3643+40.2649+51.4014+40.2566+51.421+40.243C51.4405+40.2293+51.4566+40.2088+51.4693+40.1814L51.5308+40.1814L51.5308+40.6355C51.4986+40.6482+51.4683+40.657+51.44+40.6619C51.4117+40.6668+51.3795+40.6707+51.3433+40.6736C51.4058+40.7312+51.4591+40.7977+51.503+40.8728C51.5548+40.9627+51.5806+41.0643+51.5806+41.1775C51.5806+41.3221+51.5394+41.4415+51.4569+41.5357C51.3743+41.6299+51.2574+41.677+51.106+41.677C50.9097+41.677+50.7676+41.6014+50.6798+41.45C50.6319+41.367+50.5977+41.2449+50.5772+41.0838L50.5596+40.9417C50.5499+40.8645+50.5377+40.8094+50.523+40.7762C50.4976+40.7166+50.4581+40.6868+50.4044+40.6868C50.3389+40.6868+50.2938+40.7095+50.2689+40.7549C50.244+40.8003+50.2315+40.867+50.2315+40.9549C50.2315+41.0535+50.2559+41.1233+50.3048+41.1644C50.3409+41.1937+50.3897+41.2132+50.4512+41.2229L50.4512+41.6258C50.3116+41.617+50.1968+41.5779+50.107+41.5086ZM51.2291+41.198C51.2613+41.159+51.2774+41.1111+51.2774+41.0545C51.2774+40.9646+51.251+40.8819+51.1983+40.8062C51.1456+40.7305+51.0494+40.6912+50.9097+40.6883L50.7545+40.6883C50.7711+40.7146+50.7845+40.7413+50.7947+40.7681C50.805+40.795+50.8145+40.8318+50.8233+40.8787L50.8409+40.9725C50.8565+41.0603+50.8756+41.1233+50.898+41.1614C50.9361+41.2259+50.9952+41.2581+51.0753+41.2581C51.1466+41.2581+51.1978+41.2381+51.2291+41.198Z" opacity="1" fill="#ffffff"/>
<path d="M49.3716+39.8914L49.3716+39.4739L51.5308+39.4739L51.5308+39.8914L49.3716+39.8914Z" opacity="1" fill="#ffffff"/>
<path d="M49.3716+36.6307L49.754+36.6307L49.754+37.2767L51.5308+37.2767L51.5308+37.7308L49.754+37.7308L49.754+38.3797L49.3716+38.3797L49.3716+36.6307Z" opacity="1" fill="#ffffff"/>
<path d="M49.9341+35.9715L51.5308+35.9715L51.5308+36.3948L49.9341+36.3948L49.9341+35.9715ZM49.3585+35.9715L49.7437+35.9715L49.7437+36.3948L49.3585+36.3948L49.3585+35.9715Z" opacity="1" fill="#ffffff"/>
<path d="M50.3736+34.6707C50.2965+34.7059+50.2579+34.7747+50.2579+34.8772C50.2579+34.9964+50.2965+35.0765+50.3736+35.1175C50.4175+35.1399+50.483+35.1512+50.5699+35.1512L51.5308+35.1512L51.5308+35.5745L49.9371+35.5745L49.9371+35.1687L50.17+35.1687C50.087+35.117+50.0279+35.0682+49.9927+35.0223C49.9302+34.9412+49.899+34.8362+49.899+34.7073C49.899+34.5853+49.9258+34.4866+49.9796+34.4114C50.0294+34.3509+50.0933+34.305+50.1715+34.2737C50.0777+34.219+50.0089+34.1512+49.9649+34.0701C49.921+33.9842+49.899+33.8885+49.899+33.783C49.899+33.7127+49.9127+33.6434+49.94+33.575C49.9674+33.5066+50.0152+33.4446+50.0836+33.389C50.1392+33.344+50.2076+33.3138+50.2886+33.2981C50.3424+33.2884+50.421+33.2835+50.5245+33.2835L51.5308+33.2864L51.5308+33.7142L50.5142+33.7142C50.4537+33.7142+50.4039+33.7239+50.3648+33.7435C50.2906+33.7806+50.2535+33.8489+50.2535+33.9485C50.2535+34.0638+50.3013+34.1434+50.397+34.1873C50.4478+34.2098+50.5089+34.221+50.5801+34.221L51.5308+34.221L51.5308+34.6414L50.5801+34.6414C50.4854+34.6414+50.4166+34.6512+50.3736+34.6707Z" opacity="1" fill="#ffffff"/>
<path d="M51.0621+31.533C51.1568+31.5437+51.253+31.5931+51.3507+31.681C51.5059+31.8177+51.5836+32.0091+51.5836+32.2552C51.5836+32.4583+51.5181+32.6375+51.3873+32.7928C51.2564+32.948+51.0435+33.0257+50.7486+33.0257C50.4722+33.0257+50.2603+32.9556+50.1129+32.8155C49.9654+32.6753+49.8917+32.4935+49.8917+32.2698C49.8917+32.137+49.9166+32.0174+49.9664+31.9109C50.0162+31.8045+50.0948+31.7166+50.2022+31.6473C50.2969+31.5848+50.4068+31.5442+50.5318+31.5257C50.605+31.5149+50.7105+31.5105+50.8482+31.5125L50.8482+32.6053C51.0084+32.5994+51.1207+32.5491+51.1851+32.4544C51.2252+32.3968+51.2452+32.3274+51.2452+32.2464C51.2452+32.1604+51.2208+32.0906+51.1719+32.0369C51.1456+32.0076+51.109+31.9817+51.0621+31.9593L51.0621+31.533ZM50.5728+31.9461C50.4625+31.9529+50.3787+31.9864+50.3216+32.0464C50.2645+32.1065+50.2359+32.181+50.2359+32.2698C50.2359+32.3665+50.2662+32.4415+50.3267+32.4947C50.3873+32.5479+50.4693+32.5813+50.5728+32.595L50.5728+31.9461Z" opacity="1" fill="#ffffff"/>
<path d="M51.3697+28.8406C51.5172+29.0018+51.5909+29.2078+51.5909+29.4588C51.5909+29.7693+51.4913+30.0135+51.2921+30.1912C51.0919+30.3689+50.8174+30.4578+50.4688+30.4578C50.0919+30.4578+49.8013+30.3567+49.5972+30.1546C49.4195+29.9788+49.3306+29.7552+49.3306+29.4837C49.3306+29.1204+49.4498+28.8548+49.6881+28.6868C49.8218+28.594+49.9561+28.5442+50.0909+28.5374L50.0909+28.9886C49.9874+29.0179+49.9092+29.0555+49.8565+29.1014C49.7628+29.1834+49.7159+29.305+49.7159+29.4661C49.7159+29.6302+49.782+29.7596+49.9144+29.8543C50.0467+29.949+50.234+29.9964+50.4761+29.9964C50.7183+29.9964+50.8997+29.9463+51.0203+29.8462C51.1409+29.7461+51.2012+29.6189+51.2012+29.4646C51.2012+29.3064+51.1495+29.1858+51.046+29.1028C50.9903+29.0569+50.9068+29.0188+50.7955+28.9886L50.7955+28.5418C51.0308+28.5809+51.2222+28.6805+51.3697+28.8406Z" opacity="1" fill="#ffffff"/>
<path d="M49.3716+28.2225L49.3716+27.805L51.5308+27.805L51.5308+28.2225L49.3716+28.2225Z" opacity="1" fill="#ffffff"/>
<path d="M50.1363+26.0662C50.3052+25.9314+50.5049+25.8641+50.7354+25.8641C50.9698+25.8641+51.1702+25.9314+51.3367+26.0662C51.5032+26.201+51.5865+26.4056+51.5865+26.68C51.5865+26.9544+51.5032+27.159+51.3367+27.2937C51.1702+27.4285+50.9698+27.4959+50.7354+27.4959C50.5049+27.4959+50.3052+27.4285+50.1363+27.2937C49.9674+27.159+49.8829+26.9544+49.8829+26.68C49.8829+26.4056+49.9674+26.201+50.1363+26.0662ZM50.2359+26.6814C50.2359+26.8035+50.2791+26.8975+50.3655+26.9634C50.452+27.0293+50.5753+27.0623+50.7354+27.0623C50.8956+27.0623+51.0191+27.0293+51.106+26.9634C51.1929+26.8975+51.2364+26.8035+51.2364+26.6814C51.2364+26.5594+51.1929+26.4656+51.106+26.4002C51.0191+26.3348+50.8956+26.302+50.7354+26.302C50.5753+26.302+50.452+26.3348+50.3655+26.4002C50.2791+26.4656+50.2359+26.5594+50.2359+26.6814Z" opacity="1" fill="#ffffff"/>
<path d="M50.5069+24.1839L50.5069+24.6116C50.4473+24.6194+50.3936+24.6395+50.3458+24.6717C50.2813+24.7186+50.2491+24.7913+50.2491+24.8899C50.2491+25.0306+50.3189+25.1268+50.4586+25.1785C50.5328+25.2059+50.6314+25.2195+50.7545+25.2195C50.8716+25.2195+50.9659+25.2059+51.0372+25.1785C51.17+25.1287+51.2364+25.035+51.2364+24.8973C51.2364+24.7996+51.21+24.7303+51.1573+24.6893C51.1046+24.6482+51.0362+24.6233+50.9522+24.6145L50.9522+24.1883C51.0792+24.198+51.1993+24.2439+51.3126+24.326C51.4952+24.4568+51.5865+24.6507+51.5865+24.9075C51.5865+25.1644+51.5103+25.3533+51.358+25.4744C51.2056+25.5955+51.0079+25.6561+50.7647+25.6561C50.4903+25.6561+50.2769+25.5892+50.1246+25.4554C49.9722+25.3216+49.8961+25.137+49.8961+24.9017C49.8961+24.7015+49.941+24.5376+50.0308+24.4102C50.1207+24.2828+50.2794+24.2073+50.5069+24.1839Z" opacity="1" fill="#ffffff"/>
<path d="M51.5308+22.4319L51.5308+22.9358L50.8482+23.3182L51.0284+23.491L51.5308+23.491L51.5308+23.9012L49.379+23.9012L49.379+23.491L50.5421+23.491L49.9415+22.971L49.9415+22.4539L50.5523+23.012L51.5308+22.4319Z" opacity="1" fill="#ffffff"/>
</g>
<path d="M6.83552+6.00545C6.28324+6.00545+5.83552+6.45317+5.83552+7.00545C5.83551+7.55774+6.28323+8.00545+6.83552+8.00545C7.3878+8.00545+7.83552+7.55774+7.83552+7.00545C7.83552+6.45317+7.38781+6.00545+6.83552+6.00545ZM6.83552+6.40545C7.16689+6.40545+7.43552+6.67408+7.43552+7.00545C7.43552+7.33683+7.16689+7.60545+6.83552+7.60545C6.50415+7.60545+6.23552+7.33683+6.23552+7.00545C6.23552+6.67408+6.50414+6.40545+6.83552+6.40545Z" opacity="1" fill="#f8be6a"/>
<path d="M9.40478+6.00545C8.8525+6.00545+8.40478+6.45317+8.40478+7.00545C8.40478+7.55774+8.85249+8.00545+9.40478+8.00545C9.95706+8.00545+10.4048+7.55774+10.4048+7.00545C10.4048+6.45317+9.95707+6.00545+9.40478+6.00545ZM9.40478+6.40545C9.73615+6.40545+10.0048+6.67408+10.0048+7.00545C10.0048+7.33683+9.73615+7.60545+9.40478+7.60545C9.07341+7.60545+8.80478+7.33683+8.80478+7.00545C8.80478+6.67408+9.07341+6.40545+9.40478+6.40545Z" opacity="1" fill="#f8be6a"/>
<path d="M11.974+6.00545C11.4218+6.00545+10.974+6.45317+10.974+7.00545C10.974+7.55774+11.4218+8.00545+11.974+8.00545C12.5263+8.00545+12.974+7.55774+12.974+7.00545C12.974+6.45317+12.5263+6.00545+11.974+6.00545ZM11.974+6.40545C12.3054+6.40545+12.574+6.67408+12.574+7.00545C12.574+7.33683+12.3054+7.60545+11.974+7.60545C11.6427+7.60545+11.374+7.33683+11.374+7.00545C11.374+6.67408+11.6427+6.40545+11.974+6.40545Z" opacity="1" fill="#f8be6a"/>
<path d="M14.5433+6.00545C13.991+6.00545+13.5433+6.45317+13.5433+7.00545C13.5433+7.55774+13.991+8.00545+14.5433+8.00545C15.0956+8.00545+15.5433+7.55774+15.5433+7.00545C15.5433+6.45317+15.0956+6.00545+14.5433+6.00545ZM14.5433+6.40545C14.8747+6.40545+15.1433+6.67408+15.1433+7.00545C15.1433+7.33683+14.8747+7.60545+14.5433+7.60545C14.2119+7.60545+13.9433+7.33683+13.9433+7.00545C13.9433+6.67408+14.2119+6.40545+14.5433+6.40545Z" opacity="1" fill="#f8be6a"/>
<path d="M17.1126+6.00545C16.5603+6.00545+16.1126+6.45317+16.1126+7.00545C16.1126+7.55774+16.5603+8.00545+17.1126+8.00545C17.6648+8.00545+18.1126+7.55774+18.1126+7.00545C18.1126+6.45317+17.6649+6.00545+17.1126+6.00545ZM17.1126+6.40545C17.4439+6.40545+17.7126+6.67408+17.7126+7.00545C17.7126+7.33683+17.4439+7.60545+17.1126+7.60545C16.7812+7.60545+16.5126+7.33683+16.5126+7.00545C16.5126+6.67408+16.7812+6.40545+17.1126+6.40545Z" opacity="1" fill="#f8be6a"/>
<path d="M19.6818+6.00545C19.1295+6.00545+18.6818+6.45317+18.6818+7.00545C18.6818+7.55774+19.1295+8.00545+19.6818+8.00545C20.2341+8.00545+20.6818+7.55774+20.6818+7.00545C20.6818+6.45317+20.2341+6.00545+19.6818+6.00545ZM19.6818+6.40545C20.0132+6.40545+20.2818+6.67408+20.2818+7.00545C20.2818+7.33683+20.0132+7.60545+19.6818+7.60545C19.3505+7.60545+19.0818+7.33683+19.0818+7.00545C19.0818+6.67408+19.3504+6.40545+19.6818+6.40545Z" opacity="1" fill="#f8be6a"/>
<path d="M22.2511+6.00545C21.6988+6.00545+21.2511+6.45317+21.2511+7.00545C21.2511+7.55774+21.6988+8.00545+22.2511+8.00545C22.8034+8.00545+23.2511+7.55774+23.2511+7.00545C23.2511+6.45317+22.8034+6.00545+22.2511+6.00545ZM22.2511+6.40545C22.5825+6.40545+22.8511+6.67408+22.8511+7.00545C22.8511+7.33683+22.5825+7.60545+22.2511+7.60545C21.9197+7.60545+21.6511+7.33683+21.6511+7.00545C21.6511+6.67408+21.9197+6.40545+22.2511+6.40545Z" opacity="1" fill="#f8be6a"/>
<path d="M24.8203+6.00545C24.2681+6.00545+23.8203+6.45317+23.8203+7.00545C23.8203+7.55774+24.2681+8.00545+24.8203+8.00545C25.3726+8.00545+25.8203+7.55774+25.8203+7.00545C25.8203+6.45317+25.3726+6.00545+24.8203+6.00545ZM24.8203+6.40545C25.1517+6.40545+25.4204+6.67408+25.4203+7.00545C25.4203+7.33683+25.1517+7.60545+24.8203+7.60545C24.489+7.60545+24.2203+7.33683+24.2203+7.00545C24.2203+6.67408+24.489+6.40545+24.8203+6.40545Z" opacity="1" fill="#f8be6a"/>
<path d="M27.3896+6.00545C26.8373+6.00545+26.3896+6.45317+26.3896+7.00545C26.3896+7.55774+26.8373+8.00545+27.3896+8.00545C27.9419+8.00545+28.3896+7.55774+28.3896+7.00545C28.3896+6.45317+27.9419+6.00545+27.3896+6.00545ZM27.3896+6.40545C27.721+6.40545+27.9896+6.67408+27.9896+7.00545C27.9896+7.33683+27.721+7.60545+27.3896+7.60545C27.0582+7.60545+26.7896+7.33683+26.7896+7.00545C26.7896+6.67408+27.0582+6.40545+27.3896+6.40545Z" opacity="1" fill="#f8be6a"/>
<path d="M27.3896+11.4472C26.8373+11.4472+26.3896+11.8949+26.3896+12.4472C26.3896+12.9995+26.8373+13.4472+27.3896+13.4472C27.9419+13.4472+28.3896+12.9995+28.3896+12.4472C28.3896+11.8949+27.9419+11.4472+27.3896+11.4472ZM27.3896+11.8472C27.721+11.8472+27.9896+12.1158+27.9896+12.4472C27.9896+12.7786+27.721+13.0472+27.3896+13.0472C27.0582+13.0472+26.7896+12.7786+26.7896+12.4472C26.7896+12.1158+27.0582+11.8472+27.3896+11.8472Z" opacity="1" fill="#f8be6a"/>
<path d="M27.3896+14.1114C26.8373+14.1114+26.3896+14.5592+26.3896+15.1114C26.3896+15.6637+26.8373+16.1114+27.3896+16.1114C27.9419+16.1114+28.3896+15.6637+28.3896+15.1114C28.3896+14.5592+27.9419+14.1114+27.3896+14.1114ZM27.3896+14.5114C27.721+14.5114+27.9896+14.7801+27.9896+15.1114C27.9896+15.4428+27.721+15.7114+27.3896+15.7114C27.0582+15.7114+26.7896+15.4428+26.7896+15.1114C26.7896+14.7801+27.0582+14.5114+27.3896+14.5114Z" opacity="1" fill="#f8be6a"/>
<path d="M29.9589+6.00545C29.4066+6.00545+28.9589+6.45317+28.9589+7.00545C28.9589+7.55774+29.4066+8.00545+29.9589+8.00545C30.5112+8.00545+30.9589+7.55774+30.9589+7.00545C30.9589+6.45317+30.5112+6.00545+29.9589+6.00545ZM29.9589+6.40545C30.2902+6.40545+30.5589+6.67408+30.5589+7.00545C30.5589+7.33683+30.2902+7.60545+29.9589+7.60545C29.6275+7.60545+29.3589+7.33683+29.3589+7.00545C29.3589+6.67408+29.6275+6.40545+29.9589+6.40545Z" opacity="1" fill="#f8be6a"/>
<path d="M32.5281+6.00545C31.9758+6.00545+31.5281+6.45317+31.5281+7.00545C31.5281+7.55774+31.9758+8.00545+32.5281+8.00545C33.0804+8.00545+33.5281+7.55774+33.5281+7.00545C33.5281+6.45317+33.0804+6.00545+32.5281+6.00545ZM32.5281+6.40545C32.8595+6.40545+33.1281+6.67408+33.1281+7.00545C33.1281+7.33683+32.8595+7.60545+32.5281+7.60545C32.1968+7.60545+31.9281+7.33683+31.9281+7.00545C31.9281+6.67408+32.1968+6.40545+32.5281+6.40545Z" opacity="1" fill="#f8be6a"/>
<path d="M35.0974+6.00545C34.5451+6.00545+34.0974+6.45317+34.0974+7.00545C34.0974+7.55774+34.5451+8.00545+35.0974+8.00545C35.6497+8.00545+36.0974+7.55774+36.0974+7.00545C36.0974+6.45317+35.6497+6.00545+35.0974+6.00545ZM35.0974+6.40545C35.4288+6.40545+35.6974+6.67408+35.6974+7.00545C35.6974+7.33683+35.4288+7.60545+35.0974+7.60545C34.766+7.60545+34.4974+7.33683+34.4974+7.00545C34.4974+6.67408+34.766+6.40545+35.0974+6.40545Z" opacity="1" fill="#f8be6a"/>
<path d="M37.6667+6.00545C37.1144+6.00545+36.6667+6.45317+36.6667+7.00545C36.6666+7.55774+37.1144+8.00545+37.6667+8.00545C38.2189+8.00545+38.6667+7.55774+38.6667+7.00545C38.6667+6.45317+38.2189+6.00545+37.6667+6.00545ZM37.6667+6.40545C37.998+6.40545+38.2667+6.67408+38.2667+7.00545C38.2667+7.33683+37.998+7.60545+37.6667+7.60545C37.3353+7.60545+37.0666+7.33683+37.0667+7.00545C37.0667+6.67408+37.3353+6.40545+37.6667+6.40545Z" opacity="1" fill="#f8be6a"/>
<path d="M40.2359+6.00545C39.6836+6.00545+39.2359+6.45317+39.2359+7.00545C39.2359+7.55774+39.6836+8.00545+40.2359+8.00545C40.7882+8.00545+41.2359+7.55774+41.2359+7.00545C41.2359+6.45317+40.7882+6.00545+40.2359+6.00545ZM40.2359+6.40545C40.5673+6.40545+40.8359+6.67408+40.8359+7.00545C40.8359+7.33683+40.5673+7.60545+40.2359+7.60545C39.9045+7.60545+39.6359+7.33683+39.6359+7.00545C39.6359+6.67408+39.9045+6.40545+40.2359+6.40545Z" opacity="1" fill="#f8be6a"/>
<path d="M31.5369+31.9864C31.5369+32.5387+31.9846+32.9864+32.5369+32.9864C33.0892+32.9864+33.5369+32.5387+33.5369+31.9864C33.5369+31.4341+33.0892+30.9864+32.5369+30.9864C31.9846+30.9864+31.5369+31.4341+31.5369+31.9864ZM31.9369+31.9864C31.9369+31.655+32.2055+31.3864+32.5369+31.3864C32.8682+31.3864+33.1369+31.655+33.1369+31.9864C33.1369+32.3177+32.8682+32.5864+32.5369+32.5864C32.2055+32.5864+31.9369+32.3178+31.9369+31.9864Z" opacity="1" fill="#f8be6a"/>
<path d="M42.8052+6.00545C42.2529+6.00545+41.8052+6.45317+41.8052+7.00545C41.8052+7.55774+42.2529+8.00545+42.8052+8.00545C43.3575+8.00545+43.8052+7.55774+43.8052+7.00545C43.8052+6.45317+43.3575+6.00545+42.8052+6.00545ZM42.8052+6.40545C43.1365+6.40545+43.4052+6.67408+43.4052+7.00545C43.4052+7.33683+43.1365+7.60545+42.8052+7.60545C42.4738+7.60545+42.2052+7.33683+42.2052+7.00545C42.2052+6.67408+42.4738+6.40545+42.8052+6.40545Z" opacity="1" fill="#f8be6a"/>
<path d="M45.3744+6.00545C44.8222+6.00545+44.3744+6.45317+44.3744+7.00545C44.3744+7.55774+44.8221+8.00545+45.3744+8.00545C45.9267+8.00545+46.3744+7.55774+46.3744+7.00545C46.3744+6.45317+45.9267+6.00545+45.3744+6.00545ZM45.3744+6.40545C45.7058+6.40545+45.9744+6.67408+45.9744+7.00545C45.9744+7.33683+45.7058+7.60545+45.3744+7.60545C45.0431+7.60545+44.7744+7.33683+44.7744+7.00545C44.7744+6.67408+45.0431+6.40545+45.3744+6.40545Z" opacity="1" fill="#f8be6a"/>
<path d="M47.9437+6.00545C47.3914+6.00545+46.9437+6.45317+46.9437+7.00545C46.9437+7.55774+47.3914+8.00545+47.9437+8.00545C48.496+8.00545+48.9437+7.55774+48.9437+7.00545C48.9437+6.45317+48.496+6.00545+47.9437+6.00545ZM47.9437+6.40545C48.2751+6.40545+48.5437+6.67408+48.5437+7.00545C48.5437+7.33683+48.2751+7.60545+47.9437+7.60545C47.6123+7.60545+47.3437+7.33683+47.3437+7.00545C47.3437+6.67408+47.6123+6.40545+47.9437+6.40545Z" opacity="1" fill="#f8be6a"/>
<path d="M50.513+6.00545C49.9607+6.00545+49.513+6.45317+49.513+7.00545C49.513+7.55774+49.9607+8.00545+50.513+8.00545C51.0652+8.00545+51.513+7.55774+51.513+7.00545C51.513+6.45317+51.0652+6.00545+50.513+6.00545ZM50.513+6.40545C50.8443+6.40545+51.113+6.67408+51.113+7.00545C51.113+7.33683+50.8443+7.60545+50.513+7.60545C50.1816+7.60545+49.913+7.33683+49.913+7.00545C49.913+6.67408+50.1816+6.40545+50.513+6.40545Z" opacity="1" fill="#f8be6a"/>
<path d="M53.0822+6.00545C52.5299+6.00545+52.0822+6.45317+52.0822+7.00545C52.0822+7.55774+52.5299+8.00545+53.0822+8.00545C53.6345+8.00545+54.0822+7.55774+54.0822+7.00545C54.0822+6.45317+53.6345+6.00545+53.0822+6.00545ZM53.0822+6.40545C53.4136+6.40545+53.6822+6.67408+53.6822+7.00545C53.6822+7.33683+53.4136+7.60545+53.0822+7.60545C52.7508+7.60545+52.4822+7.33683+52.4822+7.00545C52.4822+6.67408+52.7508+6.40545+53.0822+6.40545Z" opacity="1" fill="#f8be6a"/>
<path d="M55.6515+6.00545C55.0992+6.00545+54.6515+6.45317+54.6515+7.00545C54.6515+7.55774+55.0992+8.00545+55.6515+8.00545C56.2038+8.00545+56.6515+7.55774+56.6515+7.00545C56.6515+6.45317+56.2038+6.00545+55.6515+6.00545ZM55.6515+6.40545C55.9829+6.40545+56.2515+6.67408+56.2515+7.00545C56.2515+7.33683+55.9828+7.60545+55.6515+7.60545C55.3201+7.60545+55.0515+7.33683+55.0515+7.00545C55.0515+6.67408+55.3201+6.40545+55.6515+6.40545Z" opacity="1" fill="#f8be6a"/>
<path d="M58.2207+6.00545C57.6685+6.00545+57.2207+6.45317+57.2207+7.00545C57.2207+7.55774+57.6685+8.00545+58.2207+8.00545C58.773+8.00545+59.2207+7.55774+59.2207+7.00545C59.2207+6.45317+58.773+6.00545+58.2207+6.00545ZM58.2207+6.40545C58.5521+6.40545+58.8207+6.67408+58.8207+7.00545C58.8207+7.33683+58.5521+7.60545+58.2207+7.60545C57.8894+7.60545+57.6207+7.33683+57.6207+7.00545C57.6207+6.67408+57.8894+6.40545+58.2207+6.40545Z" opacity="1" fill="#f8be6a"/>
<path d="M60.79+6.00545C60.2377+6.00545+59.79+6.45317+59.79+7.00545C59.79+7.55774+60.2377+8.00545+60.79+8.00545C61.3423+8.00545+61.79+7.55774+61.79+7.00545C61.79+6.45317+61.3423+6.00545+60.79+6.00545ZM60.79+6.40545C61.1214+6.40545+61.39+6.67408+61.39+7.00545C61.39+7.33683+61.1214+7.60545+60.79+7.60545C60.4586+7.60545+60.19+7.33683+60.19+7.00545C60.19+6.67408+60.4586+6.40545+60.79+6.40545Z" opacity="1" fill="#f8be6a"/>
<path d="M63.3593+6.00545C62.807+6.00545+62.3593+6.45317+62.3593+7.00545C62.3593+7.55774+62.807+8.00545+63.3593+8.00545C63.9115+8.00545+64.3593+7.55774+64.3593+7.00545C64.3593+6.45317+63.9115+6.00545+63.3593+6.00545ZM63.3593+6.40545C63.6906+6.40545+63.9593+6.67408+63.9593+7.00545C63.9593+7.33683+63.6906+7.60545+63.3593+7.60545C63.0279+7.60545+62.7593+7.33683+62.7593+7.00545C62.7593+6.67408+63.0279+6.40545+63.3593+6.40545Z" opacity="1" fill="#f8be6a"/>
<path d="M27.3896+16.7757C26.8373+16.7757+26.3896+17.2234+26.3896+17.7757C26.3896+18.328+26.8373+18.7757+27.3896+18.7757C27.9419+18.7757+28.3896+18.328+28.3896+17.7757C28.3896+17.2234+27.9419+16.7757+27.3896+16.7757ZM27.3896+17.1757C27.721+17.1757+27.9896+17.4443+27.9896+17.7757C27.9896+18.1071+27.721+18.3757+27.3896+18.3757C27.0582+18.3757+26.7896+18.1071+26.7896+17.7757C26.7896+17.4443+27.0582+17.1757+27.3896+17.1757Z" opacity="1" fill="#f8be6a"/>
<g opacity="1">
<path d="M22.093+18.2242C22.1047+18.3244+22.1512+18.3938+22.2326+18.4322C22.2743+18.4517+22.3224+18.4615+22.3771+18.4615C22.4813+18.4615+22.5584+18.4283+22.6086+18.3619C22.6587+18.2955+22.6838+18.2219+22.6838+18.1412C22.6838+18.0435+22.654+17.968+22.5944+17.9146C22.5348+17.8612+22.4634+17.8345+22.3801+17.8345C22.3195+17.8345+22.2676+17.8462+22.2243+17.8697C22.181+17.8931+22.1441+17.9257+22.1135+17.9673L21.9611+17.9586L22.0676+17.2056L22.7941+17.2056L22.7941+17.3755L22.1994+17.3755L22.1398+17.7642C22.1724+17.7395+22.2033+17.7209+22.2326+17.7086C22.2847+17.6871+22.3449+17.6763+22.4133+17.6763C22.5415+17.6763+22.6502+17.7177+22.7394+17.8003C22.8286+17.883+22.8732+17.9878+22.8732+18.1148C22.8732+18.247+22.8324+18.3635+22.7507+18.4644C22.669+18.5653+22.5386+18.6158+22.3596+18.6158C22.2456+18.6158+22.1449+18.5837+22.0573+18.5196C21.9697+18.4555+21.9208+18.357+21.9103+18.2242L22.093+18.2242Z" opacity="1" fill="#ffffff"/>
<path d="M23.2238+17.1461L23.6359+18.3677L24.0431+17.1461L24.2609+17.1461L23.7375+18.5806L23.5314+18.5806L23.009+17.1461L23.2238+17.1461Z" opacity="1" fill="#ffffff"/>
</g>
<g opacity="1">
<path d="M35.2569+35.361L35.2569+35.1647L35.8497+35.1647L35.8497+34.4186L35.2569+34.4186L35.2569+34.2223L36.6915+34.2223L36.6915+34.4186L36.0206+34.4186L36.0206+35.1647L36.6915+35.1647L36.6915+35.361L35.2569+35.361Z" opacity="1" fill="#ffffff"/>
<path d="M35.2569+33.7106L36.1436+33.7106C36.2478+33.7106+36.3344+33.6911+36.4034+33.652C36.5075+33.5941+36.5596+33.4964+36.5596+33.359C36.5596+33.1943+36.5033+33.0824+36.3907+33.0231C36.3295+32.9912+36.2471+32.9753+36.1436+32.9753L35.2569+32.9753L35.2569+32.778L36.0625+32.778C36.239+32.778+36.3747+32.8018+36.4698+32.8493C36.643+32.9365+36.7295+33.1012+36.7295+33.3434C36.7295+33.5856+36.643+33.75+36.4698+33.8366C36.3747+33.8841+36.239+33.9079+36.0625+33.9079L35.2569+33.9079L35.2569+33.7106Z" opacity="1" fill="#ffffff"/>
<path d="M35.8633+31.9382C35.8633+31.8561+35.8519+31.7923+35.8292+31.7467C35.7933+31.6751+35.7289+31.6393+35.6358+31.6393C35.542+31.6393+35.4789+31.6774+35.4463+31.7536C35.4281+31.7965+35.419+31.8604+35.419+31.945L35.419+32.2917L35.8633+32.2917L35.8633+31.9382ZM36.5254+31.8727C36.5254+31.7536+36.4909+31.6686+36.4219+31.6178C36.3783+31.5859+36.3256+31.57+36.2637+31.57C36.1596+31.57+36.0886+31.6165+36.0508+31.7096C36.0306+31.7591+36.0206+31.8245+36.0206+31.9059L36.0206+32.2917L36.5254+32.2917L36.5254+31.8727ZM35.2569+32.4821L35.2569+31.8659C35.2569+31.6979+35.307+31.5785+35.4073+31.5075C35.4665+31.4658+35.5349+31.445+35.6124+31.445C35.7028+31.445+35.7771+31.4707+35.835+31.5221C35.8656+31.5488+35.8936+31.5872+35.919+31.6374C35.947+31.5638+35.9786+31.5088+36.0137+31.4723C36.0762+31.4079+36.1625+31.3757+36.2725+31.3757C36.365+31.3757+36.4486+31.4046+36.5235+31.4626C36.6355+31.5492+36.6915+31.6868+36.6915+31.8757L36.6915+32.4821L35.2569+32.4821Z" opacity="1" fill="#ffffff"/>
<path d="M35.3165+30.2497L35.4698+30.2497C35.5134+30.2946+35.5892+30.3543+35.6973+30.4289C35.8054+30.5034+35.9219+30.5693+36.0469+30.6266C36.1687+30.6833+36.2797+30.7262+36.3799+30.7555C36.4444+30.7744+36.5482+30.7988+36.6915+30.8288L36.6915+31.0231C36.4245+30.9788+36.1589+30.8812+35.8946+30.7301C35.7396+30.641+35.6058+30.5472+35.4932+30.4489L35.4932+31.2223L35.3165+31.2223L35.3165+30.2497Z" opacity="1" fill="#ffffff"/>
<path d="M36.335+29.9362C36.4353+29.9245+36.5046+29.8779+36.543+29.7965C36.5625+29.7549+36.5723+29.7067+36.5723+29.652C36.5723+29.5479+36.5391+29.4707+36.4727+29.4206C36.4063+29.3704+36.3327+29.3454+36.252+29.3454C36.1543+29.3454+36.0788+29.3752+36.0254+29.4347C35.9721+29.4943+35.9454+29.5658+35.9454+29.6491C35.9454+29.7096+35.9571+29.7616+35.9805+29.8049C36.004+29.8481+36.0365+29.8851+36.0782+29.9157L36.0694+30.068L35.3165+29.9616L35.3165+29.235L35.4864+29.235L35.4864+29.8298L35.875+29.8893C35.8503+29.8568+35.8318+29.8258+35.8194+29.7965C35.7979+29.7445+35.7872+29.6842+35.7872+29.6159C35.7872+29.4876+35.8285+29.3789+35.9112+29.2897C35.9939+29.2005+36.0987+29.1559+36.2256+29.1559C36.3578+29.1559+36.4743+29.1968+36.5752+29.2785C36.6762+29.3602+36.7266+29.4906+36.7266+29.6696C36.7266+29.7835+36.6945+29.8843+36.6304+29.9718C36.5663+30.0594+36.4678+30.1084+36.335+30.1188L36.335+29.9362Z" opacity="1" fill="#ffffff"/>
</g>
<path d="M1.697+6.00545C1.14472+6.00545+0.696997+6.45317+0.696997+7.00545C0.696992+7.55774+1.14471+8.00545+1.697+8.00545C2.24928+8.00545+2.697+7.55774+2.697+7.00545C2.697+6.45317+2.24928+6.00545+1.697+6.00545ZM1.697+6.40545C2.02837+6.40545+2.297+6.67408+2.297+7.00545C2.297+7.33683+2.02837+7.60545+1.697+7.60545C1.36563+7.60545+1.09699+7.33683+1.097+7.00545C1.097+6.67408+1.36562+6.40545+1.697+6.40545Z" opacity="1" fill="#f8be6a"/>
<path d="M4.26626+6.00545C3.71398+6.00545+3.26626+6.45317+3.26626+7.00545C3.26625+7.55774+3.71397+8.00545+4.26626+8.00545C4.81854+8.00545+5.26626+7.55774+5.26626+7.00545C5.26626+6.45317+4.81854+6.00545+4.26626+6.00545ZM4.26626+6.40545C4.59763+6.40545+4.86626+6.67408+4.86626+7.00545C4.86626+7.33683+4.59763+7.60545+4.26626+7.60545C3.93489+7.60545+3.66625+7.33683+3.66626+7.00545C3.66626+6.67408+3.93488+6.40545+4.26626+6.40545Z" opacity="1" fill="#f8be6a"/>
</g>
</svg>
