<?xml version="1.0" encoding="UTF-8" standalone="no"?> <!-- Created with Vectornator for iOS (http://vectornator.io/) --><!DOCTYPE svg PUBLIC "-//W3C//DTD SVG 1.1//EN" "http://www.w3.org/Graphics/SVG/1.1/DTD/svg11.dtd">
<svg height="32mm" style="fill-rule:nonzero;clip-rule:evenodd;stroke-linecap:round;stroke-linejoin:round;" xmlns:xlink="http://www.w3.org/1999/xlink" xmlns="http://www.w3.org/2000/svg" xml:space="preserve" width="70mm" xmlns:vectornator="http://vectornator.io" version="1.1" viewBox="0 0 140 65">
<metadata>
<vectornator:setting key="DimensionsVisible" value="1"/>
<vectornator:setting key="PencilOnly" value="0"/>
<vectornator:setting key="SnapToPoints" value="0"/>
<vectornator:setting key="OutlineMode" value="0"/>
<vectornator:setting key="CMYKEnabledKey" value="0"/>
<vectornator:setting key="GuidesVisible" value="1"/>
<vectornator:setting key="SnapToEdges" value="0"/>
<vectornator:setting key="RulersVisible" value="1"/>
<vectornator:setting key="DisplayWhiteBackground" value="0"/>
<vectornator:setting key="doHistoryDisabled" value="0"/>
<vectornator:setting key="TimeLapseWatermarkDisabled" value="0"/>
<vectornator:setting key="SnapToGuides" value="1"/>
<vectornator:setting key="DynamicGuides" value="0"/>
<vectornator:setting key="IsolateActiveLayer" value="0"/>
<vectornator:setting key="Units" value="Points"/>
<vectornator:setting key="SnapToGrid" value="0"/>
</metadata>
<defs/>
<g id="Layer 1" vectornator:layerName="Layer 1">
<path stroke="#000000" stroke-width="1" d="M1+12L127+12L127+12L127+51.1L127+51.1L1+51.1L1+51.1L1+12L1+12Z" fill="none" stroke-linecap="butt" opacity="1" stroke-linejoin="miter"/>
<g opacity="1">
<path d="M8.15368+28.8814C8.35161+28.8814+8.5082+28.8418+8.62342+28.7626C8.73865+28.6834+8.79627+28.5406+8.79627+28.3342C8.79627+28.1122+8.71568+27.9609+8.5545+27.8804C8.46826+27.8379+8.35303+27.8167+8.20882+27.8167L7.17813+27.8167L7.17813+28.8814L8.15368+28.8814ZM6.7561+27.4541L8.19821+27.4541C8.43574+27.4541+8.63155+27.4887+8.78566+27.558C9.07833+27.6909+9.22466+27.9362+9.22466+28.2939C9.22466+28.4805+9.18613+28.6332+9.10908+28.752C9.03202+28.8708+8.92422+28.9662+8.78566+29.0383C8.90725+29.0878+8.9988+29.1528+9.0603+29.2334C9.1218+29.314+9.15609+29.4448+9.16316+29.6257L9.178+30.0435C9.18224+30.1623+9.19214+30.2507+9.20769+30.3086C9.23314+30.4076+9.27838+30.4712+9.34342+30.4995L9.34342+30.5695L8.82596+30.5695C8.81182+30.5426+8.80051+30.508+8.79202+30.4656C8.78354+30.4231+8.77647+30.3411+8.77082+30.2195L8.74537+29.7C8.73547+29.4964+8.65983+29.3599+8.51845+29.2907C8.43786+29.2525+8.31132+29.2334+8.13883+29.2334L7.17813+29.2334L7.17813+30.5695L6.7561+30.5695L6.7561+27.4541Z" opacity="1" fill="#000000"/>
<path d="M11.1885+27.3735C11.4811+27.3735+11.7342+27.4301+11.9477+27.5432C12.2573+27.7058+12.4468+27.9906+12.5161+28.3978L12.0983+28.3978C12.0474+28.1702+11.942+28.0044+11.7823+27.9005C11.6225+27.7966+11.421+27.7446+11.1779+27.7446C10.8894+27.7446+10.6466+27.8528+10.4494+28.0691C10.2522+28.2854+10.1535+28.6078+10.1535+29.0362C10.1535+29.4066+10.2348+29.7081+10.3974+29.9407C10.56+30.1732+10.8251+30.2895+11.1927+30.2895C11.4741+30.2895+11.707+30.2079+11.8915+30.0446C12.076+29.8813+12.1704+29.6173+12.1746+29.2525L11.1991+29.2525L11.1991+28.9026L12.567+28.9026L12.567+30.5695L12.2955+30.5695L12.1937+30.1687C12.0509+30.3256+11.9244+30.4345+11.8141+30.4952C11.6289+30.5999+11.3935+30.6522+11.1079+30.6522C10.7389+30.6522+10.4215+30.5327+10.1557+30.2938C9.86583+29.994+9.72091+29.5826+9.72091+29.0595C9.72091+28.5378+9.8623+28.1228+10.1451+27.8146C10.4137+27.5205+10.7615+27.3735+11.1885+27.3735Z" opacity="1" fill="#000000"/>
<path d="M14.3908+28.7711C14.569+28.7711+14.7075+28.7463+14.8065+28.6968C14.962+28.6191+15.0398+28.4791+15.0398+28.2769C15.0398+28.0733+14.9571+27.9362+14.7916+27.8655C14.6983+27.8259+14.5598+27.8061+14.376+27.8061L13.6231+27.8061L13.6231+28.7711L14.3908+28.7711ZM14.5329+30.2089C14.7916+30.2089+14.9761+30.134+15.0864+29.9841C15.1557+29.8894+15.1903+29.7749+15.1903+29.6406C15.1903+29.4144+15.0892+29.2603+14.8871+29.1783C14.7796+29.1344+14.6375+29.1125+14.4608+29.1125L13.6231+29.1125L13.6231+30.2089L14.5329+30.2089ZM13.2096+27.4541L14.5477+27.4541C14.9125+27.4541+15.172+27.563+15.3261+27.7807C15.4165+27.9093+15.4618+28.0578+15.4618+28.226C15.4618+28.4226+15.4059+28.5837+15.2942+28.7096C15.2363+28.776+15.1529+28.8368+15.044+28.892C15.2038+28.9528+15.3232+29.0213+15.4024+29.0977C15.5424+29.2334+15.6124+29.4207+15.6124+29.6597C15.6124+29.8604+15.5494+30.0421+15.4236+30.2047C15.2356+30.4479+14.9365+30.5695+14.5265+30.5695L13.2096+30.5695L13.2096+27.4541Z" opacity="1" fill="#000000"/>
<path d="M17.3132+27.4541L17.9176+27.4541L18.8126+30.0881L19.7012+27.4541L20.2992+27.4541L20.2992+30.5695L19.8984+30.5695L19.8984+28.7308C19.8984+28.6672+19.8998+28.5618+19.9026+28.4148C19.9055+28.2677+19.9069+28.1101+19.9069+27.9419L19.0183+30.5695L18.6005+30.5695L17.7055+27.9419L17.7055+28.0373C17.7055+28.1136+17.7073+28.2299+17.7108+28.3862C17.7144+28.5424+17.7161+28.6573+17.7161+28.7308L17.7161+30.5695L17.3132+30.5695L17.3132+27.4541Z" opacity="1" fill="#000000"/>
<path d="M21.1836+29.9651C21.1836+30.0753+21.2239+30.1623+21.3045+30.2259C21.385+30.2895+21.4805+30.3213+21.5908+30.3213C21.7251+30.3213+21.8551+30.2902+21.981+30.228C22.1931+30.1248+22.2991+29.9559+22.2991+29.7212L22.2991+29.4137C22.2524+29.4434+22.1923+29.4681+22.1188+29.4879C22.0453+29.5077+21.9732+29.5218+21.9025+29.5303L21.6714+29.56C21.5328+29.5784+21.4289+29.6074+21.3596+29.6469C21.2423+29.7134+21.1836+29.8194+21.1836+29.9651ZM22.1082+29.1931C22.1959+29.1818+22.2546+29.145+22.2842+29.0828C22.3012+29.0489+22.3097+29.0001+22.3097+28.9365C22.3097+28.8064+22.2634+28.712+22.1708+28.6534C22.0782+28.5947+21.9456+28.5654+21.7731+28.5654C21.5738+28.5654+21.4324+28.6191+21.349+28.7265C21.3023+28.7859+21.2719+28.8743+21.2578+28.9916L20.9015+28.9916C20.9086+28.7117+20.9994+28.5169+21.174+28.4074C21.3486+28.2978+21.5512+28.243+21.7816+28.243C22.0488+28.243+22.2659+28.2939+22.4327+28.3957C22.5981+28.4975+22.6808+28.6558+22.6808+28.8708L22.6808+30.1793C22.6808+30.2188+22.689+30.2507+22.7052+30.2747C22.7215+30.2987+22.7558+30.3107+22.8081+30.3107C22.825+30.3107+22.8441+30.3097+22.8653+30.3076C22.8865+30.3054+22.9092+30.3023+22.9332+30.298L22.9332+30.5801C22.8738+30.597+22.8286+30.6076+22.7975+30.6119C22.7664+30.6161+22.724+30.6182+22.6702+30.6182C22.5387+30.6182+22.4433+30.5716+22.3839+30.4783C22.3528+30.4288+22.3309+30.3588+22.3182+30.2683C22.2404+30.3701+22.1287+30.4585+21.9831+30.5334C21.8375+30.6084+21.677+30.6458+21.5017+30.6458C21.291+30.6458+21.1189+30.5818+20.9853+30.4539C20.8517+30.3259+20.7849+30.1658+20.7849+29.9735C20.7849+29.7629+20.8506+29.5996+20.9821+29.4836C21.1136+29.3677+21.2861+29.2963+21.4996+29.2695L22.1082+29.1931Z" opacity="1" fill="#000000"/>
<path d="M23.3828+27.664L23.7688+27.664L23.7688+28.2981L24.1314+28.2981L24.1314+28.6099L23.7688+28.6099L23.7688+30.0923C23.7688+30.1715+23.7956+30.2245+23.8494+30.2514C23.8791+30.2669+23.9285+30.2747+23.9978+30.2747C24.0162+30.2747+24.036+30.2743+24.0572+30.2736C24.0784+30.2729+24.1031+30.2712+24.1314+30.2683L24.1314+30.5695C24.0876+30.5822+24.042+30.5914+23.9946+30.597C23.9473+30.6027+23.896+30.6055+23.8409+30.6055C23.6627+30.6055+23.5419+30.5599+23.4782+30.4687C23.4146+30.3775+23.3828+30.2591+23.3828+30.1135L23.3828+28.6099L23.0753+28.6099L23.0753+28.2981L23.3828+28.2981L23.3828+27.664Z" opacity="1" fill="#000000"/>
<path d="M24.5238+28.2981L24.8864+28.2981L24.8864+28.6905C24.9161+28.6141+24.9889+28.5212+25.1048+28.4116C25.2208+28.302+25.3544+28.2472+25.5057+28.2472C25.5127+28.2472+25.5248+28.248+25.5417+28.2494C25.5587+28.2508+25.5877+28.2536+25.6287+28.2579L25.6287+28.6608C25.6061+28.6566+25.5852+28.6537+25.5661+28.6523C25.547+28.6509+25.5262+28.6502+25.5035+28.6502C25.3113+28.6502+25.1635+28.712+25.0603+28.8358C24.9571+28.9595+24.9055+29.1019+24.9055+29.2631L24.9055+30.5695L24.5238+30.5695L24.5238+28.2981Z" opacity="1" fill="#000000"/>
<path d="M25.9595+28.3088L26.3476+28.3088L26.3476+30.5695L25.9595+30.5695L25.9595+28.3088ZM25.9595+27.4541L26.3476+27.4541L26.3476+27.8867L25.9595+27.8867L25.9595+27.4541Z" opacity="1" fill="#000000"/>
<path d="M26.7081+28.2981L27.2023+28.2981L27.724+29.0977L28.252+28.2981L28.7165+28.3088L27.9509+29.4052L28.7504+30.5695L28.2626+30.5695L27.6985+29.7169L27.1514+30.5695L26.6678+30.5695L27.4674+29.4052L26.7081+28.2981Z" opacity="1" fill="#000000"/>
<path d="M30.218+29.6406L30.218+29.2843L31.1426+29.2843L31.1426+28.3533L31.5053+28.3533L31.5053+29.2843L32.4299+29.2843L32.4299+29.6406L31.5053+29.6406L31.5053+30.5695L31.1426+30.5695L31.1426+29.6406L30.218+29.6406Z" opacity="1" fill="#000000"/>
<path d="M8.15368+33.8814C8.35161+33.8814+8.5082+33.8418+8.62342+33.7626C8.73865+33.6834+8.79627+33.5406+8.79627+33.3342C8.79627+33.1122+8.71568+32.9609+8.5545+32.8804C8.46826+32.8379+8.35303+32.8167+8.20882+32.8167L7.17813+32.8167L7.17813+33.8814L8.15368+33.8814ZM6.7561+32.4541L8.19821+32.4541C8.43574+32.4541+8.63155+32.4887+8.78566+32.558C9.07833+32.6909+9.22466+32.9362+9.22466+33.2939C9.22466+33.4805+9.18613+33.6332+9.10908+33.752C9.03202+33.8708+8.92422+33.9662+8.78566+34.0383C8.90725+34.0878+8.9988+34.1528+9.0603+34.2334C9.1218+34.314+9.15609+34.4448+9.16316+34.6257L9.178+35.0435C9.18224+35.1623+9.19214+35.2507+9.20769+35.3086C9.23314+35.4076+9.27838+35.4712+9.34342+35.4995L9.34342+35.5695L8.82596+35.5695C8.81182+35.5426+8.80051+35.508+8.79202+35.4656C8.78354+35.4231+8.77647+35.3411+8.77082+35.2195L8.74537+34.7C8.73547+34.4964+8.65983+34.3599+8.51845+34.2907C8.43786+34.2525+8.31132+34.2334+8.13883+34.2334L7.17813+34.2334L7.17813+35.5695L6.7561+35.5695L6.7561+32.4541Z" opacity="1" fill="#000000"/>
<path d="M10.7368+33.2472C10.8979+33.2472+11.0542+33.2851+11.2054+33.3607C11.3567+33.4363+11.4719+33.5343+11.5511+33.6544C11.6275+33.769+11.6784+33.9026+11.7038+34.0553C11.7264+34.1599+11.7377+34.3267+11.7377+34.5558L10.073+34.5558C10.08+34.7862+10.1345+34.9711+10.2363+35.1103C10.3381+35.2496+10.4957+35.3192+10.7092+35.3192C10.9085+35.3192+11.0676+35.2535+11.1864+35.122C11.2542+35.0456+11.3023+34.9573+11.3306+34.8569L11.7059+34.8569C11.696+34.9403+11.6632+35.0333+11.6073+35.1358C11.5515+35.2383+11.4889+35.3221+11.4196+35.3871C11.3037+35.5002+11.1602+35.5765+10.9891+35.6161C10.8972+35.6388+10.7933+35.6501+10.6774+35.6501C10.3946+35.6501+10.155+35.5472+9.95844+35.3415C9.76191+35.1358+9.66365+34.8477+9.66365+34.4773C9.66365+34.1125+9.76262+33.8163+9.96056+33.5887C10.1585+33.3611+10.4172+33.2472+10.7368+33.2472ZM11.3454+34.2525C11.3299+34.0871+11.2938+33.9549+11.2373+33.8559C11.1326+33.6721+10.958+33.5802+10.7134+33.5802C10.5381+33.5802+10.3911+33.6435+10.2723+33.77C10.1535+33.8966+10.0906+34.0574+10.0836+34.2525L11.3454+34.2525Z" opacity="1" fill="#000000"/>
<path d="M12.4991+34.9651C12.4991+35.0753+12.5394+35.1623+12.62+35.2259C12.7006+35.2895+12.796+35.3213+12.9063+35.3213C13.0406+35.3213+13.1707+35.2902+13.2965+35.228C13.5086+35.1248+13.6146+34.9559+13.6146+34.7212L13.6146+34.4137C13.568+34.4434+13.5079+34.4681+13.4344+34.4879C13.3608+34.5077+13.2887+34.5218+13.218+34.5303L12.9869+34.56C12.8483+34.5784+12.7444+34.6074+12.6751+34.6469C12.5578+34.7134+12.4991+34.8194+12.4991+34.9651ZM13.4237+34.1931C13.5114+34.1818+13.5701+34.145+13.5998+34.0828C13.6167+34.0489+13.6252+34.0001+13.6252+33.9365C13.6252+33.8064+13.5789+33.712+13.4863+33.6534C13.3937+33.5947+13.2612+33.5654+13.0887+33.5654C12.8893+33.5654+12.7479+33.6191+12.6645+33.7265C12.6179+33.7859+12.5875+33.8743+12.5733+33.9916L12.217+33.9916C12.2241+33.7117+12.3149+33.5169+12.4896+33.4074C12.6642+33.2978+12.8667+33.243+13.0972+33.243C13.3644+33.243+13.5814+33.2939+13.7482+33.3957C13.9136+33.4975+13.9963+33.6558+13.9963+33.8708L13.9963+35.1793C13.9963+35.2188+14.0045+35.2507+14.0207+35.2747C14.037+35.2987+14.0713+35.3107+14.1236+35.3107C14.1406+35.3107+14.1596+35.3097+14.1809+35.3076C14.2021+35.3054+14.2247+35.3023+14.2487+35.298L14.2487+35.5801C14.1893+35.597+14.1441+35.6076+14.113+35.6119C14.0819+35.6161+14.0395+35.6182+13.9857+35.6182C13.8543+35.6182+13.7588+35.5716+13.6994+35.4783C13.6683+35.4288+13.6464+35.3588+13.6337+35.2683C13.5559+35.3701+13.4442+35.4585+13.2986+35.5334C13.153+35.6084+12.9925+35.6458+12.8172+35.6458C12.6066+35.6458+12.4344+35.5818+12.3008+35.4539C12.1672+35.3259+12.1004+35.1658+12.1004+34.9735C12.1004+34.7629+12.1661+34.5996+12.2976+34.4836C12.4291+34.3677+12.6016+34.2963+12.8151+34.2695L13.4237+34.1931Z" opacity="1" fill="#000000"/>
<path d="M14.6326+32.4541L15.0143+32.4541L15.0143+35.5695L14.6326+35.5695L14.6326+32.4541Z" opacity="1" fill="#000000"/>
<path d="M19.1116+32.4541L19.1116+32.8252L18.0618+32.8252L18.0618+35.5695L17.6334+35.5695L17.6334+32.8252L16.5837+32.8252L16.5837+32.4541L19.1116+32.4541Z" opacity="1" fill="#000000"/>
<path d="M19.4467+33.3088L19.8348+33.3088L19.8348+35.5695L19.4467+35.5695L19.4467+33.3088ZM19.4467+32.4541L19.8348+32.4541L19.8348+32.8867L19.4467+32.8867L19.4467+32.4541Z" opacity="1" fill="#000000"/>
<path d="M20.4116+33.2981L20.7891+33.2981L20.7891+33.6205C20.8796+33.5088+20.9616+33.4275+21.0351+33.3766C21.161+33.2904+21.3038+33.2472+21.4635+33.2472C21.6445+33.2472+21.7901+33.2918+21.9004+33.3809C21.9626+33.4318+22.0192+33.5067+22.0701+33.6057C22.1549+33.4841+22.2546+33.3939+22.3691+33.3353C22.4836+33.2766+22.6123+33.2472+22.7551+33.2472C23.0604+33.2472+23.2683+33.3575+23.3786+33.5781C23.4379+33.6968+23.4676+33.8566+23.4676+34.0574L23.4676+35.5695L23.071+35.5695L23.071+33.9916C23.071+33.8404+23.0332+33.7364+22.9576+33.6799C22.8819+33.6233+22.7897+33.5951+22.6808+33.5951C22.531+33.5951+22.4019+33.6452+22.2938+33.7456C22.1856+33.846+22.1316+34.0135+22.1316+34.2482L22.1316+35.5695L21.7435+35.5695L21.7435+34.0871C21.7435+33.933+21.7251+33.8206+21.6883+33.7499C21.6303+33.6438+21.5222+33.5908+21.3638+33.5908C21.2196+33.5908+21.0885+33.6467+20.9704+33.7584C20.8524+33.87+20.7934+34.0722+20.7934+34.3649L20.7934+35.5695L20.4116+35.5695L20.4116+33.2981Z" opacity="1" fill="#000000"/>
<path d="M24.9755+33.2472C25.1367+33.2472+25.2929+33.2851+25.4442+33.3607C25.5954+33.4363+25.7107+33.5343+25.7899+33.6544C25.8662+33.769+25.9171+33.9026+25.9425+34.0553C25.9652+34.1599+25.9765+34.3267+25.9765+34.5558L24.3117+34.5558C24.3188+34.7862+24.3732+34.9711+24.475+35.1103C24.5768+35.2496+24.7344+35.3192+24.9479+35.3192C25.1473+35.3192+25.3063+35.2535+25.4251+35.122C25.4929+35.0456+25.541+34.9573+25.5693+34.8569L25.9447+34.8569C25.9348+34.9403+25.9019+35.0333+25.8461+35.1358C25.7902+35.2383+25.7276+35.3221+25.6584+35.3871C25.5424+35.5002+25.3989+35.5765+25.2279+35.6161C25.136+35.6388+25.032+35.6501+24.9161+35.6501C24.6333+35.6501+24.3937+35.5472+24.1972+35.3415C24.0006+35.1358+23.9024+34.8477+23.9024+34.4773C23.9024+34.1125+24.0014+33.8163+24.1993+33.5887C24.3972+33.3611+24.656+33.2472+24.9755+33.2472ZM25.5841+34.2525C25.5686+34.0871+25.5325+33.9549+25.476+33.8559C25.3714+33.6721+25.1967+33.5802+24.9522+33.5802C24.7768+33.5802+24.6298+33.6435+24.511+33.77C24.3923+33.8966+24.3294+34.0574+24.3223+34.2525L25.5841+34.2525Z" opacity="1" fill="#000000"/>
<path d="M29.0155+32.3693C29.41+32.3693+29.7161+32.4732+29.9338+32.681C30.1515+32.8888+30.2724+33.125+30.2964+33.3893L29.885+33.3893C29.8384+33.1886+29.7454+33.0295+29.6061+32.9122C29.4669+32.7948+29.2714+32.7361+29.0198+32.7361C28.713+32.7361+28.4652+32.844+28.2764+33.0596C28.0877+33.2752+27.9933+33.6057+27.9933+34.051C27.9933+34.4158+28.0785+34.7116+28.2489+34.9385C28.4192+35.1655+28.6734+35.2789+29.0113+35.2789C29.3223+35.2789+29.5591+35.1595+29.7217+34.9205C29.808+34.7947+29.8723+34.6293+29.9147+34.4243L30.3261+34.4243C30.2894+34.7523+30.1678+35.0273+29.9614+35.2492C29.7139+35.5165+29.3803+35.6501+28.9604+35.6501C28.5984+35.6501+28.2945+35.5405+28.0485+35.3213C27.7247+35.0315+27.5628+34.584+27.5628+33.9789C27.5628+33.5194+27.6844+33.1426+27.9276+32.8485C28.1905+32.529+28.5532+32.3693+29.0155+32.3693Z" opacity="1" fill="#000000"/>
<path d="M30.7991+32.4541L31.1808+32.4541L31.1808+35.5695L30.7991+35.5695L30.7991+32.4541Z" opacity="1" fill="#000000"/>
<path d="M32.6547+35.3235C32.9078+35.3235+33.0813+35.2277+33.1754+35.0361C33.2694+34.8445+33.3164+34.6314+33.3164+34.3967C33.3164+34.1846+33.2825+34.0121+33.2146+33.8792C33.1072+33.67+32.9219+33.5654+32.659+33.5654C32.4257+33.5654+32.256+33.6544+32.15+33.8326C32.0439+34.0107+31.9909+34.2256+31.9909+34.4773C31.9909+34.7191+32.0439+34.9205+32.15+35.0817C32.256+35.2429+32.4243+35.3235+32.6547+35.3235ZM32.6696+33.2324C32.9622+33.2324+33.2097+33.33+33.4118+33.5251C33.614+33.7202+33.7151+34.0072+33.7151+34.3861C33.7151+34.7523+33.626+35.0548+33.4479+35.2938C33.2697+35.5327+32.9933+35.6522+32.6187+35.6522C32.3062+35.6522+32.0581+35.5465+31.8743+35.3351C31.6905+35.1238+31.5986+34.8399+31.5986+34.4836C31.5986+34.1019+31.6954+33.7979+31.8891+33.5717C32.0828+33.3455+32.343+33.2324+32.6696+33.2324Z" opacity="1" fill="#000000"/>
<path d="M35.0448+33.2324C35.3007+33.2324+35.5089+33.2946+35.6694+33.419C35.8298+33.5434+35.9263+33.7576+35.9589+34.0616L35.5877+34.0616C35.5651+33.9216+35.5135+33.8054+35.4329+33.7128C35.3523+33.6201+35.223+33.5738+35.0448+33.5738C34.8016+33.5738+34.6277+33.6926+34.5231+33.9301C34.4552+34.0842+34.4213+34.2744+34.4213+34.5006C34.4213+34.7282+34.4694+34.9198+34.5655+35.0753C34.6617+35.2309+34.8129+35.3086+35.0194+35.3086C35.1777+35.3086+35.3032+35.2602+35.3958+35.1633C35.4884+35.0665+35.5524+34.934+35.5877+34.7657L35.9589+34.7657C35.9164+35.0669+35.8104+35.2871+35.6407+35.4263C35.4711+35.5656+35.2541+35.6352+34.9897+35.6352C34.6928+35.6352+34.4559+35.5267+34.2792+35.3097C34.1025+35.0927+34.0141+34.8216+34.0141+34.4964C34.0141+34.0977+34.111+33.7873+34.3047+33.5654C34.4984+33.3434+34.7451+33.2324+35.0448+33.2324Z" opacity="1" fill="#000000"/>
<path d="M36.3321+32.4541L36.699+32.4541L36.699+34.2631L37.6788+33.2981L38.1666+33.2981L37.2971+34.1486L38.2153+35.5695L37.7276+35.5695L37.0192+34.4243L36.699+34.7169L36.699+35.5695L36.3321+35.5695L36.3321+32.4541Z" opacity="1" fill="#000000"/>
</g>
<g opacity="1">
<path d="M120.263+24.0827C119.904+24.0827+119.643+23.9841+119.481+23.7869C119.32+23.5896+119.239+23.3496+119.239+23.0669L119.637+23.0669C119.654+23.2634+119.691+23.4062+119.748+23.4953C119.847+23.655+120.025+23.7349+120.284+23.7349C120.485+23.7349+120.646+23.6812+120.768+23.5737C120.889+23.4663+120.95+23.3277+120.95+23.1581C120.95+22.9488+120.886+22.8025+120.758+22.7191C120.63+22.6357+120.452+22.5939+120.225+22.5939C120.199+22.5939+120.174+22.5943+120.147+22.595C120.121+22.5957+120.095+22.5968+120.068+22.5982L120.068+22.261C120.107+22.2652+120.141+22.2681+120.167+22.2695C120.194+22.2709+120.223+22.2716+120.254+22.2716C120.397+22.2716+120.515+22.249+120.606+22.2037C120.768+22.1245+120.848+21.9832+120.848+21.7796C120.848+21.6283+120.795+21.5117+120.687+21.4296C120.58+21.3476+120.455+21.3066+120.312+21.3066C120.057+21.3066+119.881+21.3915+119.784+21.5611C119.73+21.6544+119.7+21.7873+119.692+21.9598L119.315+21.9598C119.315+21.7336+119.36+21.5413+119.451+21.383C119.606+21.1002+119.88+20.9588+120.271+20.9588C120.581+20.9588+120.821+21.0278+120.99+21.1656C121.16+21.3035+121.245+21.5032+121.245+21.7647C121.245+21.9514+121.195+22.1026+121.094+22.2186C121.032+22.2907+120.951+22.3472+120.852+22.3882C121.012+22.4321+121.137+22.5165+121.227+22.6417C121.317+22.7668+121.361+22.9198+121.361+23.1008C121.361+23.3906+121.266+23.6267+121.075+23.8091C120.884+23.9915+120.614+24.0827+120.263+24.0827Z" opacity="1" fill="#000000"/>
<path d="M122.127+20.8846L123.022+23.5377L123.906+20.8846L124.379+20.8846L123.243+24L122.795+24L121.661+20.8846L122.127+20.8846Z" opacity="1" fill="#000000"/>
</g>
<g opacity="1">
<path d="M5.78094+23.8749C5.95767+23.865+6.10118+23.8233+6.21145+23.7498C6.41787+23.6098+6.52108+23.3631+6.52108+23.0097C6.52108+22.8513+6.49846+22.7071+6.45322+22.577C6.36556+22.3254+6.20863+22.1995+5.98241+22.1995C5.81275+22.1995+5.69187+22.2525+5.61976+22.3586C5.54907+22.466+5.48757+22.6343+5.43526+22.8633L5.33983+23.2854C5.27762+23.5611+5.20905+23.7562+5.13411+23.8707C5.00404+24.0686+4.80964+24.1676+4.55091+24.1676C4.27097+24.1676+4.04122+24.0707+3.86166+23.877C3.6821+23.6833+3.59233+23.4091+3.59233+23.0542C3.59233+22.7276+3.67115+22.4501+3.82879+22.2218C3.98643+21.9935+4.23845+21.8793+4.58484+21.8793L4.58484+22.2759C4.41801+22.2971+4.29005+22.3423+4.20098+22.4116C4.03839+22.5403+3.9571+22.7587+3.9571+23.0669C3.9571+23.3158+4.00941+23.4946+4.11403+23.6035C4.21865+23.7123+4.34024+23.7668+4.4788+23.7668C4.63149+23.7668+4.74319+23.7031+4.81388+23.5759C4.85912+23.4925+4.91568+23.3037+4.98354+23.0097L5.08321+22.5728C5.13128+22.3621+5.19703+22.1995+5.28044+22.085C5.42607+21.8871+5.63744+21.7881+5.91455+21.7881C6.25952+21.7881+6.50624+21.9136+6.65469+22.1645C6.80314+22.4155+6.87737+22.7071+6.87737+23.0393C6.87737+23.4267+6.7784+23.73+6.58047+23.9491C6.38394+24.1683+6.11743+24.2757+5.78094+24.2715L5.78094+23.8749Z" opacity="1" fill="#000000"/>
<path d="M6.42565+20.0576C6.42565+19.9148+6.41081+19.7974+6.38111+19.7055C6.32597+19.5415+6.21994+19.4072+6.063+19.3026C5.93717+19.2192+5.77599+19.1591+5.57947+19.1223C5.46212+19.1011+5.35326+19.0905+5.25287+19.0905C4.8669+19.0905+4.56716+19.1672+4.35368+19.3206C4.14019+19.474+4.03344+19.7211+4.03344+20.0618L4.03344+20.8104L6.42565+20.8104L6.42565+20.0576ZM3.67079+21.2346L3.67079+19.9727C3.67079+19.5443+3.82278+19.2121+4.12676+18.976C4.40104+18.7653+4.75238+18.66+5.18077+18.66C5.51161+18.66+5.81063+18.7222+6.07785+18.8466C6.55007+19.0658+6.78618+19.4426+6.78618+19.977L6.78618+21.2346L3.67079+21.2346Z" opacity="1" fill="#000000"/>
<path d="M5.50949+16.518L4.13312+16.991L5.50949+17.4936L5.50949+16.518ZM3.67079+17.2115L3.67079+16.7344L6.78618+15.604L6.78618+16.0663L5.85305+16.3823L5.85305+17.6145L6.78618+17.9517L6.78618+18.3843L3.67079+17.2115Z" opacity="1" fill="#000000"/>
</g>
<g opacity="1">
<path d="M12.05+21.6397L12.4211+21.6397L12.4211+22.6894L15.1653+22.6894L15.1653+23.1178L12.4211+23.1178L12.4211+24.1676L12.05+24.1676L12.05+21.6397Z" opacity="1" fill="#000000"/>
<path d="M15.1653+20.9865L15.1653+21.4954L13.5684+20.3799L12.05+21.4255L12.05+20.8974L13.2418+20.1021L12.05+19.3132L12.05+18.8106L13.5684+19.8561L15.1653+18.7597L15.1653+19.2835L13.8844+20.1233L15.1653+20.9865Z" opacity="1" fill="#000000"/>
<path d="M14.8048+17.1606C14.8048+17.0178+14.79+16.9005+14.7603+16.8086C14.7051+16.6446+14.5991+16.5103+14.4422+16.4056C14.3163+16.3222+14.1552+16.2621+13.9586+16.2254C13.8413+16.2042+13.7324+16.1936+13.632+16.1936C13.2461+16.1936+12.9463+16.2703+12.7328+16.4237C12.5194+16.5771+12.4126+16.8241+12.4126+17.1649L12.4126+17.9135L14.8048+17.9135L14.8048+17.1606ZM12.05+18.3376L12.05+17.0758C12.05+16.6474+12.2019+16.3151+12.5059+16.079C12.7802+15.8684+13.1315+15.763+13.5599+15.763C13.8908+15.763+14.1898+15.8253+14.457+15.9497C14.9292+16.1688+15.1653+16.5456+15.1653+17.08L15.1653+18.3376L12.05+18.3376Z" opacity="1" fill="#000000"/>
</g>
<g opacity="1">
<path d="M22.4613+16.5308L21.0849+16.5308L22.4613+17.5042L22.4613+16.5308ZM23.5365+16.5244L22.7942+16.5244L22.7942+17.8562L22.421+17.8562L20.4911+16.465L20.4911+16.1427L22.4613+16.1427L22.4613+15.6952L22.7942+15.6952L22.7942+16.1427L23.5365+16.1427L23.5365+16.5244Z" opacity="1" fill="#000000"/>
</g>
<g opacity="1">
<path d="M29.3744+19.9664L29.0817+19.9664C29.0549+19.6907+29.01+19.4984+28.9471+19.3895C28.8842+19.2807+28.7354+19.1994+28.5007+19.1456L28.5007+18.8445L31.5249+18.8445L31.5249+19.2517L29.3744+19.2517L29.3744+19.9664Z" opacity="1" fill="#000000"/>
<path d="M29.7604+16.7852C29.7604+16.617+29.7134+16.4855+29.6194+16.3908C29.5253+16.2961+29.4133+16.2487+29.2832+16.2487C29.1701+16.2487+29.0662+16.2939+28.9715+16.3844C28.8767+16.4749+28.8294+16.6128+28.8294+16.798C28.8294+16.9818+28.8767+17.1147+28.9715+17.1967C29.0662+17.2787+29.1772+17.3197+29.3044+17.3197C29.4472+17.3197+29.5589+17.2667+29.6395+17.1606C29.7201+17.0546+29.7604+16.9295+29.7604+16.7852ZM31.264+16.7619C31.264+16.5852+31.2163+16.4385+31.1209+16.3219C31.0254+16.2052+30.883+16.1469+30.6935+16.1469C30.497+16.1469+30.3478+16.207+30.246+16.3272C30.1442+16.4473+30.0933+16.6015+30.0933+16.7895C30.0933+16.9719+30.1453+17.1207+30.2492+17.2359C30.3531+17.3511+30.497+17.4088+30.6808+17.4088C30.8391+17.4088+30.9759+17.3561+31.0912+17.2508C31.2064+17.1454+31.264+16.9825+31.264+16.7619ZM29.9067+17.3048C29.8615+17.4109+29.8085+17.4936+29.7477+17.553C29.6346+17.6647+29.4875+17.7205+29.3065+17.7205C29.0803+17.7205+28.8859+17.6385+28.7233+17.4745C28.5608+17.3105+28.4795+17.0779+28.4795+16.7768C28.4795+16.4855+28.5562+16.2572+28.7096+16.0918C28.863+15.9263+29.0422+15.8436+29.2472+15.8436C29.4366+15.8436+29.59+15.8917+29.7074+15.9878C29.7738+16.0416+29.8389+16.125+29.9025+16.2381C29.9604+16.1123+30.0269+16.0133+30.1018+15.9412C30.2432+15.8069+30.427+15.7397+30.6532+15.7397C30.9204+15.7397+31.147+15.8295+31.3329+16.0091C31.5188+16.1886+31.6118+16.4424+31.6118+16.7704C31.6118+17.0659+31.5316+17.3158+31.3711+17.5201C31.2106+17.7244+30.9777+17.8265+30.6723+17.8265C30.4928+17.8265+30.3376+17.7827+30.2068+17.6951C30.076+17.6074+29.976+17.4773+29.9067+17.3048Z" opacity="1" fill="#000000"/>
</g>
<g opacity="1">
<path d="M39.6742+20.2463C39.4126+20.2322+39.185+20.1781+38.9913+20.0841C38.7976+19.9901+38.6216+19.8066+38.4632+19.5337L38.2278+19.1266C38.1218+18.9442+38.0313+18.8162+37.9563+18.7427C37.839+18.6268+37.7047+18.5688+37.5534+18.5688C37.3767+18.5688+37.2364+18.6218+37.1324+18.7279C37.0285+18.8339+36.9766+18.9753+36.9766+19.152C36.9766+19.4136+37.0755+19.5945+37.2735+19.6949C37.3795+19.7486+37.5265+19.7783+37.7146+19.784L37.7146+20.1721C37.4502+20.1678+37.2346+20.1191+37.0678+20.0258C36.7737+19.8603+36.6266+19.5684+36.6266+19.1499C36.6266+18.8021+36.7207+18.5479+36.9087+18.3875C37.0967+18.227+37.306+18.1468+37.5364+18.1468C37.7796+18.1468+37.9875+18.2323+38.1599+18.4034C38.2603+18.5024+38.3819+18.6798+38.5247+18.9357L38.6859+19.2262C38.7622+19.3648+38.835+19.4737+38.9043+19.5528C39.0273+19.6942+39.1638+19.7833+39.3136+19.82L39.3136+18.1616L39.6742+18.1616L39.6742+20.2463Z" opacity="1" fill="#000000"/>
<path d="M39.6742+17.8308C39.4126+17.8166+39.185+17.7626+38.9913+17.6685C38.7976+17.5745+38.6216+17.3911+38.4632+17.1182L38.2278+16.711C38.1218+16.5286+38.0313+16.4007+37.9563+16.3272C37.839+16.2112+37.7047+16.1533+37.5534+16.1533C37.3767+16.1533+37.2364+16.2063+37.1324+16.3123C37.0285+16.4184+36.9766+16.5597+36.9766+16.7365C36.9766+16.998+37.0755+17.179+37.2735+17.2794C37.3795+17.3331+37.5265+17.3628+37.7146+17.3685L37.7146+17.7566C37.4502+17.7523+37.2346+17.7035+37.0678+17.6102C36.7737+17.4448+36.6266+17.1528+36.6266+16.7344C36.6266+16.3865+36.7207+16.1324+36.9087+15.9719C37.0967+15.8115+37.306+15.7312+37.5364+15.7312C37.7796+15.7312+37.9875+15.8168+38.1599+15.9878C38.2603+16.0868+38.3819+16.2643+38.5247+16.5202L38.6859+16.8107C38.7622+16.9493+38.835+17.0581+38.9043+17.1373C39.0273+17.2787+39.1638+17.3677+39.3136+17.4045L39.3136+15.7461L39.6742+15.7461L39.6742+17.8308Z" opacity="1" fill="#000000"/>
</g>
<g opacity="1">
<path d="M48.1346+20.2463C47.8731+20.2322+47.6454+20.1781+47.4517+20.0841C47.2581+19.9901+47.082+19.8066+46.9237+19.5337L46.6883+19.1266C46.5822+18.9442+46.4918+18.8162+46.4168+18.7427C46.2995+18.6268+46.1652+18.5688+46.0139+18.5688C45.8371+18.5688+45.6968+18.6218+45.5929+18.7279C45.489+18.8339+45.437+18.9753+45.437+19.152C45.437+19.4136+45.536+19.5945+45.7339+19.6949C45.84+19.7486+45.987+19.7783+46.1751+19.784L46.1751+20.1721C45.9107+20.1678+45.6951+20.1191+45.5282+20.0258C45.2341+19.8603+45.0871+19.5684+45.0871+19.1499C45.0871+18.8021+45.1811+18.5479+45.3692+18.3875C45.5572+18.227+45.7665+18.1468+45.9969+18.1468C46.2401+18.1468+46.4479+18.2323+46.6204+18.4034C46.7208+18.5024+46.8424+18.6798+46.9852+18.9357L47.1464+19.2262C47.2227+19.3648+47.2955+19.4737+47.3648+19.5528C47.4878+19.6942+47.6242+19.7833+47.7741+19.82L47.7741+18.1616L48.1346+18.1616L48.1346+20.2463Z" opacity="1" fill="#000000"/>
<path d="M47.0594+16.5308L45.683+16.5308L47.0594+17.5042L47.0594+16.5308ZM48.1346+16.5244L47.3924+16.5244L47.3924+17.8562L47.0191+17.8562L45.0892+16.465L45.0892+16.1427L47.0594+16.1427L47.0594+15.6952L47.3924+15.6952L47.3924+16.1427L48.1346+16.1427L48.1346+16.5244Z" opacity="1" fill="#000000"/>
</g>
<g opacity="1">
<path d="M53.2612+26.3308L53.2612+25.7263L55.8952+24.8314L53.2612+23.9428L53.2612+23.3447L56.3766+23.3447L56.3766+23.7456L54.5379+23.7456C54.4743+23.7456+54.3689+23.7441+54.2219+23.7413C54.0749+23.7385+53.9172+23.7371+53.749+23.7371L56.3766+24.6257L56.3766+25.0435L53.749+25.9384L53.8444+25.9384C53.9207+25.9384+54.037+25.9366+54.1933+25.9331C54.3495+25.9296+54.4644+25.9278+54.5379+25.9278L56.3766+25.9278L56.3766+26.3308L53.2612+26.3308Z" opacity="1" fill="#000000"/>
<path d="M53.1764+21.3576C53.1764+20.8076+53.3531+20.4004+53.7065+20.136C53.9822+19.9296+54.335+19.8264+54.7648+19.8264C55.23+19.8264+55.6166+19.9445+55.9249+20.1806C56.2868+20.4577+56.4678+20.8529+56.4678+21.3661C56.4678+21.8454+56.3094+22.2222+55.9927+22.4964C55.6873+22.741+55.3014+22.8633+54.8348+22.8633C54.4135+22.8633+54.0529+22.7587+53.7532+22.5495C53.3686+22.2808+53.1764+21.8835+53.1764+21.3576ZM56.0903+21.3152C56.0903+20.9433+55.957+20.6744+55.6905+20.5082C55.424+20.3421+55.1176+20.259+54.7712+20.259C54.405+20.259+54.1102+20.3548+53.8868+20.5464C53.6634+20.738+53.5517+20.9999+53.5517+21.3321C53.5517+21.6545+53.6624+21.9175+53.8836+22.1211C54.1049+22.3247+54.4311+22.4264+54.8624+22.4264C55.2073+22.4264+55.4982+22.3391+55.735+22.1645C55.9719+21.9899+56.0903+21.7068+56.0903+21.3152Z" opacity="1" fill="#000000"/>
<path d="M55.3713+19.0481C55.5481+19.0382+55.6916+18.9965+55.8019+18.923C56.0083+18.783+56.1115+18.5363+56.1115+18.1828C56.1115+18.0245+56.0889+17.8803+56.0436+17.7502C55.956+17.4985+55.799+17.3727+55.5728+17.3727C55.4032+17.3727+55.2823+17.4257+55.2102+17.5318C55.1395+17.6392+55.078+17.8075+55.0257+18.0365L54.9302+18.4585C54.868+18.7342+54.7994+18.9293+54.7245+19.0438C54.5944+19.2418+54.4+19.3408+54.1413+19.3408C53.8614+19.3408+53.6316+19.2439+53.4521+19.0502C53.2725+18.8565+53.1827+18.5822+53.1827+18.2274C53.1827+17.9008+53.2615+17.6233+53.4192+17.395C53.5768+17.1666+53.8288+17.0525+54.1752+17.0525L54.1752+17.449C54.0084+17.4703+53.8805+17.5155+53.7914+17.5848C53.6288+17.7134+53.5475+17.9319+53.5475+18.2401C53.5475+18.4889+53.5998+18.6678+53.7044+18.7766C53.8091+18.8855+53.9306+18.9399+54.0692+18.9399C54.2219+18.9399+54.3336+18.8763+54.4043+18.7491C54.4495+18.6656+54.5061+18.4769+54.5739+18.1828L54.6736+17.7459C54.7217+17.5353+54.7874+17.3727+54.8708+17.2582C55.0165+17.0602+55.2278+16.9613+55.5049+16.9613C55.8499+16.9613+56.0966+17.0867+56.2451+17.3377C56.3935+17.5887+56.4678+17.8803+56.4678+18.2125C56.4678+18.5999+56.3688+18.9032+56.1709+19.1223C55.9743+19.3415+55.7078+19.4489+55.3713+19.4447L55.3713+19.0481Z" opacity="1" fill="#000000"/>
<path d="M53.2612+16.3314L53.2612+15.9051L56.3766+15.9051L56.3766+16.3314L53.2612+16.3314Z" opacity="1" fill="#000000"/>
</g>
<g opacity="1">
<path d="M61.8329+22.3565C61.8329+21.962+61.9369+21.6559+62.1447+21.4382C62.3525+21.2204+62.5886+21.0996+62.853+21.0755L62.853+21.487C62.6523+21.5336+62.4932+21.6266+62.3759+21.7658C62.2585+21.9051+62.1998+22.1006+62.1998+22.3522C62.1998+22.659+62.3076+22.9068+62.5232+23.0955C62.7389+23.2843+63.0693+23.3787+63.5147+23.3787C63.8795+23.3787+64.1753+23.2935+64.4022+23.1231C64.6291+22.9527+64.7426+22.6986+64.7426+22.3607C64.7426+22.0497+64.6231+21.8128+64.3842+21.6503C64.2584+21.564+64.093+21.4997+63.8879+21.4573L63.8879+21.0458C64.216+21.0826+64.4909+21.2042+64.7129+21.4106C64.9801+21.658+65.1137+21.9917+65.1137+22.4116C65.1137+22.7735+65.0042+23.0775+64.785+23.3235C64.4952+23.6473+64.0477+23.8092+63.4426+23.8092C62.9831+23.8092+62.6063+23.6876+62.3122+23.4444C61.9927+23.1814+61.8329+22.8188+61.8329+22.3565Z" opacity="1" fill="#000000"/>
<path d="M61.9178+20.5326L61.9178+20.1106L64.662+20.1106L64.662+18.5327L65.0332+18.5327L65.0332+20.5326L61.9178+20.5326Z" opacity="1" fill="#000000"/>
<path d="M61.9178+18.1171L61.9178+17.7057L63.4362+17.7057L61.9178+16.1872L61.9178+15.604L63.1733+16.8998L65.0332+15.5679L65.0332+16.1172L63.4702+17.2073L63.9473+17.7057L65.0332+17.7057L65.0332+18.1171L61.9178+18.1171Z" opacity="1" fill="#000000"/>
</g>
<g opacity="1">
<path d="M69.4344+22.3565C69.4344+21.962+69.5383+21.6559+69.7461+21.4382C69.954+21.2204+70.1901+21.0996+70.4545+21.0755L70.4545+21.487C70.2537+21.5336+70.0946+21.6266+69.9773+21.7658C69.8599+21.9051+69.8013+22.1006+69.8013+22.3522C69.8013+22.659+69.9091+22.9068+70.1247+23.0955C70.3403+23.2843+70.6708+23.3787+71.1161+23.3787C71.4809+23.3787+71.7767+23.2935+72.0037+23.1231C72.2306+22.9527+72.344+22.6986+72.344+22.3607C72.344+22.0497+72.2246+21.8128+71.9856+21.6503C71.8598+21.564+71.6944+21.4997+71.4894+21.4573L71.4894+21.0458C71.8174+21.0826+72.0924+21.2042+72.3144+21.4106C72.5816+21.658+72.7152+21.9917+72.7152+22.4116C72.7152+22.7735+72.6056+23.0775+72.3865+23.3235C72.0966+23.6473+71.6491+23.8092+71.044+23.8092C70.5845+23.8092+70.2077+23.6876+69.9137+23.4444C69.5941+23.1814+69.4344+22.8188+69.4344+22.3565Z" opacity="1" fill="#000000"/>
<path d="M69.5192+20.4923L69.5192+18.221L69.9009+18.221L69.9009+20.0809L70.8468+20.0809L70.8468+18.361L71.2073+18.361L71.2073+20.0809L72.2635+20.0809L72.2635+18.1892L72.6346+18.1892L72.6346+20.4923L69.5192+20.4923Z" opacity="1" fill="#000000"/>
<path d="M70.4841+17.5508L70.1915+17.5508C70.1646+17.2751+70.1197+17.0829+70.0568+16.974C69.9939+16.8651+69.8451+16.7838+69.6104+16.7301L69.6104+16.429L72.6346+16.429L72.6346+16.8361L70.4841+16.8361L70.4841+17.5508Z" opacity="1" fill="#000000"/>
</g>
<g opacity="1">
<path d="M77.8272+16.6962C77.8272+16.3569+77.9152+16.1204+78.0912+15.9868C78.2672+15.8532+78.4485+15.7864+78.6352+15.7864L78.6352+16.1639C78.515+16.1865+78.421+16.2225+78.3531+16.272C78.2259+16.3639+78.1622+16.5032+78.1622+16.6898C78.1622+16.9033+78.2609+17.073+78.4581+17.1988C78.6553+17.3246+78.9377+17.3946+79.3053+17.4088C79.1767+17.3211+79.0805+17.2108+79.0169+17.0779C78.9603+16.9563+78.9321+16.8206+78.9321+16.6707C78.9321+16.4162+79.0134+16.1943+79.176+16.0048C79.3385+15.8154+79.581+15.7206+79.9034+15.7206C80.1791+15.7206+80.4233+15.8104+80.6361+15.99C80.8489+16.1695+80.9553+16.4254+80.9553+16.7577C80.9553+17.0419+80.8475+17.2872+80.6319+17.4936C80.4162+17.7+80.0532+17.8032+79.5428+17.8032C79.1654+17.8032+78.8451+17.7573+78.5821+17.6654C78.0788+17.4886+77.8272+17.1656+77.8272+16.6962ZM80.6159+16.7237C80.6159+16.523+80.5484+16.3728+80.4134+16.2731C80.2784+16.1734+80.119+16.1236+79.9352+16.1236C79.7797+16.1236+79.6316+16.1681+79.4909+16.2572C79.3502+16.3463+79.2799+16.5081+79.2799+16.7428C79.2799+16.9068+79.3343+17.0507+79.4432+17.1744C79.552+17.2981+79.716+17.36+79.9352+17.36C80.1275+17.36+80.289+17.3038+80.4198+17.1914C80.5506+17.079+80.6159+16.9231+80.6159+16.7237Z" opacity="1" fill="#000000"/>
</g>
<g opacity="1">
<path d="M86.7028+19.9664L86.4101+19.9664C86.3832+19.6907+86.3384+19.4984+86.2754+19.3895C86.2125+19.2807+86.0637+19.1994+85.829+19.1456L85.829+18.8445L88.8532+18.8445L88.8532+19.2517L86.7028+19.2517L86.7028+19.9664Z" opacity="1" fill="#000000"/>
<path d="M88.9359+16.8383C88.9359+17.1974+88.8373+17.4579+88.6401+17.6198C88.4428+17.7816+88.2028+17.8626+87.9201+17.8626L87.9201+17.4639C88.1166+17.4469+88.2594+17.4102+88.3485+17.3536C88.5082+17.2546+88.5881+17.0758+88.5881+16.8171C88.5881+16.6163+88.5344+16.4551+88.4269+16.3335C88.3195+16.2119+88.1809+16.1511+88.0113+16.1511C87.802+16.1511+87.6557+16.2151+87.5723+16.3431C87.4889+16.471+87.4472+16.6488+87.4472+16.8764C87.4472+16.9019+87.4475+16.9277+87.4482+16.9538C87.4489+16.98+87.45+17.0065+87.4514+17.0334L87.1142+17.0334C87.1184+16.9938+87.1213+16.9606+87.1227+16.9337C87.1241+16.9068+87.1248+16.8779+87.1248+16.8468C87.1248+16.704+87.1022+16.5866+87.0569+16.4947C86.9778+16.3335+86.8364+16.2529+86.6328+16.2529C86.4815+16.2529+86.3649+16.3067+86.2829+16.4141C86.2009+16.5216+86.1599+16.6467+86.1599+16.7895C86.1599+17.044+86.2447+17.22+86.4143+17.3176C86.5077+17.3713+86.6406+17.4017+86.813+17.4088L86.813+17.7862C86.5868+17.7862+86.3946+17.741+86.2362+17.6505C85.9534+17.495+85.8121+17.2214+85.8121+16.8298C85.8121+16.5202+85.881+16.2805+86.0188+16.1109C86.1567+15.9412+86.3564+15.8564+86.6179+15.8564C86.8046+15.8564+86.9558+15.9066+87.0718+16.0069C87.1439+16.0691+87.2004+16.1497+87.2414+16.2487C87.2853+16.0889+87.3697+15.9642+87.4949+15.8744C87.62+15.7846+87.773+15.7397+87.954+15.7397C88.2438+15.7397+88.48+15.8352+88.6623+16.026C88.8447+16.2169+88.9359+16.4876+88.9359+16.8383Z" opacity="1" fill="#000000"/>
</g>
<g opacity="1">
<path d="M95.2828+19.9664L94.9901+19.9664C94.9632+19.6907+94.9184+19.4984+94.8554+19.3895C94.7925+19.2807+94.6437+19.1994+94.409+19.1456L94.409+18.8445L97.4332+18.8445L97.4332+19.2517L95.2828+19.2517L95.2828+19.9664Z" opacity="1" fill="#000000"/>
<path d="M96.6994+17.3897C96.9101+17.3784+97.0557+17.2971+97.1363+17.1458C97.1787+17.068+97.1999+16.9804+97.1999+16.8828C97.1999+16.7004+97.1239+16.5449+96.9719+16.4162C96.82+16.2876+96.5114+16.1964+96.0462+16.1427C96.1806+16.2275+96.2749+16.3325+96.3294+16.4576C96.3838+16.5827+96.411+16.7174+96.411+16.8616C96.411+17.1543+96.3198+17.3858+96.1374+17.5561C95.955+17.7265+95.7204+17.8117+95.4333+17.8117C95.1576+17.8117+94.9152+17.7276+94.7059+17.5593C94.4967+17.3911+94.3921+17.1429+94.3921+16.8149C94.3921+16.3724+94.5914+16.067+94.9901+15.8988C95.2093+15.8055+95.4835+15.7588+95.813+15.7588C96.1848+15.7588+96.5142+15.8147+96.8012+15.9263C97.2791+16.1116+97.518+16.4254+97.518+16.868C97.518+17.1649+97.4403+17.3904+97.2848+17.5445C97.1292+17.6986+96.9341+17.7756+96.6994+17.7756L96.6994+17.3897ZM96.0759+16.8107C96.0759+16.6594+96.0261+16.5212+95.9264+16.3961C95.8267+16.271+95.6525+16.2084+95.4037+16.2084C95.1803+16.2084+95.0138+16.2646+94.9042+16.377C94.7946+16.4894+94.7399+16.6326+94.7399+16.8065C94.7399+16.9931+94.8024+17.1412+94.9275+17.2508C95.0527+17.3603+95.2199+17.4151+95.4291+17.4151C95.627+17.4151+95.7843+17.367+95.901+17.2709C96.0176+17.1748+96.0759+17.0214+96.0759+16.8107Z" opacity="1" fill="#000000"/>
</g>
<g opacity="1">
<path d="M105.42+20.2463C105.158+20.2322+104.931+20.1781+104.737+20.0841C104.543+19.9901+104.367+19.8066+104.209+19.5337L103.974+19.1266C103.867+18.9442+103.777+18.8162+103.702+18.7427C103.585+18.6268+103.45+18.5688+103.299+18.5688C103.122+18.5688+102.982+18.6218+102.878+18.7279C102.774+18.8339+102.722+18.9753+102.722+19.152C102.722+19.4136+102.821+19.5945+103.019+19.6949C103.125+19.7486+103.272+19.7783+103.46+19.784L103.46+20.1721C103.196+20.1678+102.98+20.1191+102.813+20.0258C102.519+19.8603+102.372+19.5684+102.372+19.1499C102.372+18.8021+102.466+18.5479+102.654+18.3875C102.842+18.227+103.052+18.1468+103.282+18.1468C103.525+18.1468+103.733+18.2323+103.906+18.4034C104.006+18.5024+104.128+18.6798+104.27+18.9357L104.432+19.2262C104.508+19.3648+104.581+19.4737+104.65+19.5528C104.773+19.6942+104.909+19.7833+105.059+19.82L105.059+18.1616L105.42+18.1616L105.42+20.2463Z" opacity="1" fill="#000000"/>
<path d="M103.269+17.5508L102.977+17.5508C102.95+17.2751+102.905+17.0829+102.842+16.974C102.779+16.8651+102.63+16.7838+102.396+16.7301L102.396+16.429L105.42+16.429L105.42+16.8361L103.269+16.8361L103.269+17.5508Z" opacity="1" fill="#000000"/>
</g>
<g opacity="1">
<path d="M6.58733+47.5312C6.76406+47.5213+6.90757+47.4796+7.01785+47.4061C7.22427+47.2661+7.32748+47.0194+7.32748+46.6659C7.32748+46.5076+7.30486+46.3634+7.25961+46.2333C7.17196+45.9816+7.01502+45.8558+6.78881+45.8558C6.61915+45.8558+6.49826+45.9088+6.42616+46.0148C6.35547+46.1223+6.29396+46.2905+6.24165+46.5196L6.14622+46.9416C6.08401+47.2173+6.01544+47.4124+5.94051+47.5269C5.81043+47.7249+5.61603+47.8238+5.3573+47.8238C5.07736+47.8238+4.84761+47.727+4.66805+47.5333C4.4885+47.3396+4.39872+47.0653+4.39872+46.7104C4.39872+46.3839+4.47754+46.1064+4.63518+45.8781C4.79283+45.6497+5.04484+45.5356+5.39123+45.5356L5.39123+45.9321C5.2244+45.9533+5.09645+45.9986+5.00737+46.0679C4.84478+46.1965+4.76349+46.415+4.76349+46.7232C4.76349+46.972+4.8158+47.1509+4.92042+47.2597C5.02505+47.3686+5.14664+47.423+5.28519+47.423C5.43789+47.423+5.54958+47.3594+5.62027+47.2322C5.66551+47.1487+5.72207+46.96+5.78993+46.6659L5.88961+46.229C5.93768+46.0184+6.00342+45.8558+6.08684+45.7413C6.23246+45.5433+6.44383+45.4444+6.72094+45.4444C7.06592+45.4444+7.31263+45.5698+7.46108+45.8208C7.60954+46.0717+7.68376+46.3634+7.68376+46.6956C7.68376+47.083+7.58479+47.3863+7.38686+47.6054C7.19034+47.8246+6.92383+47.932+6.58733+47.9278L6.58733+47.5312Z" opacity="1" fill="#000000"/>
<path d="M4.39236+43.5972C4.39236+43.2027+4.49627+42.8966+4.70411+42.6789C4.91194+42.4612+5.14805+42.3403+5.41244+42.3163L5.41244+42.7277C5.21167+42.7743+5.05262+42.8673+4.93527+43.0066C4.81792+43.1458+4.75925+43.3413+4.75925+43.5929C4.75925+43.8997+4.86705+44.1475+5.08266+44.3363C5.29827+44.525+5.62876+44.6194+6.07411+44.6194C6.43888+44.6194+6.73473+44.5342+6.96165+44.3638C7.18857+44.1935+7.30203+43.9393+7.30203+43.6014C7.30203+43.2904+7.18256+43.0536+6.94362+42.891C6.81779+42.8047+6.65237+42.7404+6.44737+42.698L6.44737+42.2866C6.77538+42.3233+7.05037+42.4449+7.27234+42.6513C7.53955+42.8988+7.67316+43.2324+7.67316+43.6523C7.67316+44.0143+7.56359+44.3182+7.34444+44.5642C7.05461+44.888+6.60713+45.0499+6.00201+45.0499C5.54251+45.0499+5.16572+44.9283+4.87165+44.6851C4.55212+44.4222+4.39236+44.0595+4.39236+43.5972Z" opacity="1" fill="#000000"/>
<path d="M4.47719+41.7733L4.47719+41.3513L7.22144+41.3513L7.22144+39.7735L7.59257+39.7735L7.59257+41.7733L4.47719+41.7733Z" opacity="1" fill="#000000"/>
</g>
<g opacity="1">
<path d="M14.1056+46.3584C14.1056+46.1605+14.066+46.0039+13.9869+45.8887C13.9077+45.7734+13.7649+45.7158+13.5585+45.7158C13.3365+45.7158+13.1852+45.7964+13.1046+45.9576C13.0622+46.0438+13.041+46.1591+13.041+46.3033L13.041+47.3339L14.1056+47.3339L14.1056+46.3584ZM12.6784+47.756L12.6784+46.3139C12.6784+46.0763+12.713+45.8805+12.7823+45.7264C12.9152+45.4338+13.1605+45.2874+13.5182+45.2874C13.7048+45.2874+13.8575+45.326+13.9763+45.403C14.095+45.4801+14.1905+45.5879+14.2626+45.7264C14.312+45.6048+14.3771+45.5133+14.4577+45.4518C14.5383+45.3903+14.669+45.356+14.85+45.3489L15.2678+45.3341C15.3866+45.3298+15.4749+45.3199+15.5329+45.3044C15.6319+45.2789+15.6955+45.2337+15.7238+45.1687L15.7937+45.1687L15.7937+45.6861C15.7669+45.7003+15.7322+45.7116+15.6898+45.7201C15.6474+45.7285+15.5654+45.7356+15.4438+45.7413L14.9242+45.7667C14.7206+45.7766+14.5842+45.8523+14.5149+45.9936C14.4768+46.0742+14.4577+46.2008+14.4577+46.3732L14.4577+47.3339L15.7937+47.3339L15.7937+47.756L12.6784+47.756Z" opacity="1" fill="#000000"/>
<path d="M15.7937+44.4031L15.7937+44.9121L14.1968+43.7965L12.6784+44.8421L12.6784+44.314L13.8702+43.5187L12.6784+42.7298L12.6784+42.2272L14.1968+43.2727L15.7937+42.1763L15.7937+42.7001L14.5128+43.5399L15.7937+44.4031Z" opacity="1" fill="#000000"/>
<path d="M15.4332+40.5772C15.4332+40.4344+15.4184+40.3171+15.3887+40.2252C15.3335+40.0612+15.2275+39.9269+15.0706+39.8222C14.9447+39.7388+14.7836+39.6787+14.587+39.642C14.4697+39.6208+14.3608+39.6102+14.2604+39.6102C13.8745+39.6102+13.5747+39.6869+13.3612+39.8403C13.1477+39.9937+13.041+40.2407+13.041+40.5815L13.041+41.3301L15.4332+41.3301L15.4332+40.5772ZM12.6784+41.7543L12.6784+40.4924C12.6784+40.064+12.8303+39.7318+13.1343+39.4957C13.4086+39.285+13.7599+39.1797+14.1883+39.1797C14.5192+39.1797+14.8182+39.2419+15.0854+39.3663C15.5576+39.5854+15.7937+39.9622+15.7937+40.4966L15.7937+41.7543L12.6784+41.7543Z" opacity="1" fill="#000000"/>
</g>
<g opacity="1">
<path d="M21.7551+47.722L21.4625+47.722C21.4356+47.4463+21.3907+47.2541+21.3278+47.1452C21.2649+47.0363+21.1161+46.955+20.8814+46.9013L20.8814+46.6002L23.9056+46.6002L23.9056+47.0074L21.7551+47.0074L21.7551+47.722Z" opacity="1" fill="#000000"/>
<path d="M20.9196+43.4509L21.2525+43.4509C21.3472+43.5484+21.512+43.6781+21.7466+43.84C21.9813+44.0019+22.2344+44.145+22.5059+44.2695C22.7703+44.3925+23.0113+44.4858+23.2291+44.5494C23.369+44.5904+23.5945+44.6434+23.9056+44.7085L23.9056+45.1305C23.3259+45.0343+22.7491+44.8223+22.175+44.4943C21.8385+44.3006+21.548+44.097+21.3034+43.8835L21.3034+45.5631L20.9196+45.5631L20.9196+43.4509Z" opacity="1" fill="#000000"/>
</g>
<g opacity="1">
<path d="M31.6525+48.002C31.391+47.9878+31.1633+47.9338+30.9696+47.8397C30.7759+47.7457+30.5999+47.5623+30.4416+47.2894L30.2062+46.8822C30.1001+46.6998+30.0096+46.5719+29.9347+46.4984C29.8174+46.3824+29.6831+46.3245+29.5318+46.3245C29.355+46.3245+29.2147+46.3775+29.1108+46.4835C29.0069+46.5896+28.9549+46.7309+28.9549+46.9077C28.9549+47.1692+29.0539+47.3502+29.2518+47.4506C29.3579+47.5043+29.5049+47.534+29.6929+47.5397L29.6929+47.9278C29.4286+47.9235+29.213+47.8747+29.0461+47.7814C28.752+47.616+28.605+47.3241+28.605+46.9056C28.605+46.5578+28.699+46.3036+28.8871+46.1431C29.0751+45.9827+29.2844+45.9024+29.5148+45.9024C29.758+45.9024+29.9658+45.988+30.1383+46.1591C30.2387+46.258+30.3603+46.4355+30.5031+46.6914L30.6643+46.9819C30.7406+47.1205+30.8134+47.2293+30.8827+47.3085C31.0057+47.4499+31.1421+47.539+31.292+47.5757L31.292+45.9173L31.6525+45.9173L31.6525+48.002Z" opacity="1" fill="#000000"/>
<path d="M28.6665+43.4509L28.9995+43.4509C29.0942+43.5484+29.2589+43.6781+29.4936+43.84C29.7283+44.0019+29.9814+44.145+30.2528+44.2695C30.5172+44.3925+30.7583+44.4858+30.976+44.5494C31.116+44.5904+31.3415+44.6434+31.6525+44.7085L31.6525+45.1305C31.0729+45.0343+30.496+44.8223+29.922+44.4943C29.5855+44.3006+29.295+44.097+29.0504+43.8835L29.0504+45.5631L28.6665+45.5631L28.6665+43.4509Z" opacity="1" fill="#000000"/>
</g>
<g opacity="1">
<path d="M40.4499+48.002C40.1883+47.9878+39.9607+47.9338+39.767+47.8397C39.5733+47.7457+39.3973+47.5623+39.2389+47.2894L39.0035+46.8822C38.8975+46.6998+38.807+46.5719+38.7321+46.4984C38.6147+46.3824+38.4804+46.3245+38.3291+46.3245C38.1524+46.3245+38.0121+46.3775+37.9081+46.4835C37.8042+46.5896+37.7523+46.7309+37.7523+46.9077C37.7523+47.1692+37.8512+47.3502+38.0492+47.4506C38.1552+47.5043+38.3022+47.534+38.4903+47.5397L38.4903+47.9278C38.2259+47.9235+38.0103+47.8747+37.8435+47.7814C37.5494+47.616+37.4023+47.3241+37.4023+46.9056C37.4023+46.5578+37.4964+46.3036+37.6844+46.1431C37.8724+45.9827+38.0817+45.9024+38.3121+45.9024C38.5553+45.9024+38.7632+45.988+38.9356+46.1591C39.036+46.258+39.1576+46.4355+39.3004+46.6914L39.4616+46.9819C39.5379+47.1205+39.6108+47.2293+39.68+47.3085C39.803+47.4499+39.9395+47.539+40.0893+47.5757L40.0893+45.9173L40.4499+45.9173L40.4499+48.002Z" opacity="1" fill="#000000"/>
<path d="M40.5326+44.5939C40.5326+44.9531+40.434+45.2136+40.2367+45.3754C40.0395+45.5373+39.7995+45.6183+39.5167+45.6183L39.5167+45.2196C39.7133+45.2026+39.8561+45.1658+39.9451+45.1093C40.1049+45.0103+40.1848+44.8315+40.1848+44.5727C40.1848+44.372+40.131+44.2108+40.0236+44.0892C39.9161+43.9676+39.7776+43.9068+39.6079+43.9068C39.3987+43.9068+39.2523+43.9708+39.1689+44.0987C39.0855+44.2267+39.0438+44.4045+39.0438+44.6321C39.0438+44.6576+39.0442+44.6834+39.0449+44.7095C39.0456+44.7357+39.0466+44.7622+39.048+44.789L38.7108+44.789C38.7151+44.7495+38.7179+44.7162+38.7193+44.6894C38.7207+44.6625+38.7215+44.6335+38.7215+44.6024C38.7215+44.4596+38.6988+44.3423+38.6536+44.2504C38.5744+44.0892+38.433+44.0086+38.2294+44.0086C38.0782+44.0086+37.9615+44.0623+37.8795+44.1698C37.7975+44.2772+37.7565+44.4024+37.7565+44.5452C37.7565+44.7997+37.8413+44.9757+38.011+45.0732C38.1043+45.127+38.2372+45.1574+38.4097+45.1644L38.4097+45.5419C38.1835+45.5419+37.9912+45.4967+37.8329+45.4062C37.5501+45.2507+37.4087+44.9771+37.4087+44.5855C37.4087+44.2758+37.4776+44.0362+37.6155+43.8665C37.7533+43.6969+37.953+43.612+38.2146+43.612C38.4012+43.612+38.5525+43.6622+38.6684+43.7626C38.7405+43.8248+38.7971+43.9054+38.8381+44.0044C38.8819+43.8446+38.9664+43.7198+39.0915+43.6301C39.2166+43.5403+39.3697+43.4954+39.5507+43.4954C39.8405+43.4954+40.0766+43.5908+40.259+43.7817C40.4414+43.9726+40.5326+44.2433+40.5326+44.5939Z" opacity="1" fill="#000000"/>
</g>
<g opacity="1">
<path d="M48.678+48.002C48.4164+47.9878+48.1888+47.9338+47.9951+47.8397C47.8014+47.7457+47.6254+47.5623+47.467+47.2894L47.2316+46.8822C47.1256+46.6998+47.0351+46.5719+46.9601+46.4984C46.8428+46.3824+46.7085+46.3245+46.5572+46.3245C46.3805+46.3245+46.2402+46.3775+46.1362+46.4835C46.0323+46.5896+45.9804+46.7309+45.9804+46.9077C45.9804+47.1692+46.0793+47.3502+46.2773+47.4506C46.3833+47.5043+46.5303+47.534+46.7184+47.5397L46.7184+47.9278C46.454+47.9235+46.2384+47.8747+46.0716+47.7814C45.7775+47.616+45.6304+47.3241+45.6304+46.9056C45.6304+46.5578+45.7245+46.3036+45.9125+46.1431C46.1005+45.9827+46.3098+45.9024+46.5402+45.9024C46.7834+45.9024+46.9913+45.988+47.1637+46.1591C47.2641+46.258+47.3857+46.4355+47.5285+46.6914L47.6897+46.9819C47.766+47.1205+47.8388+47.2293+47.9081+47.3085C48.0311+47.4499+48.1676+47.539+48.3174+47.5757L48.3174+45.9173L48.678+45.9173L48.678+48.002Z" opacity="1" fill="#000000"/>
<path d="M47.9039+45.1856C48.1216+45.1602+48.2722+45.0591+48.3556+44.8824C48.398+44.7919+48.4192+44.6873+48.4192+44.5685C48.4192+44.3423+48.3471+44.1747+48.2029+44.0659C48.0587+43.957+47.8989+43.9026+47.7236+43.9026C47.5115+43.9026+47.3475+43.9673+47.2316+44.0966C47.1157+44.226+47.0577+44.3812+47.0577+44.5621C47.0577+44.6936+47.0832+44.8064+47.1341+44.9004C47.1849+44.9944+47.2556+45.0746+47.3461+45.1411L47.327+45.4719L45.6919+45.2408L45.6919+43.6629L46.061+43.6629L46.061+44.9545L46.905+45.0838C46.8513+45.0131+46.811+44.946+46.7841+44.8824C46.7375+44.7693+46.7141+44.6385+46.7141+44.49C46.7141+44.2115+46.8039+43.9754+46.9835+43.7817C47.163+43.588+47.3907+43.4911+47.6664+43.4911C47.9534+43.4911+48.2064+43.5799+48.4256+43.7573C48.6447+43.9347+48.7543+44.2179+48.7543+44.6067C48.7543+44.8541+48.6847+45.0729+48.5454+45.263C48.4061+45.4532+48.1923+45.5596+47.9039+45.5822L47.9039+45.1856Z" opacity="1" fill="#000000"/>
</g>
<g opacity="1">
<path d="M53.5514+47.8175L53.5514+47.2131L56.1854+46.3181L53.5514+45.4295L53.5514+44.8315L56.6668+44.8315L56.6668+45.2323L54.8281+45.2323C54.7645+45.2323+54.6591+45.2309+54.5121+45.228C54.3651+45.2252+54.2074+45.2238+54.0392+45.2238L56.6668+46.1124L56.6668+46.5302L54.0392+47.4251L54.1346+47.4251C54.211+47.4251+54.3272+47.4234+54.4835+47.4198C54.6397+47.4163+54.7546+47.4145+54.8281+47.4145L56.6668+47.4145L56.6668+47.8175L53.5514+47.8175Z" opacity="1" fill="#000000"/>
<path d="M53.5514+44.0934L53.5514+43.6672L56.6668+43.6672L56.6668+44.0934L53.5514+44.0934Z" opacity="1" fill="#000000"/>
<path d="M55.6616+42.7065C55.8383+42.6966+55.9818+42.6549+56.0921+42.5813C56.2985+42.4414+56.4017+42.1947+56.4017+41.8412C56.4017+41.6829+56.3791+41.5386+56.3338+41.4086C56.2462+41.1569+56.0892+41.0311+55.863+41.0311C55.6934+41.0311+55.5725+41.0841+55.5004+41.1901C55.4297+41.2976+55.3682+41.4658+55.3159+41.6949L55.2204+42.1169C55.1582+42.3926+55.0897+42.5877+55.0147+42.7022C54.8847+42.9002+54.6902+42.9991+54.4315+42.9991C54.1516+42.9991+53.9218+42.9023+53.7423+42.7086C53.5627+42.5149+53.4729+42.2406+53.4729+41.8857C53.4729+41.5591+53.5518+41.2817+53.7094+41.0533C53.867+40.825+54.1191+40.7108+54.4654+40.7108L54.4654+41.1074C54.2986+41.1286+54.1707+41.1739+54.0816+41.2431C53.919+41.3718+53.8377+41.5902+53.8377+41.8985C53.8377+42.1473+53.89+42.3261+53.9946+42.435C54.0993+42.5439+54.2209+42.5983+54.3594+42.5983C54.5121+42.5983+54.6238+42.5347+54.6945+42.4074C54.7397+42.324+54.7963+42.1353+54.8642+41.8412L54.9638+41.4043C55.0119+41.1937+55.0776+41.0311+55.1611+40.9166C55.3067+40.7186+55.518+40.6196+55.7952+40.6196C56.1401+40.6196+56.3869+40.7451+56.5353+40.9961C56.6838+41.247+56.758+41.5386+56.758+41.8709C56.758+42.2583+56.659+42.5616+56.4611+42.7807C56.2646+42.9998+55.998+43.1073+55.6616+43.103L55.6616+42.7065Z" opacity="1" fill="#000000"/>
<path d="M53.4666+38.7407C53.4666+38.1907+53.6433+37.7835+53.9968+37.5191C54.2725+37.3127+54.6252+37.2095+55.055+37.2095C55.5202+37.2095+55.9069+37.3275+56.2151+37.5636C56.577+37.8408+56.758+38.2359+56.758+38.7491C56.758+39.2284+56.5996+39.6052+56.2829+39.8795C55.9775+40.1241+55.5916+40.2464+55.125+40.2464C54.7037+40.2464+54.3432+40.1418+54.0434+39.9325C53.6589+39.6639+53.4666+39.2666+53.4666+38.7407ZM56.3805+38.6982C56.3805+38.3264+56.2472+38.0574+55.9807+37.8913C55.7142+37.7252+55.4078+37.6421+55.0614+37.6421C54.6952+37.6421+54.4004+37.7379+54.177+37.9295C53.9536+38.121+53.8419+38.383+53.8419+38.7152C53.8419+39.0376+53.9526+39.3005+54.1738+39.5041C54.3951+39.7077+54.7214+39.8095+55.1526+39.8095C55.4975+39.8095+55.7884+39.7222+56.0253+39.5476C56.2621+39.373+56.3805+39.0899+56.3805+38.6982Z" opacity="1" fill="#000000"/>
</g>
<g opacity="1">
<path d="M61.5032+46.4941C61.5032+46.0997+61.6071+45.7936+61.8149+45.5758C62.0228+45.3581+62.2589+45.2372+62.5233+45.2132L62.5233+45.6246C62.3225+45.6713+62.1635+45.7642+62.0461+45.9035C61.9288+46.0428+61.8701+46.2382+61.8701+46.4899C61.8701+46.7967+61.9779+47.0445+62.1935+47.2332C62.4091+47.422+62.7396+47.5163+63.185+47.5163C63.5497+47.5163+63.8456+47.4312+64.0725+47.2608C64.2994+47.0904+64.4129+46.8363+64.4129+46.4984C64.4129+46.1873+64.2934+45.9505+64.0545+45.7879C63.9286+45.7017+63.7632+45.6373+63.5582+45.5949L63.5582+45.1835C63.8862+45.2203+64.1612+45.3419+64.3832+45.5483C64.6504+45.7957+64.784+46.1294+64.784+46.5493C64.784+46.9112+64.6744+47.2152+64.4553+47.4612C64.1654+47.785+63.718+47.9468+63.1128+47.9468C62.6533+47.9468+62.2766+47.8253+61.9825+47.5821C61.663+47.3191+61.5032+46.9565+61.5032+46.4941Z" opacity="1" fill="#000000"/>
<path d="M61.588+44.63L61.588+42.3587L61.9698+42.3587L61.9698+44.2186L62.9156+44.2186L62.9156+42.4986L63.2761+42.4986L63.2761+44.2186L64.3323+44.2186L64.3323+42.3269L64.7034+42.3269L64.7034+44.63L61.588+44.63Z" opacity="1" fill="#000000"/>
<path d="M61.6665+40.9293C61.6665+40.5362+61.8284+40.2521+62.1521+40.0767C62.4024+39.941+62.7452+39.8731+63.1807+39.8731C63.5936+39.8731+63.935+39.9346+64.205+40.0576C64.5924+40.2358+64.7861+40.527+64.7861+40.9314C64.7861+41.2962+64.6278+41.5676+64.3111+41.7458C64.0467+41.8942+63.6918+41.9684+63.2465+41.9684C62.9015+41.9684+62.6053+41.9239+62.3579+41.8348C61.8969+41.668+61.6665+41.3662+61.6665+40.9293ZM64.4383+40.9335C64.4383+40.7356+64.3507+40.5779+64.1753+40.4606C64+40.3432+63.6734+40.2846+63.1956+40.2846C62.8506+40.2846+62.5668+40.327+62.3441+40.4118C62.1214+40.4966+62.0101+40.6614+62.0101+40.906C62.0101+41.1308+62.1157+41.2951+62.3271+41.399C62.5385+41.5029+62.8499+41.5549+63.2613+41.5549C63.5709+41.5549+63.8198+41.5217+64.0078+41.4552C64.2948+41.3534+64.4383+41.1795+64.4383+40.9335Z" opacity="1" fill="#000000"/>
</g>
<g opacity="1">
<path d="M72.7465+47.6012C72.9643+47.5757+73.1148+47.4746+73.1983+47.2979C73.2407+47.2074+73.2619+47.1028+73.2619+46.984C73.2619+46.7578+73.1898+46.5903+73.0456+46.4814C72.9014+46.3725+72.7416+46.3181+72.5663+46.3181C72.3542+46.3181+72.1902+46.3828+72.0743+46.5122C71.9583+46.6415+71.9004+46.7967+71.9004+46.9777C71.9004+47.1091+71.9258+47.2219+71.9767+47.3159C72.0276+47.4099+72.0983+47.4902+72.1888+47.5566L72.1697+47.8875L70.5346+47.6563L70.5346+46.0785L70.9036+46.0785L70.9036+47.37L71.7477+47.4994C71.6939+47.4287+71.6536+47.3615+71.6268+47.2979C71.5801+47.1848+71.5568+47.054+71.5568+46.9056C71.5568+46.627+71.6466+46.3909+71.8261+46.1972C72.0057+46.0035+72.2333+45.9067+72.509+45.9067C72.796+45.9067+73.0491+45.9954+73.2682+46.1728C73.4874+46.3503+73.597+46.6334+73.597+47.0222C73.597+47.2696+73.5273+47.4884+73.3881+47.6786C73.2488+47.8687+73.035+47.9751+72.7465+47.9977L72.7465+47.6012Z" opacity="1" fill="#000000"/>
</g>
<g opacity="1">
<path d="M79.1837+47.722L78.891+47.722C78.8641+47.4463+78.8193+47.2541+78.7563+47.1452C78.6934+47.0363+78.5446+46.955+78.3099+46.9013L78.3099+46.6002L81.3341+46.6002L81.3341+47.0074L79.1837+47.0074L79.1837+47.722Z" opacity="1" fill="#000000"/>
<path d="M81.3341+45.5865C81.0726+45.5723+80.8449+45.5182+80.6512+45.4242C80.4575+45.3302+80.2815+45.1467+80.1232+44.8739L79.8878+44.4667C79.7817+44.2843+79.6912+44.1564+79.6163+44.0828C79.499+43.9669+79.3646+43.9089+79.2134+43.9089C79.0366+43.9089+78.8963+43.962+78.7924+44.068C78.6885+44.174+78.6365+44.3154+78.6365+44.4921C78.6365+44.7537+78.7355+44.9347+78.9334+45.0351C79.0395+45.0888+79.1865+45.1185+79.3745+45.1241L79.3745+45.5122C79.1102+45.508+78.8945+45.4592+78.7277+45.3659C78.4336+45.2005+78.2866+44.9085+78.2866+44.49C78.2866+44.1422+78.3806+43.8881+78.5687+43.7276C78.7567+43.5671+78.9659+43.4869+79.1964+43.4869C79.4396+43.4869+79.6474+43.5724+79.8199+43.7435C79.9203+43.8425+80.0419+44.0199+80.1847+44.2758L80.3458+44.5664C80.4222+44.7049+80.495+44.8138+80.5643+44.893C80.6873+45.0343+80.8237+45.1234+80.9736+45.1602L80.9736+43.5018L81.3341+43.5018L81.3341+45.5865Z" opacity="1" fill="#000000"/>
</g>
<g opacity="1">
<path d="M87.2327+47.722L86.9401+47.722C86.9132+47.4463+86.8683+47.2541+86.8054+47.1452C86.7425+47.0363+86.5937+46.955+86.359+46.9013L86.359+46.6002L89.3832+46.6002L89.3832+47.0074L87.2327+47.0074L87.2327+47.722Z" opacity="1" fill="#000000"/>
<path d="M86.3335+44.4518C86.3335+44.1125+86.4216+43.8761+86.5976+43.7425C86.7736+43.6088+86.9549+43.542+87.1416+43.542L87.1416+43.9195C87.0214+43.9422+86.9274+43.9782+86.8595+44.0277C86.7322+44.1196+86.6686+44.2589+86.6686+44.4455C86.6686+44.659+86.7672+44.8286+86.9645+44.9545C87.1617+45.0803+87.4441+45.1503+87.8117+45.1644C87.6831+45.0768+87.5869+44.9665+87.5233+44.8336C87.4667+44.712+87.4385+44.5763+87.4385+44.4264C87.4385+44.1719+87.5198+43.9499+87.6823+43.7605C87.8449+43.571+88.0874+43.4763+88.4098+43.4763C88.6855+43.4763+88.9297+43.5661+89.1425+43.7456C89.3553+43.9252+89.4617+44.1811+89.4617+44.5133C89.4617+44.7975+89.3539+45.0428+89.1382+45.2493C88.9226+45.4557+88.5596+45.5589+88.0492+45.5589C87.6717+45.5589+87.3515+45.5129+87.0885+45.421C86.5852+45.2443+86.3335+44.9212+86.3335+44.4518ZM89.1223+44.4794C89.1223+44.2787+89.0548+44.1284+88.9198+44.0288C88.7848+43.9291+88.6254+43.8792+88.4416+43.8792C88.2861+43.8792+88.138+43.9238+87.9973+44.0129C87.8566+44.1019+87.7863+44.2638+87.7863+44.4985C87.7863+44.6625+87.8407+44.8064+87.9496+44.9301C88.0584+45.0538+88.2224+45.1156+88.4416+45.1156C88.6339+45.1156+88.7954+45.0594+88.9262+44.947C89.0569+44.8346+89.1223+44.6788+89.1223+44.4794Z" opacity="1" fill="#000000"/>
</g>
<g opacity="1">
<path d="M97.5149+48.002C97.2533+47.9878+97.0257+47.9338+96.832+47.8397C96.6383+47.7457+96.4623+47.5623+96.3039+47.2894L96.0685+46.8822C95.9625+46.6998+95.872+46.5719+95.7971+46.4984C95.6797+46.3824+95.5454+46.3245+95.3941+46.3245C95.2174+46.3245+95.0771+46.3775+94.9732+46.4835C94.8692+46.5896+94.8173+46.7309+94.8173+46.9077C94.8173+47.1692+94.9162+47.3502+95.1142+47.4506C95.2202+47.5043+95.3673+47.534+95.5553+47.5397L95.5553+47.9278C95.2909+47.9235+95.0753+47.8747+94.9085+47.7814C94.6144+47.616+94.4674+47.3241+94.4674+46.9056C94.4674+46.5578+94.5614+46.3036+94.7494+46.1431C94.9375+45.9827+95.1467+45.9024+95.3772+45.9024C95.6203+45.9024+95.8282+45.988+96.0007+46.1591C96.101+46.258+96.2226+46.4355+96.3654+46.6914L96.5266+46.9819C96.603+47.1205+96.6758+47.2293+96.745+47.3085C96.868+47.4499+97.0045+47.539+97.1543+47.5757L97.1543+45.9173L97.5149+45.9173L97.5149+48.002Z" opacity="1" fill="#000000"/>
<path d="M94.478+44.5473C94.478+44.1542+94.6398+43.8701+94.9636+43.6947C95.2139+43.559+95.5567+43.4911+95.9922+43.4911C96.405+43.4911+96.7465+43.5526+97.0165+43.6757C97.4039+43.8538+97.5976+44.145+97.5976+44.5494C97.5976+44.9142+97.4392+45.1856+97.1225+45.3638C96.8581+45.5122+96.5033+45.5865+96.0579+45.5864C95.7129+45.5864+95.4167+45.5419+95.1693+45.4528C94.7084+45.286+94.478+44.9842+94.478+44.5473ZM97.2498+44.5515C97.2498+44.3536+97.1621+44.1959+96.9868+44.0786C96.8115+43.9612+96.4849+43.9026+96.007+43.9026C95.662+43.9026+95.3782+43.945+95.1555+44.0298C94.9329+44.1146+94.8215+44.2794+94.8215+44.524C94.8215+44.7488+94.9272+44.9131+95.1386+45.017C95.3499+45.1209+95.6613+45.1729+96.0728+45.1729C96.3824+45.1729+96.6312+45.1397+96.8193+45.0732C97.1063+44.9714+97.2498+44.7975+97.2498+44.5515Z" opacity="1" fill="#000000"/>
</g>
<g opacity="1">
<path d="M116.473+26.4826C116.766+26.4826+117.019+26.5392+117.232+26.6523C117.542+26.8148+117.731+27.0997+117.801+27.5069L117.383+27.5069C117.332+27.2793+117.227+27.1135+117.067+27.0096C116.907+26.9057+116.706+26.8537+116.463+26.8537C116.174+26.8537+115.931+26.9619+115.734+27.1782C115.537+27.3945+115.438+27.7169+115.438+28.1453C115.438+28.5157+115.52+28.8172+115.682+29.0498C115.845+29.2823+116.11+29.3986+116.477+29.3986C116.759+29.3986+116.992+29.317+117.176+29.1537C117.361+28.9904+117.455+28.7264+117.459+28.3616L116.484+28.3616L116.484+28.0117L117.852+28.0117L117.852+29.6786L117.58+29.6786L117.478+29.2777C117.336+29.4347+117.209+29.5435+117.099+29.6043C116.914+29.709+116.678+29.7613+116.393+29.7613C116.024+29.7613+115.706+29.6418+115.44+29.4029C115.151+29.1031+115.006+28.6917+115.006+28.1686C115.006+27.6469+115.147+27.2319+115.43+26.9237C115.698+26.6296+116.046+26.4826+116.473+26.4826Z" opacity="1" fill="#000000"/>
<path d="M118.505+26.5632L119.003+26.5632L120.577+29.0869L120.577+26.5632L120.978+26.5632L120.978+29.6786L120.505+29.6786L118.908+27.157L118.908+29.6786L118.505+29.6786L118.505+26.5632Z" opacity="1" fill="#000000"/>
<path d="M122.838+29.318C122.98+29.318+123.098+29.3032+123.19+29.2735C123.354+29.2184+123.488+29.1123+123.593+28.9554C123.676+28.8296+123.736+28.6684+123.773+28.4719C123.794+28.3545+123.805+28.2456+123.805+28.1453C123.805+27.7593+123.728+27.4596+123.574+27.2461C123.421+27.0326+123.174+26.9258+122.833+26.9258L122.085+26.9258L122.085+29.318L122.838+29.318ZM121.661+26.5632L122.922+26.5632C123.351+26.5632+123.683+26.7152+123.919+27.0191C124.13+27.2934+124.235+27.6448+124.235+28.0732C124.235+28.404+124.173+28.703+124.048+28.9702C123.829+29.4425+123.453+29.6786+122.918+29.6786L121.661+29.6786L121.661+26.5632Z" opacity="1" fill="#000000"/>
</g>
<path stroke="#000000" stroke-width="1" d="M127.128+22.3734L138.928+22.3734" fill="none" stroke-linecap="butt" opacity="1" stroke-linejoin="miter"/>
<path stroke="#000000" stroke-width="1" d="M5.92488+0L5.92488+11.7999" fill="none" stroke-linecap="butt" opacity="1" stroke-linejoin="miter"/>
<path stroke="#000000" stroke-width="1" d="M5.92488+50.91L5.92488+62.7099" fill="none" stroke-linecap="butt" opacity="1" stroke-linejoin="miter"/>
<path stroke="#000000" stroke-width="1" d="M14.1364+50.91L14.1364+62.7099" fill="none" stroke-linecap="butt" opacity="1" stroke-linejoin="miter"/>
<path stroke="#000000" stroke-width="1" d="M14.1364+0L14.1364+11.7999" fill="none" stroke-linecap="butt" opacity="1" stroke-linejoin="miter"/>
<path stroke="#000000" stroke-width="1" d="M127.128+28.1887L138.928+28.1887" fill="none" stroke-linecap="butt" opacity="1" stroke-linejoin="miter"/>
<g opacity="1">
<path d="M119.671+34.5831C119.697+34.8008+119.798+34.9514+119.975+35.0348C120.065+35.0772+120.17+35.0984+120.288+35.0984C120.515+35.0984+120.682+35.0263+120.791+34.8821C120.9+34.7379+120.954+34.5781+120.954+34.4028C120.954+34.1907+120.89+34.0267+120.76+33.9108C120.631+33.7949+120.476+33.7369+120.295+33.7369C120.163+33.7369+120.05+33.7623+119.956+33.8132C119.862+33.8641+119.782+33.9348+119.716+34.0253L119.385+34.0062L119.616+32.3711L121.194+32.3711L121.194+32.7401L119.902+32.7401L119.773+33.5842C119.844+33.5305+119.911+33.4902+119.975+33.4633C120.088+33.4167+120.218+33.3933+120.367+33.3933C120.645+33.3933+120.881+33.4831+121.075+33.6627C121.269+33.8422+121.366+34.0698+121.366+34.3455C121.366+34.6325+121.277+34.8856+121.1+35.1048C120.922+35.3239+120.639+35.4335+120.25+35.4335C120.003+35.4335+119.784+35.3639+119.594+35.2246C119.404+35.0853+119.297+34.8715+119.275+34.5831L119.671+34.5831Z" opacity="1" fill="#000000"/>
<path d="M122.127+32.2418L123.022+34.8948L123.906+32.2418L124.379+32.2418L123.243+35.3571L122.795+35.3571L121.661+32.2418L122.127+32.2418Z" opacity="1" fill="#000000"/>
</g>
<g opacity="1">
<path d="M110.787+37.9203L111.214+37.9203L111.214+39.2076L112.834+39.2076L112.834+37.9203L113.26+37.9203L113.26+41.0357L112.834+41.0357L112.834+39.5788L111.214+39.5788L111.214+41.0357L110.787+41.0357L110.787+37.9203Z" opacity="1" fill="#000000"/>
<path d="M114.371+37.9203L114.371+39.846C114.371+40.0722+114.414+40.2602+114.499+40.4101C114.625+40.6363+114.837+40.7494+115.135+40.7494C115.493+40.7494+115.736+40.6271+115.864+40.3825C115.934+40.2496+115.968+40.0708+115.968+39.846L115.968+37.9203L116.397+37.9203L116.397+39.6699C116.397+40.0531+116.345+40.3479+116.242+40.5543C116.053+40.9304+115.695+41.1184+115.169+41.1184C114.643+41.1184+114.286+40.9304+114.098+40.5543C113.995+40.3479+113.943+40.0531+113.943+39.6699L113.943+37.9203L114.371+37.9203Z" opacity="1" fill="#000000"/>
<path d="M118.221+39.2373C118.399+39.2373+118.537+39.2126+118.636+39.1631C118.792+39.0853+118.87+38.9454+118.87+38.7432C118.87+38.5396+118.787+38.4024+118.621+38.3317C118.528+38.2922+118.39+38.2724+118.206+38.2724L117.453+38.2724L117.453+39.2373L118.221+39.2373ZM118.363+40.6752C118.621+40.6752+118.806+40.6002+118.916+40.4504C118.986+40.3557+119.02+40.2411+119.02+40.1068C119.02+39.8806+118.919+39.7265+118.717+39.6445C118.609+39.6007+118.467+39.5788+118.291+39.5788L117.453+39.5788L117.453+40.6752L118.363+40.6752ZM117.039+37.9203L118.378+37.9203C118.742+37.9203+119.002+38.0292+119.156+38.2469C119.246+38.3756+119.292+38.524+119.292+38.6923C119.292+38.8888+119.236+39.05+119.124+39.1758C119.066+39.2423+118.983+39.3031+118.874+39.3582C119.034+39.419+119.153+39.4876+119.232+39.5639C119.372+39.6996+119.442+39.887+119.442+40.1259C119.442+40.3267+119.379+40.5083+119.253+40.6709C119.065+40.9141+118.766+41.0357+118.356+41.0357L117.039+41.0357L117.039+37.9203Z" opacity="1" fill="#000000"/>
<path d="M121.887+38.0497L121.887+38.3826C121.79+38.4774+121.66+38.6421+121.498+38.8768C121.336+39.1115+121.193+39.3646+121.069+39.636C120.946+39.9004+120.852+40.1415+120.789+40.3592C120.748+40.4992+120.695+40.7247+120.63+41.0357L120.208+41.0357C120.304+40.456+120.516+39.8792+120.844+39.3052C121.038+38.9687+121.241+38.6781+121.455+38.4335L119.775+38.4335L119.775+38.0497L121.887+38.0497Z" opacity="1" fill="#000000"/>
<path d="M122.568+40.2616C122.594+40.4794+122.695+40.6299+122.871+40.7134C122.962+40.7558+123.067+40.777+123.185+40.777C123.412+40.777+123.579+40.7049+123.688+40.5607C123.797+40.4164+123.851+40.2567+123.851+40.0814C123.851+39.8693+123.787+39.7053+123.657+39.5894C123.528+39.4734+123.373+39.4155+123.192+39.4155C123.06+39.4155+122.947+39.4409+122.853+39.4918C122.759+39.5427+122.679+39.6134+122.613+39.7039L122.282+39.6848L122.513+38.0497L124.091+38.0497L124.091+38.4187L122.799+38.4187L122.67+39.2628C122.741+39.209+122.808+39.1687+122.871+39.1419C122.985+39.0952+123.115+39.0719+123.264+39.0719C123.542+39.0719+123.778+39.1617+123.972+39.3412C124.166+39.5208+124.263+39.7484+124.263+40.0241C124.263+40.3111+124.174+40.5642+123.997+40.7833C123.819+41.0025+123.536+41.1121+123.147+41.1121C122.9+41.1121+122.681+41.0424+122.491+40.9032C122.301+40.7639+122.194+40.5501+122.172+40.2616L122.568+40.2616Z" opacity="1" fill="#000000"/>
</g>
<path stroke="#000000" stroke-width="1" d="M127.128+34.004L138.928+34.004" fill="none" stroke-linecap="butt" opacity="1" stroke-linejoin="miter"/>
<path stroke="#000000" stroke-width="1" d="M127.128+39.8194L138.928+39.8194" fill="none" stroke-linecap="butt" opacity="1" stroke-linejoin="miter"/>
<path stroke="#000000" stroke-width="1" d="M22.3478+0L22.3478+11.7999" fill="none" stroke-linecap="butt" opacity="1" stroke-linejoin="miter"/>
<path stroke="#000000" stroke-width="1" d="M30.5593+0L30.5593+11.7999" fill="none" stroke-linecap="butt" opacity="1" stroke-linejoin="miter"/>
<path stroke="#000000" stroke-width="1" d="M38.7708+0L38.7708+11.7999" fill="none" stroke-linecap="butt" opacity="1" stroke-linejoin="miter"/>
<path stroke="#000000" stroke-width="1" d="M46.9823+0L46.9823+11.7999" fill="none" stroke-linecap="butt" opacity="1" stroke-linejoin="miter"/>
<path stroke="#000000" stroke-width="1" d="M55.1938+0L55.1938+11.7999" fill="none" stroke-linecap="butt" opacity="1" stroke-linejoin="miter"/>
<path stroke="#000000" stroke-width="1" d="M63.4053+0L63.4053+11.7999" fill="none" stroke-linecap="butt" opacity="1" stroke-linejoin="miter"/>
<path stroke="#000000" stroke-width="1" d="M71.6167+0L71.6167+11.7999" fill="none" stroke-linecap="butt" opacity="1" stroke-linejoin="miter"/>
<path stroke="#000000" stroke-width="1" d="M79.8282+0L79.8282+11.7999" fill="none" stroke-linecap="butt" opacity="1" stroke-linejoin="miter"/>
<path stroke="#000000" stroke-width="1" d="M88.0397+0L88.0397+11.7999" fill="none" stroke-linecap="butt" opacity="1" stroke-linejoin="miter"/>
<path stroke="#000000" stroke-width="1" d="M96.2512+0L96.2512+11.7999" fill="none" stroke-linecap="butt" opacity="1" stroke-linejoin="miter"/>
<path stroke="#000000" stroke-width="1" d="M104.463+0L104.463+11.7999" fill="none" stroke-linecap="butt" opacity="1" stroke-linejoin="miter"/>
<path stroke="#000000" stroke-width="1" d="M22.3478+50.91L22.3478+62.7099" fill="none" stroke-linecap="butt" opacity="1" stroke-linejoin="miter"/>
<path stroke="#000000" stroke-width="1" d="M30.5593+50.91L30.5593+62.7099" fill="none" stroke-linecap="butt" opacity="1" stroke-linejoin="miter"/>
<path stroke="#000000" stroke-width="1" d="M38.7708+50.91L38.7708+62.7099" fill="none" stroke-linecap="butt" opacity="1" stroke-linejoin="miter"/>
<path stroke="#000000" stroke-width="1" d="M46.9823+50.91L46.9823+62.7099" fill="none" stroke-linecap="butt" opacity="1" stroke-linejoin="miter"/>
<path stroke="#000000" stroke-width="1" d="M55.1938+50.91L55.1938+62.7099" fill="none" stroke-linecap="butt" opacity="1" stroke-linejoin="miter"/>
<path stroke="#000000" stroke-width="1" d="M63.4053+50.91L63.4053+62.7099" fill="none" stroke-linecap="butt" opacity="1" stroke-linejoin="miter"/>
<path stroke="#000000" stroke-width="1" d="M71.6167+50.91L71.6167+62.7099" fill="none" stroke-linecap="butt" opacity="1" stroke-linejoin="miter"/>
<path stroke="#000000" stroke-width="1" d="M79.8282+50.91L79.8282+62.7099" fill="none" stroke-linecap="butt" opacity="1" stroke-linejoin="miter"/>
<path stroke="#000000" stroke-width="1" d="M88.0397+50.91L88.0397+62.7099" fill="none" stroke-linecap="butt" opacity="1" stroke-linejoin="miter"/>
<path stroke="#000000" stroke-width="1" d="M96.2512+50.91L96.2512+62.7099" fill="none" stroke-linecap="butt" opacity="1" stroke-linejoin="miter"/>
</g>
</svg>
