<?xml version="1.0" encoding="UTF-8" standalone="no"?> <!-- Created with Vectornator for iOS (http://vectornator.io/) --><!DOCTYPE svg PUBLIC "-//W3C//DTD SVG 1.1//EN" "http://www.w3.org/Graphics/SVG/1.1/DTD/svg11.dtd">
<svg height="10mm" style="fill-rule:nonzero;clip-rule:evenodd;stroke-linecap:round;stroke-linejoin:round;" xmlns:xlink="http://www.w3.org/1999/xlink" xmlns="http://www.w3.org/2000/svg" xml:space="preserve" width="20mm" xmlns:vectornator="http://vectornator.io" version="1.1" viewBox="0 0 80 40">
<metadata>
<vectornator:setting key="DimensionsVisible" value="1"/>
<vectornator:setting key="PencilOnly" value="0"/>
<vectornator:setting key="SnapToPoints" value="0"/>
<vectornator:setting key="OutlineMode" value="0"/>
<vectornator:setting key="CMYKEnabledKey" value="0"/>
<vectornator:setting key="RulersVisible" value="1"/>
<vectornator:setting key="SnapToEdges" value="0"/>
<vectornator:setting key="GuidesVisible" value="1"/>
<vectornator:setting key="DisplayWhiteBackground" value="0"/>
<vectornator:setting key="doHistoryDisabled" value="0"/>
<vectornator:setting key="SnapToGuides" value="1"/>
<vectornator:setting key="TimeLapseWatermarkDisabled" value="0"/>
<vectornator:setting key="Units" value="Points"/>
<vectornator:setting key="DynamicGuides" value="0"/>
<vectornator:setting key="IsolateActiveLayer" value="0"/>
<vectornator:setting key="SnapToGrid" value="0"/>
</metadata>
<defs/>
<g id="Layer 1" vectornator:layerName="Layer 1">
<path stroke="#000000" stroke-width="1" d="M1+1L67.7841+1L67.7841+1L67.7841+39L67.7841+39L1+39L1+39L1+1L1+1Z" fill="none" stroke-linecap="butt" opacity="1" stroke-linejoin="miter"/>
<g opacity="1">
<path d="M6.6946+17.3269L7.29902+17.3269L8.19397+19.9609L9.08257+17.3269L9.68062+17.3269L9.68062+20.4423L9.2798+20.4423L9.2798+18.6036C9.2798+18.54+9.28121+18.4347+9.28404+18.2876C9.28687+18.1406+9.28828+17.9829+9.28828+17.8147L8.39969+20.4423L7.9819+20.4423L7.08694+17.8147L7.08694+17.9101C7.08694+17.9865+7.08871+18.1028+7.09224+18.259C7.09578+18.4152+7.09755+18.5301+7.09755+18.6036L7.09755+20.4423L6.6946+20.4423L6.6946+17.3269Z" opacity="1" fill="#000000"/>
<path d="M10.5289+17.3269L11.1164+19.8612L11.8205+17.3269L12.2785+17.3269L12.9826+19.8612L13.5701+17.3269L14.0324+17.3269L13.2138+20.4423L12.7706+20.4423L12.0516+17.8592L11.3284+20.4423L10.8852+20.4423L10.0708+17.3269L10.5289+17.3269Z" opacity="1" fill="#000000"/>
<path d="M15.2667+17.4054C15.6597+17.4054+15.9439+17.5673+16.1192+17.891C16.255+18.1413+16.3228+18.4841+16.3228+18.9196C16.3228+19.3324+16.2613+19.6739+16.1383+19.9439C15.9602+20.3313+15.6689+20.525+15.2646+20.525C14.8998+20.525+14.6283+20.3667+14.4502+20.05C14.3017+19.7856+14.2275+19.4307+14.2275+18.9854C14.2275+18.6404+14.272+18.3442+14.3611+18.0968C14.528+17.6358+14.8298+17.4054+15.2667+17.4054ZM15.2624+20.1772C15.4604+20.1772+15.618+20.0896+15.7354+19.9142C15.8527+19.7389+15.9114+19.4123+15.9114+18.9345C15.9114+18.5895+15.869+18.3057+15.7841+18.083C15.6993+17.8603+15.5346+17.749+15.29+17.749C15.0652+17.749+14.9009+17.8546+14.7969+18.066C14.693+18.2774+14.6411+18.5888+14.6411+19.0002C14.6411+19.3098+14.6743+19.5587+14.7407+19.7467C14.8425+20.0337+15.0164+20.1772+15.2624+20.1772Z" opacity="1" fill="#000000"/>
<path d="M17.0439+19.6682C17.0693+19.886+17.1704+20.0365+17.3471+20.12C17.4376+20.1624+17.5422+20.1836+17.661+20.1836C17.8872+20.1836+18.0548+20.1115+18.1636+19.9673C18.2725+19.823+18.3269+19.6633+18.3269+19.488C18.3269+19.2759+18.2622+19.1119+18.1329+18.996C18.0035+18.88+17.8483+18.8221+17.6674+18.8221C17.5359+18.8221+17.4231+18.8475+17.3291+18.8984C17.2351+18.9493+17.1549+19.02+17.0884+19.1105L16.7576+19.0914L16.9887+17.4563L18.5666+17.4563L18.5666+17.8253L17.275+17.8253L17.1457+18.6694C17.2164+18.6156+17.2835+18.5753+17.3471+18.5485C17.4602+18.5018+17.591+18.4785+17.7395+18.4785C18.018+18.4785+18.2541+18.5683+18.4478+18.7478C18.6415+18.9274+18.7384+19.155+18.7384+19.4307C18.7384+19.7177+18.6496+19.9708+18.4722+20.1899C18.2948+20.4091+18.0116+20.5187+17.6228+20.5187C17.3754+20.5187+17.1566+20.449+16.9665+20.3098C16.7763+20.1705+16.6699+19.9567+16.6473+19.6682L17.0439+19.6682Z" opacity="1" fill="#000000"/>
<path d="M20.1041+18.6778C20.2724+18.6778+20.4038+18.6308+20.4986+18.5368C20.5933+18.4428+20.6407+18.3307+20.6407+18.2007C20.6407+18.0876+20.5954+17.9836+20.5049+17.8889C20.4145+17.7942+20.2766+17.7468+20.0914+17.7468C19.9076+17.7468+19.7747+17.7942+19.6927+17.8889C19.6107+17.9836+19.5697+18.0946+19.5697+18.2219C19.5697+18.3647+19.6227+18.4764+19.7287+18.557C19.8348+18.6375+19.9599+18.6778+20.1041+18.6778ZM20.1274+20.1815C20.3042+20.1815+20.4509+20.1337+20.5675+20.0383C20.6841+19.9429+20.7425+19.8004+20.7425+19.611C20.7425+19.4145+20.6824+19.2653+20.5622+19.1635C20.442+19.0617+20.2879+19.0108+20.0999+19.0108C19.9175+19.0108+19.7687+19.0628+19.6535+19.1667C19.5382+19.2706+19.4806+19.4145+19.4806+19.5982C19.4806+19.7566+19.5333+19.8934+19.6386+20.0086C19.7439+20.1238+19.9069+20.1815+20.1274+20.1815ZM19.5845+18.8242C19.4785+18.7789+19.3958+18.7259+19.3364+18.6651C19.2247+18.552+19.1689+18.405+19.1689+18.224C19.1689+17.9978+19.2509+17.8034+19.4149+17.6408C19.5789+17.4782+19.8115+17.3969+20.1126+17.3969C20.4038+17.3969+20.6322+17.4736+20.7976+17.627C20.963+17.7804+21.0457+17.9596+21.0457+18.1646C21.0457+18.3541+20.9977+18.5075+20.9015+18.6248C20.8478+18.6913+20.7644+18.7563+20.6513+18.8199C20.7771+18.8779+20.8761+18.9444+20.9482+19.0193C21.0825+19.1607+21.1496+19.3445+21.1496+19.5707C21.1496+19.8379+21.0599+20.0645+20.8803+20.2504C20.7008+20.4363+20.447+20.5293+20.119+20.5293C19.8235+20.5293+19.5736+20.449+19.3693+20.2886C19.165+20.1281+19.0628+19.8952+19.0628+19.5898C19.0628+19.4102+19.1067+19.255+19.1943+19.1243C19.282+18.9935+19.412+18.8935+19.5845+18.8242Z" opacity="1" fill="#000000"/>
<path d="M21.4741+20.4423C21.4883+20.1807+21.5423+19.9531+21.6364+19.7594C21.7304+19.5657+21.9138+19.3897+22.1867+19.2314L22.5939+18.996C22.7763+18.8899+22.9042+18.7994+22.9777+18.7245C23.0937+18.6072+23.1516+18.4728+23.1516+18.3216C23.1516+18.1448+23.0986+18.0045+22.9926+17.9006C22.8865+17.7967+22.7452+17.7447+22.5684+17.7447C22.3069+17.7447+22.1259+17.8437+22.0255+18.0416C21.9718+18.1477+21.9421+18.2947+21.9364+18.4827L21.5483+18.4827C21.5526+18.2183+21.6014+18.0027+21.6947+17.8359C21.8601+17.5418+22.1521+17.3948+22.5706+17.3948C22.9184+17.3948+23.1725+17.4888+23.333+17.6768C23.4934+17.8649+23.5737+18.0741+23.5737+18.3046C23.5737+18.5478+23.4881+18.7556+23.3171+18.9281C23.2181+19.0285+23.0407+19.1501+22.7847+19.2929L22.4942+19.454C22.3556+19.5304+22.2468+19.6032+22.1676+19.6725C22.0262+19.7955+21.9372+19.9319+21.9004+20.0818L23.5588+20.0818L23.5588+20.4423L21.4741+20.4423Z" opacity="1" fill="#000000"/>
<path d="M26.3519+17.3269L26.3519+17.6981L25.3021+17.6981L25.3021+20.4423L24.8737+20.4423L24.8737+17.6981L23.8239+17.6981L23.8239+17.3269L26.3519+17.3269Z" opacity="1" fill="#000000"/>
<path d="M28.1863+18.7542C28.3842+18.7542+28.5408+18.7146+28.656+18.6354C28.7713+18.5563+28.8289+18.4135+28.8289+18.207C28.8289+17.9851+28.7483+17.8338+28.5871+17.7532C28.5009+17.7108+28.3857+17.6896+28.2414+17.6896L27.2108+17.6896L27.2108+18.7542L28.1863+18.7542ZM26.7887+17.3269L28.2308+17.3269C28.4684+17.3269+28.6642+17.3616+28.8183+17.4308C29.1109+17.5637+29.2573+17.809+29.2573+18.1667C29.2573+18.3534+29.2188+18.5061+29.1417+18.6248C29.0646+18.7436+28.9568+18.839+28.8183+18.9111C28.9399+18.9606+29.0314+19.0256+29.0929+19.1062C29.1544+19.1868+29.1887+19.3176+29.1958+19.4986L29.2106+19.9164C29.2149+20.0351+29.2248+20.1235+29.2403+20.1815C29.2658+20.2804+29.311+20.344+29.376+20.3723L29.376+20.4423L28.8586+20.4423C28.8444+20.4154+28.8331+20.3808+28.8246+20.3384C28.8162+20.296+28.8091+20.214+28.8034+20.0924L28.778+19.5728C28.7681+19.3692+28.6925+19.2328+28.5511+19.1635C28.4705+19.1253+28.3439+19.1062+28.1715+19.1062L27.2108+19.1062L27.2108+20.4423L26.7887+20.4423L26.7887+17.3269Z" opacity="1" fill="#000000"/>
<path d="M29.9593+18.2919L29.9593+17.9992C30.2349+17.9723+30.4272+17.9274+30.5361+17.8645C30.645+17.8016+30.7263+17.6528+30.78+17.4181L31.0811+17.4181L31.0811+20.4423L30.6739+20.4423L30.6739+18.2919L29.9593+18.2919Z" opacity="1" fill="#000000"/>
<path d="M32.3748+18.2919L32.3748+17.9992C32.6505+17.9723+32.8428+17.9274+32.9516+17.8645C33.0605+17.8016+33.1418+17.6528+33.1955+17.4181L33.4967+17.4181L33.4967+20.4423L33.0895+20.4423L33.0895+18.2919L32.3748+18.2919Z" opacity="1" fill="#000000"/>
</g>
<g opacity="1">
<path d="M52.4899+3.41101L53.3849+6.06407L54.2692+3.41101L54.7422+3.41101L53.6054+6.5264L53.158+6.5264L52.0234+3.41101L52.4899+3.41101Z" opacity="1" fill="#000000"/>
<path d="M56.4854+3.32618C57.0354+3.32618+57.4426+3.50291+57.707+3.85637C57.9134+4.13207+58.0166+4.48482+58.0166+4.91463C58.0166+5.37978+57.8985+5.76646+57.6624+6.07468C57.3853+6.43662+56.9902+6.61759+56.4769+6.61759C55.9976+6.61759+55.6209+6.45924+55.3466+6.14254C55.102+5.83715+54.9797+5.45118+54.9797+4.98461C54.9797+4.56329+55.0843+4.20276+55.2936+3.90303C55.5622+3.51847+55.9595+3.32618+56.4854+3.32618ZM56.5278+6.2401C56.8997+6.2401+57.1686+6.10684+57.3348+5.84034C57.5009+5.57383+57.584+5.26738+57.584+4.92099C57.584+4.55481+57.4882+4.26002+57.2966+4.03664C57.105+3.81325+56.8431+3.70156+56.5109+3.70156C56.1885+3.70156+55.9255+3.81219+55.7219+4.03345C55.5183+4.25472+55.4166+4.58096+55.4166+5.01218C55.4166+5.35716+55.5039+5.64805+55.6785+5.88487C55.8531+6.12169+56.1362+6.2401+56.5278+6.2401Z" opacity="1" fill="#000000"/>
<path d="M58.9773+3.41101L58.9773+5.33666C58.9773+5.56287+59.0197+5.75091+59.1045+5.90078C59.2304+6.12699+59.4424+6.2401+59.7408+6.2401C60.0985+6.2401+60.3416+6.1178+60.4703+5.87321C60.5396+5.74031+60.5742+5.56146+60.5742+5.33666L60.5742+3.41101L61.0026+3.41101L61.0026+5.16063C61.0026+5.54378+60.951+5.83857+60.8478+6.04499C60.6583+6.42107+60.3006+6.60911+59.7747+6.60911C59.2488+6.60911+58.8918+6.42107+58.7037+6.04499C58.6005+5.83857+58.5489+5.54378+58.5489+5.16063L58.5489+3.41101L58.9773+3.41101Z" opacity="1" fill="#000000"/>
<path d="M63.9229+3.41101L63.9229+3.78215L62.8731+3.78215L62.8731+6.5264L62.4447+6.5264L62.4447+3.78215L61.395+3.78215L61.395+3.41101L63.9229+3.41101Z" opacity="1" fill="#000000"/>
</g>
<g opacity="1">
<path d="M56.004+9.16958C56.2967+9.16958+56.5497+9.22613+56.7632+9.33924C57.0729+9.50183+57.2623+9.78672+57.3316+10.1939L56.9138+10.1939C56.8629+9.96628+56.7576+9.8005+56.5978+9.69659C56.438+9.59267+56.2366+9.54071+55.9934+9.54071C55.705+9.54071+55.4621+9.64887+55.2649+9.86519C55.0677+10.0815+54.9691+10.4039+54.9691+10.8322C54.9691+11.2027+55.0504+11.5042+55.213+11.7367C55.3756+11.9693+55.6406+12.0856+56.0082+12.0856C56.2896+12.0856+56.5225+12.004+56.707+11.8407C56.8915+11.6774+56.9859+11.4133+56.9902+11.0486L56.0146+11.0486L56.0146+10.6986L57.3825+10.6986L57.3825+12.3656L57.111+12.3656L57.0092+11.9647C56.8664+12.1217+56.7399+12.2305+56.6296+12.2913C56.4444+12.396+56.209+12.4483+55.9234+12.4483C55.5544+12.4483+55.237+12.3288+54.9712+12.0899C54.6814+11.7901+54.5364+11.3787+54.5364+10.8556C54.5364+10.3339+54.6778+9.91891+54.9606+9.6107C55.2292+9.31662+55.577+9.16958+56.004+9.16958Z" opacity="1" fill="#000000"/>
<path d="M58.0357+9.25017L58.5341+9.25017L60.1077+11.7739L60.1077+9.25017L60.5085+9.25017L60.5085+12.3656L60.0356+12.3656L58.4386+9.84398L58.4386+12.3656L58.0357+12.3656L58.0357+9.25017Z" opacity="1" fill="#000000"/>
<path d="M62.3684+12.005C62.5112+12.005+62.6285+11.9902+62.7204+11.9605C62.8844+11.9053+63.0187+11.7993+63.1234+11.6424C63.2068+11.5165+63.2669+11.3554+63.3036+11.1588C63.3248+11.0415+63.3354+10.9326+63.3354+10.8322C63.3354+10.4463+63.2587+10.1465+63.1053+9.93305C62.9519+9.71956+62.7049+9.61282+62.3641+9.61282L61.6155+9.61282L61.6155+12.005L62.3684+12.005ZM61.1914+9.25017L62.4532+9.25017C62.8816+9.25017+63.2139+9.40216+63.45+9.70613C63.6606+9.98041+63.766+10.3318+63.766+10.7601C63.766+11.091+63.7037+11.39+63.5793+11.6572C63.3602+12.1294+62.9834+12.3656+62.449+12.3656L61.1914+12.3656L61.1914+9.25017Z" opacity="1" fill="#000000"/>
</g>
<path stroke="#000000" stroke-width="1" d="M68.1911+5.48381L79.9909+5.48381" fill="none" stroke-linecap="butt" opacity="1" stroke-linejoin="miter"/>
<path stroke="#000000" stroke-width="1" d="M68.1911+11.3367L79.9909+11.3367" fill="none" stroke-linecap="butt" opacity="1" stroke-linejoin="miter"/>
<path stroke="#000000" stroke-width="1" d="M68.1911+17.1895L79.9909+17.1895" fill="none" stroke-linecap="butt" opacity="1" stroke-linejoin="miter"/>
<path stroke="#000000" stroke-width="1" d="M68.1911+23.0424L79.9909+23.0424" fill="none" stroke-linecap="butt" opacity="1" stroke-linejoin="miter"/>
<path stroke="#000000" stroke-width="1" d="M68.1911+28.8952L79.9909+28.8952" fill="none" stroke-linecap="butt" opacity="1" stroke-linejoin="miter"/>
<path stroke="#000000" stroke-width="1" d="M68.1911+34.7481L79.9909+34.7481" fill="none" stroke-linecap="butt" opacity="1" stroke-linejoin="miter"/>
<g opacity="1">
<path d="M57.3146+15.0893L58.2096+17.7424L59.0939+15.0893L59.5669+15.0893L58.4301+18.2047L57.9827+18.2047L56.8481+15.0893L57.3146+15.0893Z" opacity="1" fill="#000000"/>
<path d="M60.061+15.0893L60.4873+15.0893L60.4873+18.2047L60.061+18.2047L60.061+15.0893Z" opacity="1" fill="#000000"/>
<path d="M61.1723+15.0893L61.6707+15.0893L63.2442+17.613L63.2442+15.0893L63.6451+15.0893L63.6451+18.2047L63.1721+18.2047L61.5752+15.6831L61.5752+18.2047L61.1723+18.2047L61.1723+15.0893Z" opacity="1" fill="#000000"/>
</g>
<g opacity="1">
<path d="M56.004+20.8479C56.2967+20.8479+56.5497+20.9044+56.7632+21.0175C57.0729+21.1801+57.2623+21.465+57.3316+21.8722L56.9138+21.8722C56.8629+21.6446+56.7576+21.4788+56.5978+21.3749C56.438+21.271+56.2366+21.219+55.9934+21.219C55.705+21.219+55.4621+21.3272+55.2649+21.5435C55.0677+21.7598+54.9691+22.0822+54.9691+22.5106C54.9691+22.881+55.0504+23.1825+55.213+23.4151C55.3756+23.6476+55.6406+23.7639+56.0082+23.7639C56.2896+23.7639+56.5225+23.6823+56.707+23.519C56.8915+23.3557+56.9859+23.0916+56.9902+22.7269L56.0146+22.7269L56.0146+22.3769L57.3825+22.3769L57.3825+24.0439L57.111+24.0439L57.0092+23.643C56.8664+23.8+56.7399+23.9088+56.6296+23.9696C56.4444+24.0743+56.209+24.1266+55.9234+24.1266C55.5544+24.1266+55.237+24.0071+54.9712+23.7682C54.6814+23.4684+54.5364+23.057+54.5364+22.5339C54.5364+22.0122+54.6778+21.5972+54.9606+21.289C55.2292+20.9949+55.577+20.8479+56.004+20.8479Z" opacity="1" fill="#000000"/>
<path d="M58.0357+20.9285L58.5341+20.9285L60.1077+23.4522L60.1077+20.9285L60.5085+20.9285L60.5085+24.0439L60.0356+24.0439L58.4386+21.5223L58.4386+24.0439L58.0357+24.0439L58.0357+20.9285Z" opacity="1" fill="#000000"/>
<path d="M62.3684+23.6833C62.5112+23.6833+62.6285+23.6685+62.7204+23.6388C62.8844+23.5837+63.0187+23.4776+63.1234+23.3207C63.2068+23.1949+63.2669+23.0337+63.3036+22.8372C63.3248+22.7198+63.3354+22.6109+63.3354+22.5106C63.3354+22.1246+63.2587+21.8248+63.1053+21.6114C62.9519+21.3979+62.7049+21.2911+62.3641+21.2911L61.6155+21.2911L61.6155+23.6833L62.3684+23.6833ZM61.1914+20.9285L62.4532+20.9285C62.8816+20.9285+63.2139+21.0805+63.45+21.3844C63.6606+21.6587+63.766+22.0101+63.766+22.4385C63.766+22.7693+63.7037+23.0683+63.5793+23.3355C63.3602+23.8077+62.9834+24.0439+62.449+24.0439L61.1914+24.0439L61.1914+20.9285Z" opacity="1" fill="#000000"/>
</g>
<g opacity="1">
<path d="M50.7954+28.1949C50.9934+28.1949+51.15+28.1553+51.2652+28.0761C51.3804+27.997+51.438+27.8542+51.438+27.6477C51.438+27.4258+51.3574+27.2745+51.1963+27.1939C51.11+27.1515+50.9948+27.1303+50.8506+27.1303L49.8199+27.1303L49.8199+28.1949L50.7954+28.1949ZM49.3979+26.7676L50.84+26.7676C51.0775+26.7676+51.2733+26.8023+51.4274+26.8715C51.7201+27.0044+51.8664+27.2497+51.8664+27.6074C51.8664+27.7941+51.8279+27.9468+51.7508+28.0655C51.6738+28.1843+51.566+28.2797+51.4274+28.3518C51.549+28.4013+51.6406+28.4664+51.7021+28.5469C51.7636+28.6275+51.7978+28.7583+51.8049+28.9393L51.8198+29.3571C51.824+29.4758+51.8339+29.5642+51.8494+29.6222C51.8749+29.7211+51.9201+29.7848+51.9852+29.813L51.9852+29.883L51.4677+29.883C51.4536+29.8561+51.4423+29.8215+51.4338+29.7791C51.4253+29.7367+51.4182+29.6547+51.4126+29.5331L51.3871+29.0135C51.3772+28.8099+51.3016+28.6735+51.1602+28.6042C51.0796+28.566+50.9531+28.5469+50.7806+28.5469L49.8199+28.5469L49.8199+29.883L49.3979+29.883L49.3979+26.7676Z" opacity="1" fill="#000000"/>
<path d="M52.7508+29.883L52.2418+29.883L53.3573+28.2861L52.3118+26.7676L52.8398+26.7676L53.6351+27.9595L54.424+26.7676L54.9267+26.7676L53.8811+28.2861L54.9776+29.883L54.4537+29.883L53.6139+28.6021L52.7508+29.883Z" opacity="1" fill="#000000"/>
<path d="M56.5766+29.5225C56.7194+29.5225+56.8368+29.5076+56.9286+29.4779C57.0927+29.4228+57.227+29.3168+57.3316+29.1598C57.415+29.034+57.4751+28.8728+57.5119+28.6763C57.5331+28.559+57.5437+28.4501+57.5437+28.3497C57.5437+27.9637+57.467+27.664+57.3136+27.4505C57.1602+27.237+56.9131+27.1303+56.5724+27.1303L55.8237+27.1303L55.8237+29.5225L56.5766+29.5225ZM55.3996+26.7676L56.6614+26.7676C57.0898+26.7676+57.4221+26.9196+57.6582+27.2236C57.8688+27.4979+57.9742+27.8492+57.9742+28.2776C57.9742+28.6084+57.912+28.9075+57.7876+29.1747C57.5684+29.6469+57.1916+29.883+56.6572+29.883L55.3996+29.883L55.3996+26.7676Z" opacity="1" fill="#000000"/>
<path d="M59.1745+26.7676L59.4969+26.7676L58.5086+29.883L58.1863+29.883L59.1745+26.7676Z" opacity="1" fill="#000000"/>
<path d="M59.8192+26.7676L60.2455+26.7676L60.2455+29.883L59.8192+29.883L59.8192+26.7676Z" opacity="1" fill="#000000"/>
<path d="M62.2751+26.6828C62.825+26.6828+63.2322+26.8595+63.4966+27.213C63.703+27.4887+63.8062+27.8414+63.8062+28.2712C63.8062+28.7364+63.6882+29.1231+63.4521+29.4313C63.175+29.7932+62.7798+29.9742+62.2666+29.9742C61.7873+29.9742+61.4105+29.8159+61.1362+29.4992C60.8916+29.1938+60.7693+28.8078+60.7693+28.3412C60.7693+27.9199+60.874+27.5594+61.0832+27.2596C61.3518+26.8751+61.7491+26.6828+62.2751+26.6828ZM62.3175+29.5967C62.6893+29.5967+62.9583+29.4635+63.1244+29.1969C63.2906+28.9304+63.3736+28.624+63.3736+28.2776C63.3736+27.9114+63.2778+27.6166+63.0863+27.3932C62.8947+27.1699+62.6328+27.0582+62.3005+27.0582C61.9782+27.0582+61.7152+27.1688+61.5116+27.3901C61.308+27.6113+61.2062+27.9376+61.2062+28.3688C61.2062+28.7138+61.2935+29.0047+61.4681+29.2415C61.6427+29.4783+61.9258+29.5967+62.3175+29.5967Z" opacity="1" fill="#000000"/>
</g>
<g opacity="1">
<path d="M52.0976+32.6068L52.0976+32.9779L51.0478+32.9779L51.0478+35.7222L50.6194+35.7222L50.6194+32.9779L49.5696+32.9779L49.5696+32.6068L52.0976+32.6068Z" opacity="1" fill="#000000"/>
<path d="M53.6797+35.3616C53.8225+35.3616+53.9398+35.3468+54.0317+35.3171C54.1957+35.262+54.33+35.1559+54.4346+34.999C54.5181+34.8732+54.5781+34.712+54.6149+34.5155C54.6361+34.3981+54.6467+34.2892+54.6467+34.1889C54.6467+33.8029+54.57+33.5032+54.4166+33.2897C54.2632+33.0762+54.0161+32.9694+53.6754+32.9694L52.9268+32.9694L52.9268+35.3616L53.6797+35.3616ZM52.5026+32.6068L53.7645+32.6068C54.1929+32.6068+54.5251+32.7588+54.7612+33.0627C54.9719+33.337+55.0772+33.6884+55.0772+34.1168C55.0772+34.4476+55.015+34.7466+54.8906+35.0138C54.6715+35.4861+54.2947+35.7222+53.7602+35.7222L52.5026+35.7222L52.5026+32.6068Z" opacity="1" fill="#000000"/>
<path d="M55.8874+35.7222L55.3784+35.7222L56.4939+34.1252L55.4484+32.6068L55.9764+32.6068L56.7717+33.7986L57.5606+32.6068L58.0633+32.6068L57.0177+34.1252L58.1141+35.7222L57.5903+35.7222L56.7505+34.4412L55.8874+35.7222Z" opacity="1" fill="#000000"/>
<path d="M59.1745+32.6068L59.4969+32.6068L58.5086+35.7222L58.1863+35.7222L59.1745+32.6068Z" opacity="1" fill="#000000"/>
<path d="M59.8192+32.6068L60.2455+32.6068L60.2455+35.7222L59.8192+35.7222L59.8192+32.6068Z" opacity="1" fill="#000000"/>
<path d="M62.2751+32.522C62.825+32.522+63.2322+32.6987+63.4966+33.0521C63.703+33.3278+63.8062+33.6806+63.8062+34.1104C63.8062+34.5755+63.6882+34.9622+63.4521+35.2704C63.175+35.6324+62.7798+35.8134+62.2666+35.8134C61.7873+35.8134+61.4105+35.655+61.1362+35.3383C60.8916+35.0329+60.7693+34.6469+60.7693+34.1804C60.7693+33.7591+60.874+33.3985+61.0832+33.0988C61.3518+32.7142+61.7491+32.522+62.2751+32.522ZM62.3175+35.4359C62.6893+35.4359+62.9583+35.3026+63.1244+35.0361C63.2906+34.7696+63.3736+34.4631+63.3736+34.1168C63.3736+33.7506+63.2778+33.4558+63.0863+33.2324C62.8947+33.009+62.6328+32.8973+62.3005+32.8973C61.9782+32.8973+61.7152+33.008+61.5116+33.2292C61.308+33.4505+61.2062+33.7767+61.2062+34.2079C61.2062+34.5529+61.2935+34.8438+61.4681+35.0806C61.6427+35.3175+61.9258+35.4359+62.3175+35.4359Z" opacity="1" fill="#000000"/>
</g>
</g>
</svg>
