<?xml version="1.0" encoding="UTF-8" standalone="no"?> <!-- Created with Vectornator for iOS (http://vectornator.io/) --><!DOCTYPE svg PUBLIC "-//W3C//DTD SVG 1.1//EN" "http://www.w3.org/Graphics/SVG/1.1/DTD/svg11.dtd">
<svg height="40mm" style="fill-rule:nonzero;clip-rule:evenodd;stroke-linecap:round;stroke-linejoin:round;" xmlns:xlink="http://www.w3.org/1999/xlink" xmlns="http://www.w3.org/2000/svg" xml:space="preserve" width="80mm" xmlns:vectornator="http://vectornator.io" version="1.1" viewBox="0 0 80 40">
<metadata>
<vectornator:setting key="DimensionsVisible" value="1"/>
<vectornator:setting key="PencilOnly" value="0"/>
<vectornator:setting key="SnapToPoints" value="0"/>
<vectornator:setting key="OutlineMode" value="0"/>
<vectornator:setting key="CMYKEnabledKey" value="0"/>
<vectornator:setting key="RulersVisible" value="1"/>
<vectornator:setting key="SnapToEdges" value="0"/>
<vectornator:setting key="GuidesVisible" value="1"/>
<vectornator:setting key="DisplayWhiteBackground" value="0"/>
<vectornator:setting key="doHistoryDisabled" value="0"/>
<vectornator:setting key="SnapToGuides" value="1"/>
<vectornator:setting key="TimeLapseWatermarkDisabled" value="0"/>
<vectornator:setting key="Units" value="Points"/>
<vectornator:setting key="DynamicGuides" value="0"/>
<vectornator:setting key="IsolateActiveLayer" value="0"/>
<vectornator:setting key="SnapToGrid" value="0"/>
</metadata>
<defs/>
<g id="breadboard" vectornator:layerName="breadboard">
<path d="M4+0.0509175L76+0.0509175C78.2091+0.0509175+80+1.84178+80+4.05092L80+36.0509C80+38.2601+78.2091+40.0509+76+40.0509L4+40.0509C1.79086+40.0509+0+38.2601+0+36.0509L0+4.05092C0+1.84178+1.79086+0.0509175+4+0.0509175Z" opacity="1" fill="#4a3f3f"/>
<path d="M36.8236+26.9489L43.1788+26.9489L43.1788+32.6115L36.8236+32.6115L36.8236+26.9489Z" opacity="1" fill="#333333"/>
<path d="M36.8236+12.1409L43.1788+12.1409L43.1788+17.8035L36.8236+17.8035L36.8236+12.1409Z" opacity="1" fill="#333333"/>
<path d="M27.6017+22.4493L33.4216+22.4493L33.4216+26.2571L27.6017+26.2571L27.6017+22.4493Z" opacity="1" fill="#655c5c"/>
<path d="M49.099+19.7126C47.7183+19.7126+46.599+20.8319+46.599+22.2126C46.599+23.5933+47.7183+24.7126+49.099+24.7126C50.4797+24.7126+51.599+23.5933+51.599+22.2126C51.599+20.8319+50.4797+19.7126+49.099+19.7126ZM49.099+20.7126C49.9274+20.7126+50.599+21.3842+50.599+22.2126C50.599+23.0411+49.9274+23.7126+49.099+23.7126C48.2706+23.7126+47.599+23.0411+47.599+22.2126C47.599+21.3842+48.2706+20.7126+49.099+20.7126Z" opacity="1" fill="#9a916c"/>
<path d="M49.099+13.6417C47.7183+13.6417+46.599+14.761+46.599+16.1417C46.599+17.5224+47.7183+18.6417+49.099+18.6417C50.4797+18.6417+51.599+17.5224+51.599+16.1417C51.599+14.761+50.4797+13.6417+49.099+13.6417ZM49.099+14.6417C49.9274+14.6417+50.599+15.3133+50.599+16.1417C50.599+16.9701+49.9274+17.6417+49.099+17.6417C48.2706+17.6417+47.599+16.9701+47.599+16.1417C47.599+15.3133+48.2706+14.6417+49.099+14.6417Z" opacity="1" fill="#9a916c"/>
<path d="M23.0257+33.5669C21.6449+33.5669+20.5257+34.6862+20.5257+36.0669C20.5256+37.4476+21.6449+38.5669+23.0257+38.5669C24.4064+38.5669+25.5257+37.4476+25.5257+36.0669C25.5256+34.6862+24.4064+33.5669+23.0257+33.5669ZM23.0257+34.5669C23.8541+34.5669+24.5257+35.2385+24.5257+36.0669C24.5257+36.8953+23.8541+37.5669+23.0257+37.5669C22.1972+37.5669+21.5256+36.8953+21.5257+36.0669C21.5257+35.2385+22.1972+34.5669+23.0257+34.5669Z" opacity="1" fill="#9a916c"/>
<path d="M46.2444+1.23097C44.8637+1.23097+43.7444+2.35026+43.7444+3.73097C43.7444+5.11169+44.8637+6.23097+46.2444+6.23097C47.6251+6.23097+48.7444+5.11169+48.7444+3.73097C48.7444+2.35026+47.6251+1.23097+46.2444+1.23097ZM46.2444+2.23097C47.0728+2.23097+47.7444+2.90255+47.7444+3.73097C47.7444+4.5594+47.0728+5.23097+46.2444+5.23097C45.416+5.23097+44.7444+4.5594+44.7444+3.73097C44.7444+2.90255+45.4159+2.23097+46.2444+2.23097Z" opacity="1" fill="#9a916c"/>
<path d="M40+1.23097C38.6193+1.23097+37.5+2.35026+37.5+3.73097C37.5+5.11169+38.6193+6.23097+40+6.23097C41.3807+6.23097+42.5+5.11169+42.5+3.73097C42.5+2.35026+41.3807+1.23097+40+1.23097ZM40+2.23097C40.8284+2.23097+41.5+2.90255+41.5+3.73097C41.5+4.5594+40.8284+5.23097+40+5.23097C39.1716+5.23097+38.5+4.5594+38.5+3.73097C38.5+2.90255+39.1716+2.23097+40+2.23097Z" opacity="1" fill="#9a916c"/>
<path d="M33.7556+1.23097C32.3749+1.23097+31.2556+2.35026+31.2556+3.73097C31.2556+5.11169+32.3749+6.23097+33.7556+6.23097C35.1363+6.23097+36.2556+5.11169+36.2556+3.73097C36.2556+2.35026+35.1363+1.23097+33.7556+1.23097ZM33.7556+2.23097C34.584+2.23097+35.2556+2.90255+35.2556+3.73097C35.2556+4.5594+34.584+5.23097+33.7556+5.23097C32.9272+5.23097+32.2556+4.5594+32.2556+3.73097C32.2556+2.90255+32.9272+2.23097+33.7556+2.23097Z" opacity="1" fill="#9a916c"/>
<g opacity="1">
<path d="M38.5846+7.16137C38.7194+7.16137+38.8359+7.18741+38.9342+7.2395C39.0768+7.31437+39.164+7.44555+39.1959+7.63305L39.0036+7.63305C38.9801+7.52823+38.9316+7.4519+38.858+7.40405C38.7845+7.3562+38.6917+7.33227+38.5797+7.33227C38.4469+7.33227+38.3351+7.38208+38.2443+7.48168C38.1535+7.58129+38.108+7.72973+38.108+7.927C38.108+8.09757+38.1455+8.2364+38.2203+8.3435C38.2952+8.4506+38.4173+8.50415+38.5866+8.50415C38.7161+8.50415+38.8234+8.46655+38.9083+8.39135C38.9933+8.31616+39.0368+8.19458+39.0387+8.02661L38.5895+8.02661L38.5895+7.86547L39.2194+7.86547L39.2194+8.63305L39.0944+8.63305L39.0475+8.44848C38.9817+8.52075+38.9235+8.57088+38.8727+8.59887C38.7874+8.64705+38.679+8.67114+38.5475+8.67114C38.3776+8.67114+38.2314+8.61612+38.109+8.5061C37.9756+8.36808+37.9088+8.17862+37.9088+7.93774C37.9088+7.6975+37.9739+7.50642+38.1041+7.3645C38.2278+7.22908+38.388+7.16137+38.5846+7.16137Z" opacity="1" fill="#ffffff"/>
<path d="M39.5202+7.19848L39.7496+7.19848L40.4743+8.36059L40.4743+7.19848L40.6588+7.19848L40.6588+8.63305L40.4411+8.63305L39.7057+7.47192L39.7057+8.63305L39.5202+8.63305L39.5202+7.19848Z" opacity="1" fill="#ffffff"/>
<path d="M41.5153+8.46704C41.581+8.46704+41.6351+8.4602+41.6774+8.44653C41.7529+8.42114+41.8147+8.37231+41.8629+8.30004C41.9013+8.2421+41.929+8.16788+41.9459+8.07739C41.9557+8.02335+41.9606+7.97322+41.9606+7.927C41.9606+7.74926+41.9253+7.61124+41.8546+7.51293C41.784+7.41463+41.6702+7.36547+41.5133+7.36547L41.1686+7.36547L41.1686+8.46704L41.5153+8.46704ZM40.9733+7.19848L41.5543+7.19848C41.7516+7.19848+41.9046+7.26847+42.0133+7.40844C42.1103+7.53474+42.1588+7.69653+42.1588+7.89379C42.1588+8.04614+42.1302+8.18383+42.0729+8.30688C41.972+8.52433+41.7985+8.63305+41.5524+8.63305L40.9733+8.63305L40.9733+7.19848Z" opacity="1" fill="#ffffff"/>
</g>
<g opacity="1">
<path d="M44.7855+7.23657L45.1976+8.45825L45.6048+7.23657L45.8226+7.23657L45.2992+8.67114L45.0931+8.67114L44.5706+7.23657L44.7855+7.23657Z" opacity="1" fill="#ffffff"/>
<path d="M46.0501+7.23657L46.2464+7.23657L46.2464+8.67114L46.0501+8.67114L46.0501+7.23657Z" opacity="1" fill="#ffffff"/>
<path d="M46.5619+7.23657L46.7913+7.23657L47.516+8.39868L47.516+7.23657L47.7005+7.23657L47.7005+8.67114L47.4828+8.67114L46.7474+7.51001L46.7474+8.67114L46.5619+8.67114L46.5619+7.23657Z" opacity="1" fill="#ffffff"/>
</g>
<g opacity="1">
<path d="M20.9688+30.6056C21.1036+30.6056+21.2201+30.6317+21.3184+30.6837C21.461+30.7586+21.5483+30.8898+21.5802+31.0773L21.3878+31.0773C21.3643+30.9725+21.3158+30.8962+21.2423+30.8483C21.1687+30.8004+21.0759+30.7765+20.9639+30.7765C20.8311+30.7765+20.7193+30.8263+20.6285+30.9259C20.5377+31.0255+20.4923+31.174+20.4923+31.3712C20.4923+31.5418+20.5297+31.6807+20.6046+31.7878C20.6794+31.8948+20.8015+31.9484+20.9708+31.9484C21.1003+31.9484+21.2076+31.9108+21.2926+31.8356C21.3775+31.7604+21.421+31.6388+21.4229+31.4709L20.9737+31.4709L20.9737+31.3097L21.6036+31.3097L21.6036+32.0773L21.4786+32.0773L21.4317+31.8927C21.366+31.965+21.3077+32.0151+21.2569+32.0431C21.1716+32.0913+21.0632+32.1154+20.9317+32.1154C20.7618+32.1154+20.6156+32.0604+20.4932+31.9504C20.3598+31.8123+20.2931+31.6229+20.2931+31.382C20.2931+31.1418+20.3582+30.9507+20.4884+30.8087C20.6121+30.6733+20.7722+30.6056+20.9688+30.6056Z" opacity="1" fill="#ffffff"/>
<path d="M21.9044+30.6427L22.1339+30.6427L22.8585+31.8048L22.8585+30.6427L23.0431+30.6427L23.0431+32.0773L22.8253+32.0773L22.0899+30.9162L22.0899+32.0773L21.9044+32.0773L21.9044+30.6427Z" opacity="1" fill="#ffffff"/>
<path d="M23.8995+31.9113C23.9653+31.9113+24.0193+31.9045+24.0616+31.8908C24.1371+31.8654+24.199+31.8166+24.2472+31.7443C24.2856+31.6864+24.3132+31.6121+24.3302+31.5216C24.3399+31.4676+24.3448+31.4175+24.3448+31.3712C24.3448+31.1935+24.3095+31.0555+24.2389+30.9572C24.1682+30.8589+24.0544+30.8097+23.8975+30.8097L23.5528+30.8097L23.5528+31.9113L23.8995+31.9113ZM23.3575+30.6427L23.9386+30.6427C24.1358+30.6427+24.2888+30.7127+24.3975+30.8527C24.4945+30.979+24.5431+31.1408+24.5431+31.338C24.5431+31.4904+24.5144+31.6281+24.4571+31.7511C24.3562+31.9686+24.1827+32.0773+23.9366+32.0773L23.3575+32.0773L23.3575+30.6427Z" opacity="1" fill="#ffffff"/>
</g>
<g opacity="1">
<path d="M54.3739+15.8306C54.4651+15.8306+54.5372+15.8124+54.5902+15.7759C54.6433+15.7395+54.6698+15.6737+54.6698+15.5787C54.6698+15.4764+54.6327+15.4068+54.5585+15.3697C54.5188+15.3501+54.4657+15.3404+54.3993+15.3404L53.9247+15.3404L53.9247+15.8306L54.3739+15.8306ZM53.7304+15.1734L54.3944+15.1734C54.5038+15.1734+54.594+15.1893+54.6649+15.2212C54.7997+15.2824+54.8671+15.3954+54.8671+15.5601C54.8671+15.646+54.8493+15.7164+54.8138+15.771C54.7784+15.8257+54.7287+15.8697+54.6649+15.9029C54.7209+15.9257+54.7631+15.9556+54.7914+15.9927C54.8197+16.0298+54.8355+16.0901+54.8388+16.1734L54.8456+16.3658C54.8475+16.4205+54.8521+16.4611+54.8593+16.4878C54.871+16.5334+54.8918+16.5627+54.9218+16.5757L54.9218+16.608L54.6835+16.608C54.677+16.5956+54.6718+16.5796+54.6679+16.5601C54.6639+16.5406+54.6607+16.5028+54.6581+16.4468L54.6464+16.2076C54.6418+16.1138+54.607+16.051+54.5419+16.0191C54.5048+16.0015+54.4465+15.9927+54.3671+15.9927L53.9247+15.9927L53.9247+16.608L53.7304+16.608L53.7304+15.1734Z" opacity="1" fill="#ffffff"/>
<path d="M55.2743+16.608L55.0399+16.608L55.5536+15.8726L55.0722+15.1734L55.3153+15.1734L55.6815+15.7222L56.0448+15.1734L56.2763+15.1734L55.7948+15.8726L56.2997+16.608L56.0585+16.608L55.6718+16.0181L55.2743+16.608Z" opacity="1" fill="#ffffff"/>
<path d="M57.036+16.4419C57.1018+16.4419+57.1558+16.4351+57.1981+16.4214C57.2736+16.396+57.3355+16.3472+57.3837+16.2749C57.4221+16.217+57.4498+16.1428+57.4667+16.0523C57.4764+15.9983+57.4813+15.9481+57.4813+15.9019C57.4813+15.7242+57.446+15.5861+57.3754+15.4878C57.3047+15.3895+57.191+15.3404+57.0341+15.3404L56.6893+15.3404L56.6893+16.4419L57.036+16.4419ZM56.494+15.1734L57.0751+15.1734C57.2723+15.1734+57.4253+15.2434+57.5341+15.3833C57.6311+15.5096+57.6796+15.6714+57.6796+15.8687C57.6796+16.021+57.6509+16.1587+57.5936+16.2818C57.4927+16.4992+57.3192+16.608+57.0731+16.608L56.494+16.608L56.494+15.1734Z" opacity="1" fill="#ffffff"/>
<path d="M58.2323+15.1734L58.3807+15.1734L57.9257+16.608L57.7772+16.608L58.2323+15.1734Z" opacity="1" fill="#ffffff"/>
<path d="M58.5292+15.1734L58.7255+15.1734L58.7255+16.608L58.5292+16.608L58.5292+15.1734Z" opacity="1" fill="#ffffff"/>
<path d="M59.66+15.1343C59.9133+15.1343+60.1008+15.2157+60.2225+15.3785C60.3176+15.5054+60.3651+15.6679+60.3651+15.8658C60.3651+16.08+60.3108+16.258+60.202+16.3999C60.0744+16.5666+59.8925+16.6499+59.6561+16.6499C59.4354+16.6499+59.2619+16.577+59.1356+16.4312C59.023+16.2906+58.9667+16.1128+58.9667+15.898C58.9667+15.704+59.0149+15.538+59.1112+15.3999C59.2349+15.2229+59.4179+15.1343+59.66+15.1343ZM59.6796+16.4761C59.8508+16.4761+59.9747+16.4148+60.0512+16.292C60.1277+16.1693+60.1659+16.0282+60.1659+15.8687C60.1659+15.7001+60.1218+15.5643+60.0336+15.4615C59.9454+15.3586+59.8248+15.3072+59.6718+15.3072C59.5233+15.3072+59.4022+15.3581+59.3085+15.46C59.2147+15.5619+59.1679+15.7121+59.1679+15.9107C59.1679+16.0695+59.2081+16.2035+59.2885+16.3125C59.3689+16.4216+59.4992+16.4761+59.6796+16.4761Z" opacity="1" fill="#ffffff"/>
</g>
<g opacity="1">
<path d="M31.1956+7.22004L31.6077+8.44172L32.0149+7.22004L32.2327+7.22004L31.7093+8.65461L31.5032+8.65461L30.9808+7.22004L31.1956+7.22004Z" opacity="1" fill="#ffffff"/>
<path d="M33.0354+7.18098C33.2887+7.18098+33.4762+7.26236+33.5979+7.42512C33.693+7.55207+33.7405+7.71451+33.7405+7.91242C33.7405+8.12662+33.6862+8.30468+33.5774+8.4466C33.4498+8.61327+33.2679+8.6966+33.0315+8.6966C32.8108+8.6966+32.6373+8.62369+32.511+8.47785C32.3984+8.33723+32.3421+8.15949+32.3421+7.94465C32.3421+7.75064+32.3903+7.58462+32.4866+7.4466C32.6103+7.26952+32.7933+7.18098+33.0354+7.18098ZM33.055+8.52278C33.2262+8.52278+33.3501+8.46142+33.4266+8.33869C33.503+8.21597+33.5413+8.07486+33.5413+7.91535C33.5413+7.74673+33.4972+7.61099+33.409+7.50813C33.3208+7.40526+33.2002+7.35383+33.0472+7.35383C32.8987+7.35383+32.7776+7.40477+32.6839+7.50666C32.5901+7.60855+32.5433+7.75878+32.5433+7.95735C32.5433+8.1162+32.5835+8.25015+32.6639+8.3592C32.7443+8.46825+32.8746+8.52278+33.055+8.52278Z" opacity="1" fill="#ffffff"/>
<path d="M34.1829+7.22004L34.1829+8.10676C34.1829+8.21093+34.2024+8.29752+34.2415+8.36653C34.2994+8.47069+34.3971+8.52278+34.5345+8.52278C34.6992+8.52278+34.8112+8.46646+34.8704+8.35383C34.9023+8.29263+34.9183+8.21028+34.9183+8.10676L34.9183+7.22004L35.1155+7.22004L35.1155+8.02571C35.1155+8.20214+35.0918+8.33788+35.0442+8.43293C34.957+8.60611+34.7923+8.6927+34.5501+8.6927C34.3079+8.6927+34.1435+8.60611+34.0569+8.43293C34.0094+8.33788+33.9856+8.20214+33.9856+8.02571L33.9856+7.22004L34.1829+7.22004Z" opacity="1" fill="#ffffff"/>
<path d="M36.4602+7.22004L36.4602+7.39094L35.9768+7.39094L35.9768+8.65461L35.7796+8.65461L35.7796+7.39094L35.2962+7.39094L35.2962+7.22004L36.4602+7.22004Z" opacity="1" fill="#ffffff"/>
</g>
<g opacity="1">
<path d="M58.3337+3.29077L58.9827+3.29077L58.9827+5.44995L58.5622+5.44995L58.5622+3.9895C58.5622+3.94751+58.5627+3.88867+58.5637+3.81299C58.5647+3.7373+58.5652+3.67895+58.5652+3.63794L58.1565+5.44995L57.7185+5.44995L57.3127+3.63794C57.3127+3.67895+57.3132+3.7373+57.3142+3.81299C57.3152+3.88867+57.3157+3.94751+57.3157+3.9895L57.3157+5.44995L56.8953+5.44995L56.8953+3.29077L57.5515+3.29077L57.9441+4.98852L58.3337+3.29077Z" opacity="1" fill="#ffffff"/>
<path d="M59.696+3.29077L59.9817+4.5271L60.0432+4.87134L60.1062+4.53442L60.3494+3.29077L60.8254+3.29077L61.0818+4.5271L61.1477+4.87134L61.2136+4.54028L61.5022+3.29077L61.9607+3.29077L61.3528+5.44995L60.9221+5.44995L60.6614+4.18725L60.5852+3.76977L60.509+4.18725L60.2483+5.44995L59.8293+5.44995L59.217+3.29077L59.696+3.29077Z" opacity="1" fill="#ffffff"/>
<path d="M62.5247+4.40844C62.5247+4.65259+62.5447+4.83935+62.5847+4.96875C62.6247+5.09814+62.7068+5.16284+62.8308+5.16284C62.9548+5.16284+63.0361+5.09814+63.0747+4.96875C63.1133+4.83935+63.1326+4.65259+63.1326+4.40844C63.1326+4.15259+63.1133+3.96313+63.0747+3.84009C63.0361+3.71704+62.9548+3.65551+62.8308+3.65551C62.7068+3.65551+62.6247+3.71704+62.5847+3.84009C62.5447+3.96313+62.5247+4.15259+62.5247+4.40844ZM62.8308+3.31128C63.1013+3.31128+63.291+3.40649+63.3999+3.59692C63.5088+3.78735+63.5632+4.05786+63.5632+4.40844C63.5632+4.75903+63.5088+5.02905+63.3999+5.2185C63.291+5.40796+63.1013+5.50268+62.8308+5.50268C62.5603+5.50268+62.3706+5.40796+62.2617+5.2185C62.1528+5.02905+62.0984+4.75903+62.0984+4.40844C62.0984+4.05786+62.1528+3.78735+62.2617+3.59692C62.3706+3.40649+62.5603+3.31128+62.8308+3.31128Z" opacity="1" fill="#ffffff"/>
<path d="M64.1682+4.88159C64.1848+4.97241+64.2165+5.04248+64.2634+5.09179C64.3103+5.14111+64.3787+5.16577+64.4685+5.16577C64.572+5.16577+64.6509+5.12939+64.7051+5.05664C64.7593+4.98388+64.7864+4.89233+64.7864+4.78198C64.7864+4.67358+64.761+4.58203+64.7102+4.50732C64.6594+4.43261+64.5803+4.39526+64.4729+4.39526C64.4221+4.39526+64.3782+4.40161+64.3411+4.4143C64.2756+4.43774+64.2263+4.4812+64.1931+4.54468L63.8181+4.5271L63.9675+3.35376L65.1379+3.35376L65.1379+3.70825L64.2693+3.70825L64.1931+4.1726C64.2576+4.13061+64.3079+4.10278+64.344+4.08911C64.4045+4.06665+64.4783+4.05542+64.5652+4.05542C64.741+4.05542+64.8943+4.1145+65.0251+4.23266C65.156+4.35083+65.2214+4.5227+65.2214+4.74829C65.2214+4.94458+65.1584+5.11987+65.0325+5.27417C64.9065+5.42846+64.718+5.50561+64.467+5.50561C64.2649+5.50561+64.0989+5.45141+63.969+5.34301C63.8391+5.23462+63.7668+5.08081+63.7522+4.88159L64.1682+4.88159Z" opacity="1" fill="#ffffff"/>
<path d="M65.8542+4.83325C65.8542+4.93774+65.8813+5.0188+65.9355+5.07641C65.9897+5.13403+66.0647+5.16284+66.1604+5.16284C66.2561+5.16284+66.331+5.13403+66.3852+5.07641C66.4394+5.0188+66.4665+4.93774+66.4665+4.83325C66.4665+4.72485+66.439+4.64258+66.3838+4.58642C66.3286+4.53027+66.2541+4.50219+66.1604+4.50219C66.0666+4.50219+65.9922+4.53027+65.937+4.58642C65.8818+4.64258+65.8542+4.72485+65.8542+4.83325ZM65.4206+4.86108C65.4206+4.74194+65.4477+4.63403+65.5019+4.53735C65.5561+4.44067+65.6355+4.36792+65.74+4.31909C65.6374+4.25073+65.5708+4.17676+65.54+4.09717C65.5093+4.01758+65.4939+3.94311+65.4939+3.87378C65.4939+3.71948+65.552+3.58789+65.6682+3.479C65.7844+3.37011+65.9485+3.31567+66.1604+3.31567C66.3723+3.31567+66.5364+3.37011+66.6526+3.479C66.7688+3.58789+66.8269+3.71948+66.8269+3.87378C66.8269+3.94311+66.8115+4.01758+66.7808+4.09717C66.75+4.17676+66.6833+4.24585+66.5808+4.30444C66.6853+4.36303+66.7639+4.44067+66.8166+4.53735C66.8694+4.63403+66.8957+4.74194+66.8957+4.86108C66.8957+5.03979+66.8296+5.19189+66.6973+5.31738C66.5649+5.44287+66.3801+5.50561+66.1428+5.50561C65.9055+5.50561+65.7258+5.44287+65.6038+5.31738C65.4817+5.19189+65.4206+5.03979+65.4206+4.86108ZM65.8923+3.92065C65.8923+3.9978+65.916+4.06079+65.9634+4.10962C66.0107+4.15844+66.0764+4.18286+66.1604+4.18286C66.2454+4.18286+66.311+4.15844+66.3574+4.10962C66.4038+4.06079+66.427+3.9978+66.427+3.92065C66.427+3.83667+66.4038+3.77099+66.3574+3.72363C66.311+3.67627+66.2454+3.65259+66.1604+3.65259C66.0764+3.65259+66.0107+3.67627+65.9634+3.72363C65.916+3.77099+65.8923+3.83667+65.8923+3.92065Z" opacity="1" fill="#ffffff"/>
<path d="M67.1038+5.44995C67.1077+5.2976+67.1404+5.15844+67.2019+5.03247C67.2615+4.89087+67.4021+4.74096+67.6238+4.58276C67.8162+4.44507+67.9407+4.34643+67.9973+4.28686C68.0842+4.19409+68.1277+4.09253+68.1277+3.98218C68.1277+3.89233+68.1028+3.81762+68.053+3.75805C68.0032+3.69848+67.9319+3.6687+67.8391+3.6687C67.7122+3.6687+67.6257+3.71606+67.5798+3.81079C67.5535+3.86548+67.5378+3.95239+67.533+4.07153L67.1272+4.07153C67.134+3.89087+67.1667+3.74487+67.2253+3.63354C67.3367+3.42163+67.5344+3.31567+67.8186+3.31567C68.0432+3.31567+68.2219+3.37793+68.3547+3.50244C68.4875+3.62695+68.5539+3.79175+68.5539+3.99682C68.5539+4.15405+68.5071+4.2937+68.4133+4.41577C68.3518+4.49682+68.2507+4.58716+68.1101+4.68676L67.9431+4.80542C67.8386+4.87964+67.7671+4.93335+67.7285+4.96655C67.6899+4.99975+67.6575+5.03833+67.6311+5.08227L68.5583+5.08227L68.5583+5.44995L67.1038+5.44995Z" opacity="1" fill="#ffffff"/>
<path d="M70.4758+3.29077L70.4758+3.67309L69.8298+3.67309L69.8298+5.44995L69.3757+5.44995L69.3757+3.67309L68.7268+3.67309L68.7268+3.29077L70.4758+3.29077Z" opacity="1" fill="#ffffff"/>
<path d="M71.1907+3.66577L71.1907+4.24585L71.7019+4.24585C71.8035+4.24585+71.8796+4.23413+71.9304+4.21069C72.0203+4.16968+72.0652+4.08862+72.0652+3.96753C72.0652+3.83667+72.0217+3.74878+71.9348+3.70385C71.886+3.67846+71.8127+3.66577+71.7151+3.66577L71.1907+3.66577ZM71.8088+3.29077C71.9602+3.2937+72.0767+3.31225+72.1582+3.34643C72.2397+3.38061+72.3088+3.43091+72.3655+3.49731C72.4123+3.552+72.4495+3.61255+72.4768+3.67895C72.5041+3.74536+72.5178+3.82104+72.5178+3.906C72.5178+4.00854+72.4919+4.10937+72.4402+4.20849C72.3884+4.30761+72.303+4.37768+72.1838+4.4187C72.2834+4.45874+72.354+4.51562+72.3955+4.58935C72.437+4.66308+72.4578+4.77563+72.4578+4.927L72.4578+5.07202C72.4578+5.17065+72.4617+5.23755+72.4695+5.2727C72.4812+5.32837+72.5085+5.36938+72.5515+5.39575L72.5515+5.44995L72.0549+5.44995C72.0413+5.4021+72.0315+5.36352+72.0256+5.33423C72.0139+5.27368+72.0076+5.21167+72.0066+5.14819L72.0037+4.94751C72.0017+4.80981+71.9766+4.71801+71.9282+4.67212C71.8799+4.62622+71.7893+4.60327+71.6565+4.60327L71.1907+4.60327L71.1907+5.44995L70.7497+5.44995L70.7497+3.29077L71.8088+3.29077Z" opacity="1" fill="#ffffff"/>
<path d="M72.8855+3.9851L72.8855+3.70093C73.0173+3.69507+73.1096+3.68628+73.1623+3.67456C73.2463+3.656+73.3147+3.61889+73.3674+3.56323C73.4036+3.52514+73.4309+3.47436+73.4495+3.41089C73.4602+3.3728+73.4656+3.34448+73.4656+3.32593L73.8127+3.32593L73.8127+5.44995L73.385+5.44995L73.385+3.9851L72.8855+3.9851Z" opacity="1" fill="#ffffff"/>
<path d="M74.5539+3.9851L74.5539+3.70093C74.6858+3.69507+74.7781+3.68628+74.8308+3.67456C74.9148+3.656+74.9831+3.61889+75.0359+3.56323C75.072+3.52514+75.0994+3.47436+75.1179+3.41089C75.1287+3.3728+75.134+3.34448+75.134+3.32593L75.4812+3.32593L75.4812+5.44995L75.0535+5.44995L75.0535+3.9851L74.5539+3.9851Z" opacity="1" fill="#ffffff"/>
</g>
<g opacity="1">
<path d="M54.7509+21.3431L54.7509+21.514L54.2675+21.514L54.2675+22.7777L54.0702+22.7777L54.0702+21.514L53.5868+21.514L53.5868+21.3431L54.7509+21.3431Z" opacity="1" fill="#ffffff"/>
<path d="M55.0516+22.7777L54.8173+22.7777L55.3309+22.0423L54.8495+21.3431L55.0927+21.3431L55.4589+21.8919L55.8221+21.3431L56.0536+21.3431L55.5721+22.0423L56.077+22.7777L55.8358+22.7777L55.4491+22.1878L55.0516+22.7777Z" opacity="1" fill="#ffffff"/>
<path d="M56.8134+22.6116C56.8791+22.6116+56.9332+22.6048+56.9755+22.5911C57.051+22.5657+57.1128+22.5169+57.161+22.4446C57.1994+22.3867+57.2271+22.3125+57.244+22.222C57.2538+22.168+57.2587+22.1178+57.2587+22.0716C57.2587+21.8939+57.2234+21.7558+57.1527+21.6575C57.0821+21.5592+56.9683+21.5101+56.8114+21.5101L56.4667+21.5101L56.4667+22.6116L56.8134+22.6116ZM56.2714+21.3431L56.8524+21.3431C57.0497+21.3431+57.2027+21.4131+57.3114+21.553C57.4084+21.6793+57.4569+21.8411+57.4569+22.0384C57.4569+22.1907+57.4283+22.3284+57.371+22.4515C57.2701+22.6689+57.0966+22.7777+56.8505+22.7777L56.2714+22.7777L56.2714+21.3431Z" opacity="1" fill="#ffffff"/>
<path d="M58.0096+21.3431L58.1581+21.3431L57.703+22.7777L57.5546+22.7777L58.0096+21.3431Z" opacity="1" fill="#ffffff"/>
<path d="M58.3065+21.3431L58.5028+21.3431L58.5028+22.7777L58.3065+22.7777L58.3065+21.3431Z" opacity="1" fill="#ffffff"/>
<path d="M59.4374+21.304C59.6906+21.304+59.8781+21.3854+59.9999+21.5482C60.0949+21.6751+60.1425+21.8376+60.1425+22.0355C60.1425+22.2497+60.0881+22.4277+59.9794+22.5696C59.8518+22.7363+59.6698+22.8196+59.4335+22.8196C59.2128+22.8196+59.0393+22.7467+58.913+22.6009C58.8003+22.4603+58.744+22.2825+58.744+22.0677C58.744+21.8737+58.7922+21.7077+58.8886+21.5696C59.0123+21.3926+59.1952+21.304+59.4374+21.304ZM59.4569+22.6458C59.6281+22.6458+59.752+22.5845+59.8285+22.4617C59.905+22.339+59.9432+22.1979+59.9432+22.0384C59.9432+21.8698+59.8991+21.734+59.8109+21.6312C59.7227+21.5283+59.6021+21.4769+59.4491+21.4769C59.3007+21.4769+59.1796+21.5278+59.0858+21.6297C58.9921+21.7316+58.9452+21.8818+58.9452+22.0804C58.9452+22.2392+58.9854+22.3732+59.0658+22.4822C59.1462+22.5913+59.2766+22.6458+59.4569+22.6458Z" opacity="1" fill="#ffffff"/>
</g>
</g>
</svg>
