<?xml version="1.0" encoding="UTF-8" standalone="no"?> <!-- Created with Vectornator for iOS (http://vectornator.io/) --><!DOCTYPE svg PUBLIC "-//W3C//DTD SVG 1.1//EN" "http://www.w3.org/Graphics/SVG/1.1/DTD/svg11.dtd">
<svg height="5mm" style="fill-rule:nonzero;clip-rule:evenodd;stroke-linecap:round;stroke-linejoin:round;" xmlns:xlink="http://www.w3.org/1999/xlink" xmlns="http://www.w3.org/2000/svg" xml:space="preserve" width="20mm" xmlns:vectornator="http://vectornator.io" version="1.1" viewBox="0 0 80 19">
<metadata>
<vectornator:setting key="DimensionsVisible" value="1"/>
<vectornator:setting key="PencilOnly" value="0"/>
<vectornator:setting key="SnapToPoints" value="0"/>
<vectornator:setting key="OutlineMode" value="0"/>
<vectornator:setting key="GuidesVisible" value="1"/>
<vectornator:setting key="CMYKEnabledKey" value="0"/>
<vectornator:setting key="SnapToEdges" value="0"/>
<vectornator:setting key="RulersVisible" value="1"/>
<vectornator:setting key="DisplayWhiteBackground" value="0"/>
<vectornator:setting key="doHistoryDisabled" value="0"/>
<vectornator:setting key="TimeLapseWatermarkDisabled" value="0"/>
<vectornator:setting key="SnapToGuides" value="1"/>
<vectornator:setting key="Units" value="Points"/>
<vectornator:setting key="SnapToGrid" value="0"/>
<vectornator:setting key="DynamicGuides" value="0"/>
<vectornator:setting key="IsolateActiveLayer" value="0"/>
</metadata>
<defs/>
<g id="Layer 1" vectornator:layerName="Layer 1">
<path stroke="#000000" stroke-width="1" d="M1+1L67.7841+1L67.7841+1L67.7841+18L67.7841+18L1+18L1+18L1+1L1+1Z" fill="none" stroke-linecap="butt" opacity="1" stroke-linejoin="miter"/>
<g opacity="1">
<path d="M6.9809+6.18064C6.9908+6.35737+7.03251+6.50087+7.10603+6.61115C7.246+6.81757+7.49271+6.92078+7.84617+6.92078C8.00452+6.92078+8.14873+6.89816+8.2788+6.85292C8.53047+6.76526+8.6563+6.60832+8.6563+6.38211C8.6563+6.21245+8.60328+6.09157+8.49724+6.01946C8.38979+5.94877+8.22154+5.88727+7.9925+5.83496L7.57047+5.73952C7.29477+5.67731+7.09967+5.60874+6.98514+5.53381C6.78721+5.40374+6.68824+5.20933+6.68824+4.9506C6.68824+4.67066+6.78509+4.44092+6.97878+4.26136C7.17248+4.0818+7.44676+3.99202+7.80163+3.99202C8.12823+3.99202+8.40569+4.07084+8.63403+4.22849C8.86236+4.38613+8.97653+4.63815+8.97653+4.98454L8.57995+4.98454C8.55874+4.8177+8.5135+4.68975+8.44422+4.60068C8.31556+4.43809+8.09713+4.35679+7.78891+4.35679C7.54007+4.35679+7.36122+4.4091+7.25236+4.51373C7.14349+4.61835+7.08906+4.73994+7.08906+4.8785C7.08906+5.03119+7.15268+5.14288+7.27993+5.21358C7.36335+5.25882+7.55209+5.31537+7.84617+5.38324L8.28304+5.48291C8.49371+5.53098+8.6563+5.59673+8.77082+5.68014C8.96875+5.82577+9.06772+6.03714+9.06772+6.31425C9.06772+6.65922+8.94225+6.90594+8.69129+7.05439C8.44033+7.20284+8.14873+7.27707+7.81648+7.27707C7.42909+7.27707+7.12582+7.1781+6.90668+6.98016C6.68753+6.78364+6.58008+6.51713+6.58432+6.18064L6.9809+6.18064Z" opacity="1" fill="#000000"/>
<path d="M10.4971+4.86365C10.6583+4.86365+10.8145+4.90147+10.9658+4.97711C11.1171+5.05275+11.2323+5.15066+11.3115+5.27084C11.3878+5.38536+11.4387+5.51896+11.4642+5.67166C11.4868+5.77628+11.4981+5.94312+11.4981+6.17216L9.83331+6.17216C9.84038+6.40261+9.89482+6.58747+9.99661+6.72673C10.0984+6.866+10.2561+6.93563+10.4695+6.93563C10.6689+6.93563+10.8279+6.86988+10.9467+6.7384C11.0146+6.66205+11.0626+6.57369+11.0909+6.4733L11.4663+6.4733C11.4564+6.55672+11.4235+6.64968+11.3677+6.75218C11.3118+6.85468+11.2493+6.93845+11.18+7.00349C11.0641+7.1166+10.9206+7.19294+10.7495+7.23253C10.6576+7.25515+10.5537+7.26646+10.4377+7.26646C10.155+7.26646+9.91532+7.16361+9.71879+6.95789C9.52227+6.75218+9.42401+6.46411+9.42401+6.09369C9.42401+5.72892+9.52298+5.43272+9.72091+5.20509C9.91885+4.97747+10.1776+4.86365+10.4971+4.86365ZM11.1058+5.86889C11.0902+5.70347+11.0542+5.57128+10.9976+5.47231C10.893+5.28851+10.7184+5.19661+10.4738+5.19661C10.2985+5.19661+10.1514+5.25988+10.0327+5.38642C9.9139+5.51296+9.85099+5.67378+9.84392+5.86889L11.1058+5.86889Z" opacity="1" fill="#000000"/>
<path d="M12.9126+4.86365C13.0738+4.86365+13.2301+4.90147+13.3813+4.97711C13.5326+5.05275+13.6478+5.15066+13.727+5.27084C13.8034+5.38536+13.8543+5.51896+13.8797+5.67166C13.9023+5.77628+13.9136+5.94312+13.9136+6.17216L12.2489+6.17216C12.2559+6.40261+12.3104+6.58747+12.4121+6.72673C12.5139+6.866+12.6716+6.93563+12.8851+6.93563C13.0844+6.93563+13.2435+6.86988+13.3622+6.7384C13.4301+6.66205+13.4782+6.57369+13.5065+6.4733L13.8818+6.4733C13.8719+6.55672+13.8391+6.64968+13.7832+6.75218C13.7274+6.85468+13.6648+6.93845+13.5955+7.00349C13.4796+7.1166+13.3361+7.19294+13.165+7.23253C13.0731+7.25515+12.9692+7.26646+12.8533+7.26646C12.5705+7.26646+12.3309+7.16361+12.1343+6.95789C11.9378+6.75218+11.8395+6.46411+11.8395+6.09369C11.8395+5.72892+11.9385+5.43272+12.1365+5.20509C12.3344+4.97747+12.5931+4.86365+12.9126+4.86365ZM13.5213+5.86889C13.5057+5.70347+13.4697+5.57128+13.4131+5.47231C13.3085+5.28851+13.1339+5.19661+12.8893+5.19661C12.714+5.19661+12.567+5.25988+12.4482+5.38642C12.3294+5.51296+12.2665+5.67378+12.2595+5.86889L13.5213+5.86889Z" opacity="1" fill="#000000"/>
<path d="M15.3282+4.86365C15.4894+4.86365+15.6456+4.90147+15.7969+4.97711C15.9481+5.05275+16.0634+5.15066+16.1426+5.27084C16.2189+5.38536+16.2698+5.51896+16.2952+5.67166C16.3179+5.77628+16.3292+5.94312+16.3292+6.17216L14.6644+6.17216C14.6715+6.40261+14.7259+6.58747+14.8277+6.72673C14.9295+6.866+15.0871+6.93563+15.3006+6.93563C15.5+6.93563+15.659+6.86988+15.7778+6.7384C15.8456+6.66205+15.8937+6.57369+15.922+6.4733L16.2974+6.4733C16.2875+6.55672+16.2546+6.64968+16.1988+6.75218C16.1429+6.85468+16.0803+6.93845+16.0111+7.00349C15.8951+7.1166+15.7516+7.19294+15.5806+7.23253C15.4887+7.25515+15.3847+7.26646+15.2688+7.26646C14.986+7.26646+14.7464+7.16361+14.5499+6.95789C14.3533+6.75218+14.2551+6.46411+14.2551+6.09369C14.2551+5.72892+14.3541+5.43272+14.552+5.20509C14.7499+4.97747+15.0087+4.86365+15.3282+4.86365ZM15.9368+5.86889C15.9213+5.70347+15.8852+5.57128+15.8287+5.47231C15.7241+5.28851+15.5494+5.19661+15.3049+5.19661C15.1295+5.19661+14.9825+5.25988+14.8637+5.38642C14.745+5.51296+14.6821+5.67378+14.675+5.86889L15.9368+5.86889Z" opacity="1" fill="#000000"/>
<path d="M17.0396+6.07672C17.0396+6.3199+17.0912+6.52349+17.1944+6.6875C17.2977+6.8515+17.4631+6.93351+17.6907+6.93351C17.8674+6.93351+18.0127+6.85751+18.1265+6.70553C18.2403+6.55354+18.2972+6.33545+18.2972+6.05127C18.2972+5.76426+18.2386+5.55184+18.1212+5.41399C18.0039+5.27614+17.8589+5.20721+17.6865+5.20721C17.4942+5.20721+17.3383+5.28073+17.2188+5.42777C17.0994+5.57481+17.0396+5.79113+17.0396+6.07672ZM17.6144+4.87426C17.7883+4.87426+17.9339+4.91102+18.0512+4.98454C18.1191+5.02695+18.1961+5.10118+18.2824+5.20721L18.2824+4.05989L18.6493+4.05989L18.6493+7.18588L18.3057+7.18588L18.3057+6.86988C18.2166+7.00985+18.1113+7.11094+17.9897+7.17315C17.8681+7.23536+17.7289+7.26646+17.5719+7.26646C17.3189+7.26646+17.0997+7.16007+16.9145+6.94729C16.7293+6.73451+16.6367+6.45139+16.6367+6.09793C16.6367+5.76709+16.7212+5.48044+16.8901+5.23797C17.0591+4.99549+17.3005+4.87426+17.6144+4.87426Z" opacity="1" fill="#000000"/>
<path d="M8.15368+10.4978C8.35162+10.4978+8.5082+10.4582+8.62343+10.379C8.73865+10.2998+8.79627+10.157+8.79627+9.9506C8.79627+9.72863+8.71568+9.57735+8.5545+9.49676C8.46826+9.45435+8.35303+9.43314+8.20882+9.43314L7.17813+9.43314L7.17813+10.4978L8.15368+10.4978ZM6.7561+9.07049L8.19821+9.07049C8.43574+9.07049+8.63155+9.10513+8.78566+9.17441C9.07833+9.30731+9.22466+9.55261+9.22466+9.91031C9.22466+10.0969+9.18613+10.2496+9.10908+10.3684C9.03202+10.4872+8.92422+10.5826+8.78566+10.6547C8.90725+10.7042+8.9988+10.7692+9.0603+10.8498C9.1218+10.9304+9.15609+11.0612+9.16316+11.2421L9.178+11.6599C9.18224+11.7787+9.19214+11.8671+9.20769+11.925C9.23314+12.024+9.27838+12.0876+9.34342+12.1159L9.34342+12.1859L8.82596+12.1859C8.81182+12.159+8.80051+12.1244+8.79203+12.082C8.78354+12.0395+8.77647+11.9575+8.77082+11.836L8.74537+11.3164C8.73547+11.1128+8.65983+10.9763+8.51845+10.9071C8.43786+10.8689+8.31132+10.8498+8.13883+10.8498L7.17813+10.8498L7.17813+12.1859L6.7561+12.1859L6.7561+9.07049Z" opacity="1" fill="#000000"/>
<path d="M10.7368+9.86365C10.8979+9.86365+11.0542+9.90147+11.2054+9.97711C11.3567+10.0528+11.4719+10.1507+11.5511+10.2708C11.6275+10.3854+11.6784+10.519+11.7038+10.6717C11.7264+10.7763+11.7377+10.9431+11.7377+11.1722L10.073+11.1722C10.08+11.4026+10.1345+11.5875+10.2363+11.7267C10.3381+11.866+10.4957+11.9356+10.7092+11.9356C10.9085+11.9356+11.0676+11.8699+11.1864+11.7384C11.2542+11.662+11.3023+11.5737+11.3306+11.4733L11.7059+11.4733C11.696+11.5567+11.6632+11.6497+11.6073+11.7522C11.5515+11.8547+11.4889+11.9385+11.4196+12.0035C11.3037+12.1166+11.1602+12.1929+10.9891+12.2325C10.8972+12.2552+10.7933+12.2665+10.6774+12.2665C10.3946+12.2665+10.155+12.1636+9.95844+11.9579C9.76192+11.7522+9.66365+11.4641+9.66365+11.0937C9.66365+10.7289+9.76262+10.4327+9.96056+10.2051C10.1585+9.97747+10.4172+9.86365+10.7368+9.86365ZM11.3454+10.8689C11.3299+10.7035+11.2938+10.5713+11.2373+10.4723C11.1326+10.2885+10.958+10.1966+10.7134+10.1966C10.5381+10.1966+10.3911+10.2599+10.2723+10.3864C10.1535+10.513+10.0906+10.6738+10.0836+10.8689L11.3454+10.8689Z" opacity="1" fill="#000000"/>
<path d="M12.533+11.1806C12.5429+11.3574+12.5846+11.5009+12.6582+11.6112C12.7981+11.8176+13.0448+11.9208+13.3983+11.9208C13.5566+11.9208+13.7009+11.8982+13.8309+11.8529C14.0826+11.7653+14.2084+11.6083+14.2084+11.3821C14.2084+11.2125+14.1554+11.0916+14.0494+11.0195C13.9419+10.9488+13.7737+10.8873+13.5446+10.835L13.1226+10.7395C12.8469+10.6773+12.6518+10.6087+12.5373+10.5338C12.3393+10.4037+12.2404+10.2093+12.2404+9.9506C12.2404+9.67066+12.3372+9.44092+12.5309+9.26136C12.7246+9.0818+12.9989+8.99202+13.3538+8.99202C13.6804+8.99202+13.9578+9.07084+14.1862+9.22849C14.4145+9.38613+14.5287+9.63815+14.5287+9.98454L14.1321+9.98454C14.1109+9.8177+14.0656+9.68975+13.9964+9.60068C13.8677+9.43809+13.6493+9.35679+13.341+9.35679C13.0922+9.35679+12.9134+9.4091+12.8045+9.51373C12.6956+9.61835+12.6412+9.73994+12.6412+9.8785C12.6412+10.0312+12.7048+10.1429+12.8321+10.2136C12.9155+10.2588+13.1042+10.3154+13.3983+10.3832L13.8352+10.4829C14.0458+10.531+14.2084+10.5967+14.3229+10.6801C14.5209+10.8258+14.6199+11.0371+14.6199+11.3142C14.6199+11.6592+14.4944+11.9059+14.2434+12.0544C13.9925+12.2028+13.7009+12.2771+13.3686+12.2771C12.9812+12.2771+12.6779+12.1781+12.4588+11.9802C12.2397+11.7836+12.1322+11.5171+12.1365+11.1806L12.533+11.1806Z" opacity="1" fill="#000000"/>
<path d="M16.062+11.9293C16.2401+11.9293+16.3882+11.8547+16.5063+11.7055C16.6243+11.5564+16.6833+11.3333+16.6833+11.0364C16.6833+10.8555+16.6572+10.6999+16.6049+10.5699C16.5059+10.3196+16.3249+10.1945+16.062+10.1945C15.7976+10.1945+15.6166+10.3267+15.5191+10.5911C15.4667+10.7325+15.4406+10.912+15.4406+11.1297C15.4406+11.3051+15.4667+11.4542+15.5191+11.5772C15.618+11.8119+15.799+11.9293+16.062+11.9293ZM15.0737+9.92515L15.4448+9.92515L15.4448+10.2263C15.5212+10.1231+15.6046+10.0432+15.6951+9.98666C15.8237+9.90183+15.975+9.85941+16.1489+9.85941C16.4062+9.85941+16.6247+9.95803+16.8042+10.1553C16.9838+10.3525+17.0736+10.6342+17.0736+11.0004C17.0736+11.4952+16.9442+11.8487+16.6855+12.0608C16.5215+12.1951+16.3306+12.2622+16.1129+12.2622C15.9418+12.2622+15.7983+12.2248+15.6823+12.1498C15.6145+12.1074+15.5388+12.0346+15.4554+11.9314L15.4554+13.0914L15.0737+13.0914L15.0737+9.92515Z" opacity="1" fill="#000000"/>
<path d="M18.4648+9.86365C18.626+9.86365+18.7822+9.90147+18.9335+9.97711C19.0847+10.0528+19.2+10.1507+19.2791+10.2708C19.3555+10.3854+19.4064+10.519+19.4318+10.6717C19.4545+10.7763+19.4658+10.9431+19.4658+11.1722L17.801+11.1722C17.808+11.4026+17.8625+11.5875+17.9643+11.7267C18.0661+11.866+18.2237+11.9356+18.4372+11.9356C18.6366+11.9356+18.7956+11.8699+18.9144+11.7384C18.9822+11.662+19.0303+11.5737+19.0586+11.4733L19.434+11.4733C19.4241+11.5567+19.3912+11.6497+19.3353+11.7522C19.2795+11.8547+19.2169+11.9385+19.1477+12.0035C19.0317+12.1166+18.8882+12.1929+18.7171+12.2325C18.6252+12.2552+18.5213+12.2665+18.4054+12.2665C18.1226+12.2665+17.883+12.1636+17.6865+11.9579C17.4899+11.7522+17.3917+11.4641+17.3917+11.0937C17.3917+10.7289+17.4906+10.4327+17.6886+10.2051C17.8865+9.97747+18.1452+9.86365+18.4648+9.86365ZM19.0734+10.8689C19.0579+10.7035+19.0218+10.5713+18.9653+10.4723C18.8606+10.2885+18.686+10.1966+18.4414+10.1966C18.2661+10.1966+18.1191+10.2599+18.0003+10.3864C17.8816+10.513+17.8187+10.6738+17.8116+10.8689L19.0734+10.8689Z" opacity="1" fill="#000000"/>
<path d="M20.2271+11.5815C20.2271+11.6917+20.2674+11.7787+20.348+11.8423C20.4286+11.9059+20.524+11.9377+20.6343+11.9377C20.7686+11.9377+20.8987+11.9066+21.0245+11.8444C21.2366+11.7412+21.3426+11.5723+21.3426+11.3376L21.3426+11.0301C21.296+11.0598+21.2359+11.0845+21.1624+11.1043C21.0889+11.1241+21.0167+11.1382+20.9461+11.1467L20.7149+11.1764C20.5763+11.1948+20.4724+11.2238+20.4031+11.2633C20.2858+11.3298+20.2271+11.4358+20.2271+11.5815ZM21.1518+10.8095C21.2394+10.7982+21.2981+10.7614+21.3278+10.6992C21.3448+10.6653+21.3532+10.6165+21.3532+10.5529C21.3532+10.4228+21.3069+10.3285+21.2143+10.2698C21.1217+10.2111+20.9892+10.1818+20.8167+10.1818C20.6173+10.1818+20.476+10.2355+20.3925+10.3429C20.3459+10.4023+20.3155+10.4907+20.3013+10.608L19.9451+10.608C19.9521+10.3281+20.043+10.1333+20.2176+10.0238C20.3922+9.9142+20.5947+9.85941+20.8252+9.85941C21.0924+9.85941+21.3094+9.91031+21.4762+10.0121C21.6417+10.1139+21.7244+10.2723+21.7244+10.4872L21.7244+11.7957C21.7244+11.8352+21.7325+11.8671+21.7488+11.8911C21.765+11.9151+21.7993+11.9271+21.8516+11.9271C21.8686+11.9271+21.8877+11.9261+21.9089+11.924C21.9301+11.9218+21.9527+11.9187+21.9767+11.9144L21.9767+12.1965C21.9174+12.2134+21.8721+12.224+21.841+12.2283C21.8099+12.2325+21.7675+12.2347+21.7138+12.2347C21.5823+12.2347+21.4868+12.188+21.4275+12.0947C21.3964+12.0452+21.3744+11.9752+21.3617+11.8847C21.284+11.9865+21.1723+12.0749+21.0266+12.1498C20.881+12.2248+20.7205+12.2622+20.5452+12.2622C20.3346+12.2622+20.1624+12.1982+20.0288+12.0703C19.8952+11.9423+19.8284+11.7822+19.8284+11.5899C19.8284+11.3793+19.8942+11.216+20.0256+11.1001C20.1571+10.9841+20.3296+10.9127+20.5431+10.8859L21.1518+10.8095Z" opacity="1" fill="#000000"/>
<path d="M22.3415+9.07049L22.7084+9.07049L22.7084+10.8795L23.6882+9.91455L24.176+9.91455L23.3065+10.765L24.2247+12.1859L23.737+12.1859L23.0286+11.0407L22.7084+11.3333L22.7084+12.1859L22.3415+12.1859L22.3415+9.07049Z" opacity="1" fill="#000000"/>
<path d="M25.4675+9.86365C25.6287+9.86365+25.7849+9.90147+25.9362+9.97711C26.0875+10.0528+26.2027+10.1507+26.2819+10.2708C26.3582+10.3854+26.4091+10.519+26.4346+10.6717C26.4572+10.7763+26.4685+10.9431+26.4685+11.1722L24.8037+11.1722C24.8108+11.4026+24.8652+11.5875+24.967+11.7267C25.0688+11.866+25.2264+11.9356+25.4399+11.9356C25.6393+11.9356+25.7983+11.8699+25.9171+11.7384C25.985+11.662+26.033+11.5737+26.0613+11.4733L26.4367+11.4733C26.4268+11.5567+26.3939+11.6497+26.3381+11.7522C26.2822+11.8547+26.2197+11.9385+26.1504+12.0035C26.0344+12.1166+25.8909+12.1929+25.7199+12.2325C25.628+12.2552+25.5241+12.2665+25.4081+12.2665C25.1253+12.2665+24.8857+12.1636+24.6892+11.9579C24.4927+11.7522+24.3944+11.4641+24.3944+11.0937C24.3944+10.7289+24.4934+10.4327+24.6913+10.2051C24.8892+9.97747+25.148+9.86365+25.4675+9.86365ZM26.0762+10.8689C26.0606+10.7035+26.0245+10.5713+25.968+10.4723C25.8634+10.2885+25.6888+10.1966+25.4442+10.1966C25.2689+10.1966+25.1218+10.2599+25.0031+10.3864C24.8843+10.513+24.8214+10.6738+24.8143+10.8689L26.0762+10.8689Z" opacity="1" fill="#000000"/>
<path d="M26.9478+9.91455L27.3104+9.91455L27.3104+10.3069C27.3401+10.2305+27.4129+10.1376+27.5289+10.028C27.6448+9.91844+27.7784+9.86365+27.9297+9.86365C27.9368+9.86365+27.9488+9.86436+27.9657+9.86577C27.9827+9.86719+28.0117+9.87001+28.0527+9.87426L28.0527+10.2772C28.0301+10.273+28.0092+10.2701+27.9901+10.2687C27.971+10.2673+27.9502+10.2666+27.9276+10.2666C27.7353+10.2666+27.5875+10.3285+27.4843+10.4522C27.3811+10.5759+27.3295+10.7183+27.3295+10.8795L27.3295+12.1859L26.9478+12.1859L26.9478+9.91455Z" opacity="1" fill="#000000"/>
<path d="M29.446+12.1859C29.4602+11.9243+29.5142+11.6967+29.6083+11.503C29.7023+11.3093+29.8857+11.1333+30.1586+10.9749L30.5658+10.7395C30.7482+10.6335+30.8761+10.543+30.9496+10.4681C31.0656+10.3507+31.1235+10.2164+31.1235+10.0651C31.1235+9.88839+31.0705+9.74807+30.9645+9.64415C30.8584+9.54024+30.7171+9.48828+30.5403+9.48828C30.2788+9.48828+30.0978+9.58725+29.9974+9.78518C29.9437+9.89122+29.914+10.0383+29.9084+10.2263L29.5203+10.2263C29.5245+9.96191+29.5733+9.7463+29.6666+9.57947C29.832+9.28539+30.124+9.13836+30.5425+9.13836C30.8903+9.13836+31.1444+9.23238+31.3049+9.42042C31.4653+9.60846+31.5456+9.8177+31.5456+10.0482C31.5456+10.2913+31.46+10.4992+31.289+10.6717C31.19+10.772+31.0126+10.8936+30.7567+11.0364L30.4661+11.1976C30.3276+11.274+30.2187+11.3468+30.1395+11.416C29.9981+11.539+29.9091+11.6755+29.8723+11.8253L31.5307+11.8253L31.5307+12.1859L29.446+12.1859Z" opacity="1" fill="#000000"/>
</g>
<g opacity="1">
<path d="M55.8365+4.41101L55.8365+6.33666C55.8365+6.56287+55.8789+6.75091+55.9637+6.90078C56.0895+7.12699+56.3016+7.2401+56.5999+7.2401C56.9576+7.2401+57.2008+7.1178+57.3295+6.87321C57.3987+6.74031+57.4334+6.56146+57.4334+6.33666L57.4334+4.41101L57.8618+4.41101L57.8618+6.16063C57.8618+6.54378+57.8102+6.83857+57.707+7.04499C57.5175+7.42107+57.1598+7.60911+56.6339+7.60911C56.1079+7.60911+55.7509+7.42107+55.5629+7.04499C55.4597+6.83857+55.4081+6.54378+55.4081+6.16063L55.4081+4.41101L55.8365+4.41101Z" opacity="1" fill="#000000"/>
<path d="M58.7907+6.52116C58.8006+6.69789+58.8423+6.8414+58.9158+6.95167C59.0558+7.15809+59.3025+7.2613+59.6559+7.2613C59.8143+7.2613+59.9585+7.23868+60.0886+7.19344C60.3402+7.10578+60.4661+6.94885+60.4661+6.72263C60.4661+6.55297+60.413+6.43209+60.307+6.35999C60.1996+6.28929+60.0313+6.22779+59.8023+6.17548L59.3802+6.08005C59.1045+6.01784+58.9094+5.94927+58.7949+5.87433C58.597+5.74426+58.498+5.54986+58.498+5.29113C58.498+5.01119+58.5949+4.78144+58.7885+4.60188C58.9822+4.42232+59.2565+4.33255+59.6114+4.33255C59.938+4.33255+60.2155+4.41137+60.4438+4.56901C60.6721+4.72665+60.7863+4.97867+60.7863+5.32506L60.3897+5.32506C60.3685+5.15823+60.3233+5.03027+60.254+4.9412C60.1253+4.77861+59.9069+4.69732+59.5987+4.69732C59.3498+4.69732+59.171+4.74963+59.0621+4.85425C58.9533+4.95887+58.8988+5.08046+58.8988+5.21902C58.8988+5.37171+58.9625+5.48341+59.0897+5.5541C59.1731+5.59934+59.3619+5.6559+59.6559+5.72376L60.0928+5.82343C60.3035+5.87151+60.4661+5.93725+60.5806+6.02066C60.7785+6.16629+60.8775+6.37766+60.8775+6.65477C60.8775+6.99975+60.752+7.24646+60.5011+7.39491C60.2501+7.54336+59.9585+7.61759+59.6262+7.61759C59.2389+7.61759+58.9356+7.51862+58.7164+7.32069C58.4973+7.12416+58.3898+6.85765+58.3941+6.52116L58.7907+6.52116Z" opacity="1" fill="#000000"/>
<path d="M62.5826+5.728C62.7607+5.728+62.8993+5.70326+62.9982+5.65377C63.1538+5.57601+63.2315+5.43604+63.2315+5.23387C63.2315+5.03027+63.1488+4.89313+62.9834+4.82244C62.8901+4.78285+62.7515+4.76306+62.5677+4.76306L61.8149+4.76306L61.8149+5.728L62.5826+5.728ZM62.7247+7.16587C62.9834+7.16587+63.1679+7.09094+63.2782+6.94107C63.3475+6.84634+63.3821+6.73182+63.3821+6.59751C63.3821+6.3713+63.281+6.21719+63.0788+6.13519C62.9714+6.09136+62.8293+6.06944+62.6526+6.06944L61.8149+6.06944L61.8149+7.16587L62.7247+7.16587ZM61.4013+4.41101L62.7395+4.41101C63.1043+4.41101+63.3637+4.51988+63.5178+4.73761C63.6083+4.86627+63.6536+5.01472+63.6536+5.18297C63.6536+5.37949+63.5977+5.54067+63.486+5.6665C63.428+5.73295+63.3446+5.79374+63.2358+5.84888C63.3955+5.90968+63.515+5.97825+63.5942+6.0546C63.7341+6.19032+63.8041+6.37766+63.8041+6.6166C63.8041+6.81736+63.7412+6.99904+63.6154+7.16163C63.4273+7.40481+63.1283+7.5264+62.7183+7.5264L61.4013+7.5264L61.4013+4.41101Z" opacity="1" fill="#000000"/>
</g>
<g opacity="1">
<path d="M46.5921+12.0889L46.1192+10.7125L45.6166+12.0889L46.5921+12.0889ZM45.8986+10.2502L46.3758+10.2502L47.5061+13.3656L47.0438+13.3656L46.7278+12.4324L45.4957+12.4324L45.1585+13.3656L44.7258+13.3656L45.8986+10.2502Z" opacity="1" fill="#000000"/>
<path d="M48.2208+11.0942L48.2208+12.6021C48.2208+12.718+48.2392+12.8127+48.276+12.8863C48.3438+13.022+48.4704+13.0899+48.6556+13.0899C48.9214+13.0899+49.1024+12.9711+49.1985+12.7336C49.2508+12.6063+49.277+12.4317+49.277+12.2097L49.277+11.0942L49.6587+11.0942L49.6587+13.3656L49.2982+13.3656L49.3024+13.0305C49.2529+13.1167+49.1914+13.1895+49.1179+13.2489C48.9723+13.3677+48.7956+13.4271+48.5877+13.4271C48.264+13.4271+48.0434+13.3189+47.9261+13.1026C47.8624+12.9866+47.8306+12.8318+47.8306+12.6381L47.8306+11.0942L48.2208+11.0942Z" opacity="1" fill="#000000"/>
<path d="M50.4964+12.2564C50.4964+12.4996+50.548+12.7032+50.6512+12.8672C50.7544+13.0312+50.9199+13.1132+51.1475+13.1132C51.3242+13.1132+51.4695+13.0372+51.5833+12.8852C51.6971+12.7332+51.754+12.5151+51.754+12.231C51.754+11.9439+51.6953+11.7315+51.578+11.5937C51.4606+11.4558+51.3157+11.3869+51.1432+11.3869C50.951+11.3869+50.7951+11.4604+50.6756+11.6074C50.5561+11.7545+50.4964+11.9708+50.4964+12.2564ZM51.0711+11.0539C51.245+11.0539+51.3907+11.0907+51.508+11.1642C51.5759+11.2066+51.6529+11.2809+51.7392+11.3869L51.7392+10.2396L52.1061+10.2396L52.1061+13.3656L51.7625+13.3656L51.7625+13.0496C51.6734+13.1895+51.5681+13.2906+51.4465+13.3528C51.3249+13.415+51.1857+13.4461+51.0287+13.4461C50.7756+13.4461+50.5565+13.3398+50.3713+13.127C50.1861+12.9142+50.0935+12.6311+50.0935+12.2776C50.0935+11.9468+50.1779+11.6601+50.3469+11.4176C50.5158+11.1752+50.7573+11.0539+51.0711+11.0539Z" opacity="1" fill="#000000"/>
<path d="M52.6702+11.1048L53.0583+11.1048L53.0583+13.3656L52.6702+13.3656L52.6702+11.1048ZM52.6702+10.2502L53.0583+10.2502L53.0583+10.6828L52.6702+10.6828L52.6702+10.2502Z" opacity="1" fill="#000000"/>
<path d="M54.5364+13.1195C54.7895+13.1195+54.9631+13.0238+55.0571+12.8322C55.1511+12.6406+55.1981+12.4275+55.1981+12.1928C55.1981+11.9807+55.1642+11.8082+55.0963+11.6753C54.9889+11.4661+54.8037+11.3614+54.5407+11.3614C54.3074+11.3614+54.1377+11.4505+54.0317+11.6287C53.9257+11.8068+53.8726+12.0217+53.8726+12.2734C53.8726+12.5151+53.9257+12.7166+54.0317+12.8778C54.1377+13.039+54.306+13.1195+54.5364+13.1195ZM54.5513+11.0285C54.8439+11.0285+55.0914+11.126+55.2935+11.3211C55.4957+11.5163+55.5968+11.8033+55.5968+12.1822C55.5968+12.5484+55.5077+12.8509+55.3296+13.0899C55.1515+13.3288+54.8751+13.4483+54.5004+13.4483C54.1879+13.4483+53.9398+13.3426+53.756+13.1312C53.5722+12.9198+53.4803+12.636+53.4803+12.2797C53.4803+11.898+53.5772+11.594+53.7708+11.3678C53.9645+11.1416+54.2247+11.0285+54.5513+11.0285Z" opacity="1" fill="#000000"/>
<path d="M58.6528+10.1653C59.2028+10.1653+59.61+10.3421+59.8744+10.6955C60.0808+10.9712+60.184+11.324+60.184+11.7538C60.184+12.2189+60.0659+12.6056+59.8298+12.9138C59.5527+13.2758+59.1576+13.4567+58.6443+13.4567C58.165+13.4567+57.7883+13.2984+57.514+12.9817C57.2694+12.6763+57.1471+12.2903+57.1471+11.8238C57.1471+11.4024+57.2517+11.0419+57.461+10.7422C57.7296+10.3576+58.1269+10.1653+58.6528+10.1653ZM58.6952+13.0793C59.0671+13.0793+59.3361+12.946+59.5022+12.6795C59.6683+12.413+59.7514+12.1065+59.7514+11.7601C59.7514+11.394+59.6556+11.0992+59.464+10.8758C59.2724+10.6524+59.0105+10.5407+58.6783+10.5407C58.3559+10.5407+58.0929+10.6513+57.8893+10.8726C57.6858+11.0939+57.584+11.4201+57.584+11.8513C57.584+12.1963+57.6713+12.4872+57.8459+12.724C58.0205+12.9608+58.3036+13.0793+58.6952+13.0793Z" opacity="1" fill="#000000"/>
<path d="M61.0175+11.0942L61.0175+12.6021C61.0175+12.718+61.0358+12.8127+61.0726+12.8863C61.1405+13.022+61.267+13.0899+61.4522+13.0899C61.718+13.0899+61.899+12.9711+61.9951+12.7336C62.0474+12.6063+62.0736+12.4317+62.0736+12.2097L62.0736+11.0942L62.4553+11.0942L62.4553+13.3656L62.0948+13.3656L62.099+13.0305C62.0496+13.1167+61.9881+13.1895+61.9145+13.2489C61.7689+13.3677+61.5922+13.4271+61.3843+13.4271C61.0606+13.4271+60.84+13.3189+60.7227+13.1026C60.6591+12.9866+60.6272+12.8318+60.6272+12.6381L60.6272+11.0942L61.0175+11.0942Z" opacity="1" fill="#000000"/>
<path d="M63.1276+10.4601L63.5136+10.4601L63.5136+11.0942L63.8762+11.0942L63.8762+11.406L63.5136+11.406L63.5136+12.8884C63.5136+12.9676+63.5404+13.0206+63.5942+13.0474C63.6239+13.063+63.6733+13.0708+63.7426+13.0708C63.761+13.0708+63.7808+13.0704+63.802+13.0697C63.8232+13.069+63.848+13.0672+63.8762+13.0644L63.8762+13.3656C63.8324+13.3783+63.7868+13.3875+63.7394+13.3931C63.6921+13.3988+63.6408+13.4016+63.5857+13.4016C63.4075+13.4016+63.2867+13.356+63.223+13.2648C63.1594+13.1736+63.1276+13.0552+63.1276+12.9096L63.1276+11.406L62.8201+11.406L62.8201+11.0942L63.1276+11.0942L63.1276+10.4601Z" opacity="1" fill="#000000"/>
</g>
<path stroke="#000000" stroke-width="1" d="M68.1911+5.48381L79.9909+5.48381" fill="none" stroke-linecap="butt" opacity="1" stroke-linejoin="miter"/>
<path stroke="#000000" stroke-width="1" d="M68.1911+11.3367L79.9909+11.3367" fill="none" stroke-linecap="butt" opacity="1" stroke-linejoin="miter"/>
</g>
</svg>
