<?xml version="1.0" encoding="UTF-8" standalone="no"?> <!-- Created with Vectornator for iOS (http://vectornator.io/) --><!DOCTYPE svg PUBLIC "-//W3C//DTD SVG 1.1//EN" "http://www.w3.org/Graphics/SVG/1.1/DTD/svg11.dtd">
<svg height="70mm" style="fill-rule:nonzero;clip-rule:evenodd;stroke-linecap:round;stroke-linejoin:round;" xmlns:xlink="http://www.w3.org/1999/xlink" xmlns="http://www.w3.org/2000/svg" xml:space="preserve" width="70mm" xmlns:vectornator="http://vectornator.io" version="1.1" viewBox="0 0 70 70">
<metadata>
<vectornator:setting key="DimensionsVisible" value="1"/>
<vectornator:setting key="PencilOnly" value="0"/>
<vectornator:setting key="SnapToPoints" value="0"/>
<vectornator:setting key="OutlineMode" value="0"/>
<vectornator:setting key="GuidesVisible" value="1"/>
<vectornator:setting key="CMYKEnabledKey" value="0"/>
<vectornator:setting key="SnapToEdges" value="0"/>
<vectornator:setting key="RulersVisible" value="1"/>
<vectornator:setting key="DisplayWhiteBackground" value="0"/>
<vectornator:setting key="doHistoryDisabled" value="0"/>
<vectornator:setting key="TimeLapseWatermarkDisabled" value="0"/>
<vectornator:setting key="SnapToGuides" value="1"/>
<vectornator:setting key="Units" value="Points"/>
<vectornator:setting key="SnapToGrid" value="0"/>
<vectornator:setting key="DynamicGuides" value="0"/>
<vectornator:setting key="IsolateActiveLayer" value="0"/>
</metadata>
<defs/>
<g id="breadboard" vectornator:layerName="breadboard">
<path d="M0+35C0+15.67+15.67+0+35+0C54.33+0+70+15.67+70+35C70+54.33+54.33+70+35+70C15.67+70+0+54.33+0+35Z" opacity="1" fill="#4a3f3f"/>
<path d="M27.6426+11.4373L43.3639+11.4373L43.3639+27.327L27.6426+27.327L27.6426+11.4373Z" opacity="1" fill="#333333"/>
<path d="M-41.1448+25.8305C-42.5255+25.8305-43.6448+26.9498-43.6448+28.3305C-43.6448+29.7112-42.5255+30.8305-41.1448+30.8305C-39.7641+30.8305-38.6448+29.7112-38.6448+28.3305C-38.6448+26.9498-39.7641+25.8305-41.1448+25.8305Z" opacity="1" fill="#9a916c"/>
<path d="M-45.1888+28.6994C-44.3603+28.6994-43.6887+29.371-43.6888+30.1994C-43.6888+31.0278-44.3603+31.6994-45.1888+31.6994C-46.0172+31.6994-46.6888+31.0278-46.6888+30.1994C-46.6888+29.371-46.0172+28.6994-45.1888+28.6994Z" opacity="1" fill="#9a916c"/>
<path d="M-36.3776+18.3433C-37.7583+18.3433-38.8776+19.4625-38.8776+20.8433C-38.8777+22.224-37.7584+23.3433-36.3776+23.3433C-34.9969+23.3433-33.8776+22.224-33.8776+20.8433C-33.8776+19.4625-34.9969+18.3433-36.3776+18.3433Z" opacity="1" fill="#9a916c"/>
<path d="M38.6185+64.0343C37.2378+64.0343+36.1185+65.1536+36.1185+66.5343C36.1185+67.915+37.2378+69.0343+38.6185+69.0343C39.9992+69.0343+41.1185+67.915+41.1185+66.5343C41.1185+65.1536+39.9992+64.0343+38.6185+64.0343ZM38.6185+65.0343C39.4469+65.0343+40.1185+65.7059+40.1185+66.5343C40.1185+67.3627+39.4469+68.0343+38.6185+68.0343C37.7901+68.0343+37.1185+67.3627+37.1185+66.5343C37.1185+65.7059+37.79+65.0343+38.6185+65.0343Z" opacity="1" fill="#9a916c"/>
<path d="M29.798+64.0343C28.4173+64.0343+27.298+65.1536+27.298+66.5343C27.298+67.915+28.4173+69.0343+29.798+69.0343C31.1788+69.0343+32.298+67.915+32.298+66.5343C32.298+65.1536+31.1788+64.0343+29.798+64.0343ZM29.798+65.0343C30.6265+65.0343+31.2981+65.7059+31.298+66.5343C31.298+67.3627+30.6265+68.0343+29.798+68.0343C28.9696+68.0343+28.298+67.3627+28.298+66.5343C28.298+65.7059+28.9696+65.0343+29.798+65.0343Z" opacity="1" fill="#9a916c"/>
<g opacity="1">
<path d="M28.3732+60.5712L28.3732+61.4579C28.3732+61.5621+28.3927+61.6487+28.4317+61.7177C28.4897+61.8218+28.5873+61.8739+28.7247+61.8739C28.8894+61.8739+29.0014+61.8176+29.0607+61.705C29.0926+61.6438+29.1085+61.5614+29.1085+61.4579L29.1085+60.5712L29.3058+60.5712L29.3058+61.3769C29.3058+61.5533+29.282+61.689+29.2345+61.7841C29.1472+61.9573+28.9825+62.0439+28.7403+62.0439C28.4982+62.0439+28.3338+61.9573+28.2472+61.7841C28.1997+61.689+28.1759+61.5533+28.1759+61.3769L28.1759+60.5712L28.3732+60.5712Z" opacity="1" fill="#ffffff"/>
<path d="M29.7335+61.5429C29.7381+61.6243+29.7573+61.6903+29.7911+61.7411C29.8556+61.8362+29.9692+61.8837+30.1319+61.8837C30.2049+61.8837+30.2713+61.8733+30.3312+61.8524C30.447+61.8121+30.505+61.7398+30.505+61.6356C30.505+61.5575+30.4806+61.5019+30.4317+61.4687C30.3823+61.4361+30.3048+61.4078+30.1993+61.3837L30.005+61.3398C29.878+61.3111+29.7882+61.2795+29.7355+61.245C29.6443+61.1851+29.5987+61.0956+29.5987+60.9765C29.5987+60.8476+29.6433+60.7418+29.7325+60.6591C29.8217+60.5764+29.948+60.5351+30.1114+60.5351C30.2618+60.5351+30.3896+60.5714+30.4947+60.6439C30.5999+60.7165+30.6525+60.8326+30.6525+60.9921L30.4698+60.9921C30.4601+60.9153+30.4392+60.8564+30.4073+60.8153C30.3481+60.7405+30.2475+60.703+30.1056+60.703C29.991+60.703+29.9086+60.7271+29.8585+60.7753C29.8084+60.8235+29.7833+60.8795+29.7833+60.9433C29.7833+61.0136+29.8126+61.065+29.8712+61.0976C29.9096+61.1184+29.9965+61.1444+30.1319+61.1757L30.3331+61.2216C30.4301+61.2437+30.505+61.274+30.5577+61.3124C30.6489+61.3795+30.6944+61.4768+30.6944+61.6044C30.6944+61.7633+30.6367+61.8769+30.5211+61.9452C30.4055+62.0136+30.2713+62.0478+30.1183+62.0478C29.9399+62.0478+29.8002+62.0022+29.6993+61.911C29.5984+61.8205+29.5489+61.6978+29.5509+61.5429L29.7335+61.5429Z" opacity="1" fill="#ffffff"/>
<path d="M31.4796+61.1776C31.5616+61.1776+31.6254+61.1662+31.671+61.1435C31.7426+61.1077+31.7784+61.0432+31.7784+60.9501C31.7784+60.8564+31.7403+60.7932+31.6642+60.7606C31.6212+60.7424+31.5574+60.7333+31.4728+60.7333L31.1261+60.7333L31.1261+61.1776L31.4796+61.1776ZM31.545+61.8398C31.6642+61.8398+31.7491+61.8052+31.7999+61.7362C31.8318+61.6926+31.8478+61.6399+31.8478+61.578C31.8478+61.4739+31.8012+61.4029+31.7081+61.3651C31.6586+61.345+31.5932+61.3349+31.5118+61.3349L31.1261+61.3349L31.1261+61.8398L31.545+61.8398ZM30.9357+60.5712L31.5519+60.5712C31.7198+60.5712+31.8393+60.6213+31.9103+60.7216C31.9519+60.7808+31.9728+60.8492+31.9728+60.9267C31.9728+61.0172+31.947+61.0914+31.8956+61.1493C31.8689+61.1799+31.8305+61.2079+31.7804+61.2333C31.8539+61.2613+31.909+61.2929+31.9454+61.328C32.0099+61.3905+32.0421+61.4768+32.0421+61.5868C32.0421+61.6793+32.0131+61.7629+31.9552+61.8378C31.8686+61.9498+31.7309+62.0058+31.5421+62.0058L30.9357+62.0058L30.9357+60.5712Z" opacity="1" fill="#ffffff"/>
</g>
<g opacity="1">
<path d="M37.7003+60.0306L37.4825+59.3968L37.251+60.0306L37.7003+60.0306ZM37.3809+59.1839L37.6006+59.1839L38.1212+60.6185L37.9083+60.6185L37.7628+60.1888L37.1954+60.1888L37.0401+60.6185L36.8409+60.6185L37.3809+59.1839Z" opacity="1" fill="#ffffff"/>
<path d="M38.4503+59.5726L38.4503+60.2669C38.4503+60.3203+38.4587+60.3639+38.4756+60.3978C38.5069+60.4603+38.5652+60.4915+38.6505+60.4915C38.7728+60.4915+38.8562+60.4369+38.9005+60.3275C38.9245+60.2689+38.9366+60.1885+38.9366+60.0863L38.9366+59.5726L39.1124+59.5726L39.1124+60.6185L38.9463+60.6185L38.9483+60.4642C38.9255+60.5039+38.8972+60.5374+38.8633+60.5648C38.7963+60.6195+38.7149+60.6468+38.6192+60.6468C38.4701+60.6468+38.3685+60.597+38.3145+60.4974C38.2852+60.444+38.2706+60.3727+38.2706+60.2835L38.2706+59.5726L38.4503+59.5726Z" opacity="1" fill="#ffffff"/>
<path d="M39.4981+60.1078C39.4981+60.2197+39.5219+60.3135+39.5694+60.389C39.6169+60.4645+39.6931+60.5023+39.7979+60.5023C39.8793+60.5023+39.9462+60.4673+39.9986+60.3973C40.051+60.3273+40.0772+60.2269+40.0772+60.096C40.0772+59.9639+40.0502+59.8661+39.9962+59.8026C39.9421+59.7391+39.8754+59.7074+39.796+59.7074C39.7074+59.7074+39.6356+59.7412+39.5806+59.8089C39.5256+59.8766+39.4981+59.9762+39.4981+60.1078ZM39.7628+59.554C39.8428+59.554+39.9099+59.571+39.9639+59.6048C39.9952+59.6244+40.0307+59.6585+40.0704+59.7074L40.0704+59.179L40.2393+59.179L40.2393+60.6185L40.0811+60.6185L40.0811+60.473C40.0401+60.5374+39.9916+60.584+39.9356+60.6126C39.8796+60.6413+39.8155+60.6556+39.7432+60.6556C39.6267+60.6556+39.5258+60.6066+39.4405+60.5086C39.3552+60.4107+39.3126+60.2803+39.3126+60.1175C39.3126+59.9652+39.3515+59.8332+39.4293+59.7215C39.5071+59.6099+39.6182+59.554+39.7628+59.554Z" opacity="1" fill="#ffffff"/>
<path d="M40.4991+59.5775L40.6778+59.5775L40.6778+60.6185L40.4991+60.6185L40.4991+59.5775ZM40.4991+59.1839L40.6778+59.1839L40.6778+59.3831L40.4991+59.3831L40.4991+59.1839Z" opacity="1" fill="#ffffff"/>
<path d="M41.3585+60.5052C41.475+60.5052+41.5549+60.4611+41.5982+60.3729C41.6415+60.2847+41.6631+60.1865+41.6631+60.0785C41.6631+59.9808+41.6475+59.9014+41.6163+59.8402C41.5668+59.7438+41.4815+59.6956+41.3604+59.6956C41.253+59.6956+41.1749+59.7367+41.126+59.8187C41.0772+59.9007+41.0528+59.9997+41.0528+60.1156C41.0528+60.2269+41.0772+60.3197+41.126+60.3939C41.1749+60.4681+41.2523+60.5052+41.3585+60.5052ZM41.3653+59.5423C41.5001+59.5423+41.614+59.5872+41.7071+59.6771C41.8002+59.7669+41.8467+59.8991+41.8467+60.0736C41.8467+60.2422+41.8057+60.3815+41.7237+60.4915C41.6417+60.6016+41.5144+60.6566+41.3419+60.6566C41.198+60.6566+41.0837+60.6079+40.9991+60.5106C40.9144+60.4133+40.8721+60.2826+40.8721+60.1185C40.8721+59.9427+40.9167+59.8027+41.0059+59.6986C41.0951+59.5944+41.2149+59.5423+41.3653+59.5423Z" opacity="1" fill="#ffffff"/>
<path d="M37.5831+61.1449C37.8363+61.1449+38.0238+61.2262+38.1456+61.389C38.2406+61.516+38.2881+61.6784+38.2881+61.8763C38.2881+62.0905+38.2338+62.2686+38.1251+62.4105C37.9975+62.5772+37.8155+62.6605+37.5792+62.6605C37.3585+62.6605+37.185+62.5876+37.0587+62.4417C36.946+62.3011+36.8897+62.1234+36.8897+61.9085C36.8897+61.7145+36.9379+61.5485+37.0342+61.4105C37.1579+61.2334+37.3409+61.1449+37.5831+61.1449ZM37.6026+62.4867C37.7738+62.4867+37.8977+62.4253+37.9742+62.3026C38.0507+62.1799+38.0889+62.0387+38.0889+61.8792C38.0889+61.7106+38.0448+61.5749+37.9566+61.472C37.8684+61.3691+37.7478+61.3177+37.5948+61.3177C37.4463+61.3177+37.3253+61.3687+37.2315+61.4705C37.1378+61.5724+37.0909+61.7227+37.0909+61.9212C37.0909+62.0801+37.1311+62.214+37.2115+62.3231C37.2919+62.4321+37.4223+62.4867+37.6026+62.4867Z" opacity="1" fill="#ffffff"/>
<path d="M38.6719+61.5726L38.6719+62.2669C38.6719+62.3203+38.6804+62.3639+38.6973+62.3978C38.7286+62.4603+38.7868+62.4915+38.8721+62.4915C38.9945+62.4915+39.0779+62.4369+39.1221+62.3275C39.1462+62.2689+39.1583+62.1885+39.1583+62.0863L39.1583+61.5726L39.334+61.5726L39.334+62.6185L39.168+62.6185L39.17+62.4642C39.1472+62.5039+39.1189+62.5374+39.085+62.5648C39.018+62.6195+38.9366+62.6468+38.8409+62.6468C38.6918+62.6468+38.5902+62.597+38.5362+62.4974C38.5069+62.444+38.4922+62.3727+38.4922+62.2835L38.4922+61.5726L38.6719+61.5726Z" opacity="1" fill="#ffffff"/>
<path d="M39.6436+61.2806L39.8213+61.2806L39.8213+61.5726L39.9883+61.5726L39.9883+61.7162L39.8213+61.7162L39.8213+62.3988C39.8213+62.4352+39.8337+62.4596+39.8585+62.472C39.8721+62.4792+39.8949+62.4828+39.9268+62.4828C39.9353+62.4828+39.9444+62.4826+39.9542+62.4823C39.9639+62.4819+39.9753+62.4811+39.9883+62.4798L39.9883+62.6185C39.9682+62.6244+39.9472+62.6286+39.9254+62.6312C39.9035+62.6338+39.8799+62.6351+39.8546+62.6351C39.7725+62.6351+39.7169+62.6141+39.6876+62.5721C39.6583+62.5301+39.6436+62.4756+39.6436+62.4085L39.6436+61.7162L39.502+61.7162L39.502+61.5726L39.6436+61.5726L39.6436+61.2806Z" opacity="1" fill="#ffffff"/>
</g>
<g opacity="1">
<path d="M20.8559+42.2093C20.9623+42.2093+21.0487+42.1976+21.1151+42.1741C21.2411+42.1292+21.3041+42.0457+21.3041+41.9236C21.3041+41.8523+21.2728+41.7972+21.2103+41.7581C21.1478+41.72+21.0497+41.6863+20.9159+41.657L20.6874+41.6058C20.4628+41.555+20.3075+41.4998+20.2216+41.4402C20.0761+41.3406+20.0033+41.1849+20.0033+40.9729C20.0033+40.7796+20.0736+40.6189+20.2143+40.491C20.3549+40.3631+20.5614+40.2991+20.8339+40.2991C21.0614+40.2991+21.2555+40.3594+21.4162+40.48C21.5768+40.6006+21.661+40.7757+21.6688+41.0052L21.2352+41.0052C21.2274+40.8753+21.1708+40.783+21.0653+40.7283C20.995+40.6922+20.9076+40.6741+20.8031+40.6741C20.6869+40.6741+20.5941+40.6976+20.5248+40.7444C20.4555+40.7913+20.4208+40.8567+20.4208+40.9407C20.4208+41.0179+20.455+41.0755+20.5233+41.1136C20.5673+41.139+20.661+41.1687+20.8046+41.2029L21.1767+41.2923C21.3397+41.3313+21.4628+41.3836+21.5458+41.449C21.6747+41.5506+21.7392+41.6976+21.7392+41.8899C21.7392+42.0872+21.6637+42.251+21.5128+42.3814C21.362+42.5118+21.1488+42.577+20.8734+42.577C20.5922+42.577+20.371+42.5127+20.2099+42.3843C20.0487+42.2559+19.9682+42.0794+19.9682+41.8548L20.3988+41.8548C20.4125+41.9534+20.4393+42.0271+20.4794+42.076C20.5526+42.1648+20.6781+42.2093+20.8559+42.2093Z" opacity="1" fill="#ffffff"/>
<path d="M23.5761+41.5779L22.5272+41.5779L22.5272+42.1331L23.7226+42.1331L23.7226+42.5213L22.0863+42.5213L22.0863+40.3621L23.6698+40.3621L23.6698+40.7444L22.5272+40.7444L22.5272+41.2029L23.5761+41.2029L23.5761+41.5779Z" opacity="1" fill="#ffffff"/>
<path d="M25.577+41.5779L24.5282+41.5779L24.5282+42.1331L25.7235+42.1331L25.7235+42.5213L24.0873+42.5213L24.0873+40.3621L25.6708+40.3621L25.6708+40.7444L24.5282+40.7444L24.5282+41.2029L25.577+41.2029L25.577+41.5779Z" opacity="1" fill="#ffffff"/>
<path d="M27.578+41.5779L26.5292+41.5779L26.5292+42.1331L27.7245+42.1331L27.7245+42.5213L26.0883+42.5213L26.0883+40.3621L27.6718+40.3621L27.6718+40.7444L26.5292+40.7444L26.5292+41.2029L27.578+41.2029L27.578+41.5779Z" opacity="1" fill="#ffffff"/>
<path d="M29.0062+42.5213L28.0761+42.5213L28.0761+40.3621L29.0062+40.3621C29.14+40.3641+29.2514+40.3797+29.3402+40.409C29.4916+40.4588+29.6142+40.5501+29.7079+40.6829C29.7831+40.7903+29.8344+40.9065+29.8617+41.0315C29.8891+41.1565+29.9027+41.2757+29.9027+41.389C29.9027+41.6761+29.8451+41.9192+29.7299+42.1185C29.5736+42.387+29.3324+42.5213+29.0062+42.5213ZM29.3417+40.9129C29.2724+40.7957+29.1351+40.7371+28.9301+40.7371L28.5141+40.7371L28.5141+42.1463L28.9301+42.1463C29.143+42.1463+29.2914+42.0413+29.3754+41.8313C29.4213+41.7161+29.4442+41.5789+29.4442+41.4197C29.4442+41.2+29.4101+41.0311+29.3417+40.9129Z" opacity="1" fill="#ffffff"/>
<path d="M31.9931+41.6746L31.5272+41.6746L31.5272+42.5213L31.0863+42.5213L31.0863+40.3621L32.1454+40.3621C32.2968+40.365+32.4132+40.3836+32.4948+40.4178C32.5763+40.452+32.6454+40.5022+32.702+40.5687C32.7489+40.6233+32.786+40.6839+32.8134+40.7503C32.8407+40.8167+32.8544+40.8924+32.8544+40.9773C32.8544+41.0799+32.8285+41.1807+32.7768+41.2798C32.725+41.379+32.6395+41.449+32.5204+41.49C32.62+41.5301+32.6906+41.587+32.7321+41.6607C32.7736+41.7344+32.7943+41.847+32.7943+41.9983L32.7943+42.1434C32.7943+42.242+32.7982+42.3089+32.806+42.344C32.8178+42.3997+32.8451+42.4407+32.8881+42.4671L32.8881+42.5213L32.3915+42.5213C32.3778+42.4734+32.3681+42.4349+32.3622+42.4056C32.3505+42.345+32.3441+42.283+32.3432+42.2195L32.3402+42.0188C32.3383+41.8812+32.3131+41.7894+32.2648+41.7435C32.2164+41.6976+32.1259+41.6746+31.9931+41.6746ZM32.267+41.282C32.3568+41.241+32.4018+41.16+32.4018+41.0389C32.4018+40.908+32.3583+40.8201+32.2714+40.7752C32.2226+40.7498+32.1493+40.7371+32.0517+40.7371L31.5272+40.7371L31.5272+41.3172L32.0385+41.3172C32.14+41.3172+32.2162+41.3055+32.267+41.282Z" opacity="1" fill="#ffffff"/>
<path d="M34.5756+42.0525C34.5648+42.1473+34.5155+42.2435+34.4276+42.3411C34.2909+42.4964+34.0995+42.574+33.8534+42.574C33.6503+42.574+33.4711+42.5086+33.3158+42.3777C33.1605+42.2469+33.0829+42.034+33.0829+41.7391C33.0829+41.4627+33.153+41.2508+33.2931+41.1033C33.4332+40.9559+33.6151+40.8821+33.8388+40.8821C33.9716+40.8821+34.0912+40.907+34.1976+40.9568C34.3041+41.0066+34.392+41.0853+34.4613+41.1927C34.5238+41.2874+34.5643+41.3973+34.5829+41.5223C34.5936+41.5955+34.598+41.701+34.5961+41.8387L33.5033+41.8387C33.5092+41.9988+33.5595+42.1111+33.6542+42.1756C33.7118+42.2156+33.7811+42.2356+33.8622+42.2356C33.9481+42.2356+34.018+42.2112+34.0717+42.1624C34.101+42.136+34.1268+42.0994+34.1493+42.0525L34.5756+42.0525ZM34.1625+41.5633C34.1557+41.4529+34.1222+41.3692+34.0622+41.3121C34.0021+41.2549+33.9276+41.2264+33.8388+41.2264C33.7421+41.2264+33.6671+41.2566+33.6139+41.3172C33.5607+41.3777+33.5272+41.4598+33.5136+41.5633L34.1625+41.5633Z" opacity="1" fill="#ffffff"/>
<path d="M35.6947+42.2093C35.8012+42.2093+35.8876+42.1976+35.954+42.1741C36.08+42.1292+36.143+42.0457+36.143+41.9236C36.143+41.8523+36.1117+41.7972+36.0492+41.7581C35.9867+41.72+35.8886+41.6863+35.7548+41.657L35.5263+41.6058C35.3017+41.555+35.1464+41.4998+35.0604+41.4402C34.9149+41.3406+34.8422+41.1849+34.8422+40.9729C34.8422+40.7796+34.9125+40.6189+35.0531+40.491C35.1937+40.3631+35.4003+40.2991+35.6727+40.2991C35.9003+40.2991+36.0944+40.3594+36.255+40.48C36.4157+40.6006+36.4999+40.7757+36.5077+41.0052L36.0741+41.0052C36.0663+40.8753+36.0097+40.783+35.9042+40.7283C35.8339+40.6922+35.7465+40.6741+35.642+40.6741C35.5258+40.6741+35.433+40.6976+35.3637+40.7444C35.2943+40.7913+35.2597+40.8567+35.2597+40.9407C35.2597+41.0179+35.2938+41.0755+35.3622+41.1136C35.4061+41.139+35.4999+41.1687+35.6435+41.2029L36.0155+41.2923C36.1786+41.3313+36.3017+41.3836+36.3847+41.449C36.5136+41.5506+36.578+41.6976+36.578+41.8899C36.578+42.0872+36.5026+42.251+36.3517+42.3814C36.2008+42.5118+35.9877+42.577+35.7123+42.577C35.431+42.577+35.2099+42.5127+35.0487+42.3843C34.8876+42.2559+34.807+42.0794+34.807+41.8548L35.2377+41.8548C35.2514+41.9534+35.2782+42.0271+35.3183+42.076C35.3915+42.1648+35.517+42.2093+35.6947+42.2093Z" opacity="1" fill="#ffffff"/>
<path d="M38.2157+41.096C38.3446+41.2337+38.4091+41.4358+38.4091+41.7024C38.4091+41.9837+38.3458+42.198+38.2194+42.3455C38.0929+42.493+37.9301+42.5667+37.7309+42.5667C37.6039+42.5667+37.4984+42.535+37.4144+42.4715C37.3685+42.4363+37.3236+42.3851+37.2797+42.3177L37.2797+43.1497L36.8666+43.1497L36.8666+40.9246L37.2665+40.9246L37.2665+41.1604C37.3114+41.0911+37.3593+41.0364+37.4101+40.9964C37.5028+40.9251+37.6132+40.8895+37.7411+40.8895C37.9276+40.8895+38.0858+40.9583+38.2157+41.096ZM37.9784+41.7229C37.9784+41.5999+37.9503+41.491+37.8942+41.3963C37.838+41.3016+37.747+41.2542+37.621+41.2542C37.4696+41.2542+37.3656+41.326+37.309+41.4695C37.2797+41.5457+37.265+41.6424+37.265+41.7596C37.265+41.9451+37.3143+42.0755+37.413+42.1507C37.4716+42.1946+37.5409+42.2166+37.621+42.2166C37.7372+42.2166+37.8258+42.1717+37.8869+42.0818C37.9479+41.992+37.9784+41.8724+37.9784+41.7229Z" opacity="1" fill="#ffffff"/>
<path d="M40.0775+42.0525C40.0668+42.1473+40.0175+42.2435+39.9296+42.3411C39.7929+42.4964+39.6015+42.574+39.3554+42.574C39.1522+42.574+38.973+42.5086+38.8178+42.3777C38.6625+42.2469+38.5849+42.034+38.5849+41.7391C38.5849+41.4627+38.6549+41.2508+38.7951+41.1033C38.9352+40.9559+39.1171+40.8821+39.3407+40.8821C39.4735+40.8821+39.5932+40.907+39.6996+40.9568C39.806+41.0066+39.8939+41.0853+39.9633+41.1927C40.0258+41.2874+40.0663+41.3973+40.0849+41.5223C40.0956+41.5955+40.1+41.701+40.098+41.8387L39.0053+41.8387C39.0111+41.9988+39.0614+42.1111+39.1561+42.1756C39.2138+42.2156+39.2831+42.2356+39.3642+42.2356C39.4501+42.2356+39.5199+42.2112+39.5736+42.1624C39.6029+42.136+39.6288+42.0994+39.6513+42.0525L40.0775+42.0525ZM39.6644+41.5633C39.6576+41.4529+39.6242+41.3692+39.5641+41.3121C39.504+41.2549+39.4296+41.2264+39.3407+41.2264C39.244+41.2264+39.1691+41.2566+39.1159+41.3172C39.0626+41.3777+39.0292+41.4598+39.0155+41.5633L39.6644+41.5633Z" opacity="1" fill="#ffffff"/>
<path d="M40.4393+41.0975C40.5497+40.9568+40.7392+40.8865+41.0077+40.8865C41.1825+40.8865+41.3378+40.9212+41.4735+40.9905C41.6093+41.0599+41.6771+41.1907+41.6771+41.3831L41.6771+42.1155C41.6771+42.1663+41.6781+42.2278+41.6801+42.3001C41.683+42.3548+41.6913+42.3919+41.705+42.4114C41.7186+42.431+41.7392+42.4471+41.7665+42.4598L41.7665+42.5213L41.3124+42.5213C41.2997+42.4891+41.2909+42.4588+41.286+42.4305C41.2811+42.4021+41.2772+42.3699+41.2743+42.3338C41.2167+42.3963+41.1503+42.4495+41.0751+42.4935C40.9852+42.5452+40.8837+42.5711+40.7704+42.5711C40.6259+42.5711+40.5065+42.5298+40.4122+42.4473C40.318+42.3648+40.2709+42.2479+40.2709+42.0965C40.2709+41.9002+40.3466+41.7581+40.4979+41.6702C40.581+41.6224+40.703+41.5882+40.8642+41.5677L41.0062+41.5501C41.0834+41.5403+41.1386+41.5281+41.1718+41.5135C41.2313+41.4881+41.2611+41.4485+41.2611+41.3948C41.2611+41.3294+41.2384+41.2842+41.193+41.2593C41.1476+41.2344+41.081+41.222+40.9931+41.222C40.8944+41.222+40.8246+41.2464+40.7836+41.2952C40.7543+41.3313+40.7348+41.3802+40.725+41.4417L40.3222+41.4417C40.331+41.3021+40.37+41.1873+40.4393+41.0975ZM40.7499+42.2195C40.789+42.2518+40.8368+42.2679+40.8935+42.2679C40.9833+42.2679+41.0661+42.2415+41.1417+42.1888C41.2174+42.136+41.2567+42.0398+41.2597+41.9002L41.2597+41.7449C41.2333+41.7615+41.2067+41.775+41.1798+41.7852C41.153+41.7955+41.1161+41.805+41.0692+41.8138L40.9755+41.8313C40.8876+41.847+40.8246+41.866+40.7865+41.8885C40.7221+41.9266+40.6898+41.9856+40.6898+42.0657C40.6898+42.137+40.7099+42.1883+40.7499+42.2195Z" opacity="1" fill="#ffffff"/>
<path d="M43.5126+42.5213L43.0087+42.5213L42.6264+41.8387L42.4535+42.0188L42.4535+42.5213L42.0434+42.5213L42.0434+40.3694L42.4535+40.3694L42.4535+41.5325L42.9735+40.9319L43.4906+40.9319L42.9325+41.5428L43.5126+42.5213Z" opacity="1" fill="#ffffff"/>
<path d="M45.0829+42.0525C45.0722+42.1473+45.0228+42.2435+44.935+42.3411C44.7982+42.4964+44.6068+42.574+44.3607+42.574C44.1576+42.574+43.9784+42.5086+43.8231+42.3777C43.6679+42.2469+43.5902+42.034+43.5902+41.7391C43.5902+41.4627+43.6603+41.2508+43.8004+41.1033C43.9406+40.9559+44.1225+40.8821+44.3461+40.8821C44.4789+40.8821+44.5985+40.907+44.705+40.9568C44.8114+41.0066+44.8993+41.0853+44.9686+41.1927C45.0311+41.2874+45.0717+41.3973+45.0902+41.5223C45.101+41.5955+45.1054+41.701+45.1034+41.8387L44.0106+41.8387C44.0165+41.9988+44.0668+42.1111+44.1615+42.1756C44.2191+42.2156+44.2885+42.2356+44.3695+42.2356C44.4555+42.2356+44.5253+42.2112+44.579+42.1624C44.6083+42.136+44.6342+42.0994+44.6566+42.0525L45.0829+42.0525ZM44.6698+41.5633C44.663+41.4529+44.6295+41.3692+44.5695+41.3121C44.5094+41.2549+44.435+41.2264+44.3461+41.2264C44.2494+41.2264+44.1745+41.2566+44.1212+41.3172C44.068+41.3777+44.0346+41.4598+44.0209+41.5633L44.6698+41.5633Z" opacity="1" fill="#ffffff"/>
<path d="M46.1874+41.3099C46.0194+41.3099+45.9066+41.3646+45.849+41.4739C45.8168+41.5354+45.8007+41.6302+45.8007+41.7581L45.8007+42.5213L45.3803+42.5213L45.3803+40.9246L45.7787+40.9246L45.7787+41.2029C45.8432+41.0965+45.8993+41.0237+45.9472+40.9847C46.0253+40.9192+46.1268+40.8865+46.2518+40.8865C46.2597+40.8865+46.2663+40.8868+46.2716+40.8873C46.277+40.8877+46.289+40.8885+46.3075+40.8895L46.3075+41.3172C46.2811+41.3143+46.2577+41.3123+46.2372+41.3113C46.2167+41.3104+46.2001+41.3099+46.1874+41.3099Z" opacity="1" fill="#ffffff"/>
<path d="M48.2338+40.8294C48.184+40.7698+48.1127+40.74+48.0199+40.74C47.893+40.74+47.8065+40.7874+47.7606+40.8821C47.7343+40.9368+47.7186+41.0237+47.7138+41.1429L47.308+41.1429C47.3148+40.9622+47.3476+40.8162+47.4061+40.7049C47.5175+40.493+47.7152+40.387+47.9994+40.387C48.224+40.387+48.4027+40.4493+48.5355+40.5738C48.6684+40.6983+48.7348+40.8631+48.7348+41.0682C48.7348+41.2254+48.6879+41.365+48.5941+41.4871C48.5326+41.5682+48.4315+41.6585+48.2909+41.7581L48.1239+41.8768C48.0194+41.951+47.9479+42.0047+47.9093+42.0379C47.8707+42.0711+47.8383+42.1097+47.8119+42.1536L48.7392+42.1536L48.7392+42.5213L47.2846+42.5213C47.2885+42.3689+47.3212+42.2298+47.3827+42.1038C47.4423+41.9622+47.5829+41.8123+47.8046+41.6541C47.997+41.5164+48.1215+41.4178+48.1781+41.3582C48.265+41.2654+48.3085+41.1639+48.3085+41.0535C48.3085+40.9637+48.2836+40.889+48.2338+40.8294Z" opacity="1" fill="#ffffff"/>
</g>
</g>
</svg>
